G04 (created by PCBNEW (2013-07-07 BZR 4022)-stable) date 2/4/2017 6:27:51 AM*
%MOIN*%
G04 Gerber Fmt 3.4, Leading zero omitted, Abs format*
%FSLAX34Y34*%
G01*
G70*
G90*
G04 APERTURE LIST*
%ADD10C,0.00590551*%
%ADD11C,0.01*%
%ADD12C,0.00393701*%
%ADD13C,0.00984252*%
%ADD14C,0.005*%
%ADD15C,0.0031*%
%ADD16C,0.0039*%
%ADD17C,0.0047*%
%ADD18C,0.006*%
%ADD19C,0.00472441*%
%ADD20C,0.008*%
%ADD21C,0.0028*%
%ADD22C,0.0079*%
%ADD23C,0.0025*%
%ADD24C,0.00375*%
%ADD25C,0.0043*%
%ADD26C,0.0045*%
%ADD27C,0.0075*%
%ADD28C,0.00295276*%
%ADD29C,0.011811*%
%ADD30C,0.0059*%
G04 APERTURE END LIST*
G54D10*
G54D11*
X43928Y-23610D02*
X43952Y-23586D01*
X44000Y-23562D01*
X44119Y-23562D01*
X44166Y-23586D01*
X44190Y-23610D01*
X44214Y-23657D01*
X44214Y-23705D01*
X44190Y-23776D01*
X43904Y-24062D01*
X44214Y-24062D01*
X44642Y-23729D02*
X44642Y-24062D01*
X44523Y-23538D02*
X44404Y-23895D01*
X44714Y-23895D01*
X44857Y-23729D02*
X44976Y-24062D01*
X45095Y-23729D01*
G54D12*
X49561Y-26550D02*
G75*
G03X49561Y-26550I-111J0D01*
G74*
G01*
X48100Y-32400D02*
X48200Y-32400D01*
X48600Y-33400D02*
X48600Y-33300D01*
G54D13*
X43128Y-33597D02*
G75*
G03X43325Y-33479I39J157D01*
G74*
G01*
X43325Y-33440D02*
G75*
G03X43128Y-33243I-196J0D01*
G74*
G01*
X43128Y-33991D02*
X41711Y-33991D01*
X41711Y-33991D02*
X41711Y-32888D01*
X41711Y-32888D02*
X43128Y-32888D01*
X43128Y-32888D02*
X43128Y-33991D01*
G54D14*
X58235Y-22790D02*
X58235Y-24010D01*
X58235Y-24010D02*
X57530Y-24010D01*
X58235Y-22790D02*
X57530Y-22790D01*
X55365Y-24145D02*
X55365Y-24465D01*
X55365Y-24465D02*
X56070Y-24465D01*
X55365Y-24145D02*
X56070Y-24145D01*
X55365Y-23240D02*
X56070Y-23240D01*
X55365Y-23560D02*
X56070Y-23560D01*
X55365Y-23240D02*
X55365Y-23560D01*
X55365Y-22335D02*
X55365Y-22655D01*
X55365Y-22655D02*
X56070Y-22655D01*
X55365Y-22335D02*
X56070Y-22335D01*
X56070Y-24720D02*
X56070Y-22080D01*
X56070Y-22080D02*
X57530Y-22080D01*
X57530Y-22080D02*
X57530Y-24720D01*
X57530Y-24720D02*
X56070Y-24720D01*
G54D11*
X69291Y-36945D02*
X69291Y-38645D01*
X68441Y-37795D02*
X70141Y-37795D01*
X69991Y-37795D02*
G75*
G03X69991Y-37795I-700J0D01*
G74*
G01*
G54D15*
X37725Y-35062D02*
G75*
G03X37725Y-35062I-62J0D01*
G74*
G01*
X36700Y-35400D02*
X36700Y-35000D01*
X37725Y-35400D02*
X37725Y-35000D01*
X36700Y-35000D02*
X37725Y-35000D01*
X37725Y-35400D02*
X36700Y-35400D01*
X47025Y-25712D02*
G75*
G03X47025Y-25712I-62J0D01*
G74*
G01*
X46000Y-26050D02*
X46000Y-25650D01*
X47025Y-26050D02*
X47025Y-25650D01*
X46000Y-25650D02*
X47025Y-25650D01*
X47025Y-26050D02*
X46000Y-26050D01*
X43925Y-25862D02*
G75*
G03X43925Y-25862I-62J0D01*
G74*
G01*
X42900Y-26200D02*
X42900Y-25800D01*
X43925Y-26200D02*
X43925Y-25800D01*
X42900Y-25800D02*
X43925Y-25800D01*
X43925Y-26200D02*
X42900Y-26200D01*
G54D16*
X51600Y-25150D02*
G75*
G03X51600Y-25150I-50J0D01*
G74*
G01*
X51100Y-25150D02*
X51500Y-25150D01*
X51500Y-25150D02*
X51500Y-25750D01*
X51500Y-25750D02*
X51100Y-25750D01*
X50700Y-25750D02*
X50300Y-25750D01*
X50300Y-25750D02*
X50300Y-25150D01*
X50300Y-25150D02*
X50700Y-25150D01*
X32450Y-33550D02*
G75*
G03X32450Y-33550I-50J0D01*
G74*
G01*
X32400Y-33100D02*
X32400Y-33500D01*
X32400Y-33500D02*
X31800Y-33500D01*
X31800Y-33500D02*
X31800Y-33100D01*
X31800Y-32700D02*
X31800Y-32300D01*
X31800Y-32300D02*
X32400Y-32300D01*
X32400Y-32300D02*
X32400Y-32700D01*
X44250Y-25350D02*
G75*
G03X44250Y-25350I-50J0D01*
G74*
G01*
X44200Y-25800D02*
X44200Y-25400D01*
X44200Y-25400D02*
X44800Y-25400D01*
X44800Y-25400D02*
X44800Y-25800D01*
X44800Y-26200D02*
X44800Y-26600D01*
X44800Y-26600D02*
X44200Y-26600D01*
X44200Y-26600D02*
X44200Y-26200D01*
X47240Y-29780D02*
G75*
G03X47240Y-29780I-50J0D01*
G74*
G01*
X46740Y-29780D02*
X47140Y-29780D01*
X47140Y-29780D02*
X47140Y-30380D01*
X47140Y-30380D02*
X46740Y-30380D01*
X46340Y-30380D02*
X45940Y-30380D01*
X45940Y-30380D02*
X45940Y-29780D01*
X45940Y-29780D02*
X46340Y-29780D01*
X47260Y-30600D02*
G75*
G03X47260Y-30600I-50J0D01*
G74*
G01*
X46760Y-30600D02*
X47160Y-30600D01*
X47160Y-30600D02*
X47160Y-31200D01*
X47160Y-31200D02*
X46760Y-31200D01*
X46360Y-31200D02*
X45960Y-31200D01*
X45960Y-31200D02*
X45960Y-30600D01*
X45960Y-30600D02*
X46360Y-30600D01*
X40175Y-30875D02*
G75*
G03X40175Y-30875I-50J0D01*
G74*
G01*
X40125Y-30425D02*
X40125Y-30825D01*
X40125Y-30825D02*
X39525Y-30825D01*
X39525Y-30825D02*
X39525Y-30425D01*
X39525Y-30025D02*
X39525Y-29625D01*
X39525Y-29625D02*
X40125Y-29625D01*
X40125Y-29625D02*
X40125Y-30025D01*
G54D11*
X69291Y-20409D02*
X69291Y-22109D01*
X68441Y-21259D02*
X70141Y-21259D01*
X69991Y-21259D02*
G75*
G03X69991Y-21259I-700J0D01*
G74*
G01*
X33070Y-36945D02*
X33070Y-38645D01*
X32220Y-37795D02*
X33920Y-37795D01*
X33770Y-37795D02*
G75*
G03X33770Y-37795I-700J0D01*
G74*
G01*
G54D17*
X47347Y-24256D02*
X47622Y-24256D01*
X46953Y-24256D02*
X46678Y-24256D01*
X47347Y-23744D02*
X47622Y-23744D01*
X46678Y-23744D02*
X46953Y-23744D01*
X47622Y-23750D02*
X47622Y-24250D01*
X46678Y-24250D02*
X46678Y-23750D01*
X49503Y-23744D02*
X49228Y-23744D01*
X49897Y-23744D02*
X50172Y-23744D01*
X49503Y-24256D02*
X49228Y-24256D01*
X50172Y-24256D02*
X49897Y-24256D01*
X49228Y-24250D02*
X49228Y-23750D01*
X50172Y-23750D02*
X50172Y-24250D01*
G54D16*
X33850Y-27650D02*
G75*
G03X33850Y-27650I-50J0D01*
G74*
G01*
X33800Y-27200D02*
X33800Y-27600D01*
X33800Y-27600D02*
X33200Y-27600D01*
X33200Y-27600D02*
X33200Y-27200D01*
X33200Y-26800D02*
X33200Y-26400D01*
X33200Y-26400D02*
X33800Y-26400D01*
X33800Y-26400D02*
X33800Y-26800D01*
G54D14*
X33400Y-31750D02*
X33350Y-31750D01*
X33350Y-31750D02*
X33350Y-33850D01*
X34850Y-33850D02*
X34850Y-31750D01*
X34850Y-31750D02*
X33400Y-31750D01*
X34300Y-31750D02*
X34300Y-31950D01*
X34300Y-31950D02*
X33900Y-31950D01*
X33900Y-31950D02*
X33900Y-31750D01*
X34850Y-33850D02*
X33350Y-33850D01*
G54D18*
X45055Y-31465D02*
X44605Y-31465D01*
X45055Y-29285D02*
X44615Y-29285D01*
X45055Y-31465D02*
X45055Y-29285D01*
X44175Y-31935D02*
X44175Y-32365D01*
X41965Y-31945D02*
X41965Y-32365D01*
X41955Y-32365D02*
X44175Y-32375D01*
X41975Y-28395D02*
X44145Y-28385D01*
X41545Y-29085D02*
X41545Y-31915D01*
X44155Y-28395D02*
X44155Y-28805D01*
X41795Y-28845D02*
X44575Y-28845D01*
X44595Y-31925D02*
X44595Y-28885D01*
X41545Y-31925D02*
X44545Y-31925D01*
X41095Y-29255D02*
X41095Y-31475D01*
X41095Y-31475D02*
X41545Y-31475D01*
X41549Y-29075D02*
X41779Y-28845D01*
X41097Y-29255D02*
X41549Y-29255D01*
X41975Y-28845D02*
X41975Y-28393D01*
X42145Y-29249D02*
G75*
G03X42145Y-29249I-188J0D01*
G74*
G01*
G54D16*
X60600Y-35350D02*
G75*
G03X60600Y-35350I-50J0D01*
G74*
G01*
X60550Y-35800D02*
X60550Y-35400D01*
X60550Y-35400D02*
X61150Y-35400D01*
X61150Y-35400D02*
X61150Y-35800D01*
X61150Y-36200D02*
X61150Y-36600D01*
X61150Y-36600D02*
X60550Y-36600D01*
X60550Y-36600D02*
X60550Y-36200D01*
X45950Y-32100D02*
G75*
G03X45950Y-32100I-50J0D01*
G74*
G01*
X46350Y-32100D02*
X45950Y-32100D01*
X45950Y-32100D02*
X45950Y-31500D01*
X45950Y-31500D02*
X46350Y-31500D01*
X46750Y-31500D02*
X47150Y-31500D01*
X47150Y-31500D02*
X47150Y-32100D01*
X47150Y-32100D02*
X46750Y-32100D01*
X48700Y-33400D02*
G75*
G03X48700Y-33400I-50J0D01*
G74*
G01*
X49100Y-33400D02*
X48700Y-33400D01*
X48700Y-33400D02*
X48700Y-32800D01*
X48700Y-32800D02*
X49100Y-32800D01*
X49500Y-32800D02*
X49900Y-32800D01*
X49900Y-32800D02*
X49900Y-33400D01*
X49900Y-33400D02*
X49500Y-33400D01*
X41600Y-22200D02*
G75*
G03X41600Y-22200I-50J0D01*
G74*
G01*
X41100Y-22200D02*
X41500Y-22200D01*
X41500Y-22200D02*
X41500Y-22800D01*
X41500Y-22800D02*
X41100Y-22800D01*
X40700Y-22800D02*
X40300Y-22800D01*
X40300Y-22800D02*
X40300Y-22200D01*
X40300Y-22200D02*
X40700Y-22200D01*
G54D11*
X33070Y-20409D02*
X33070Y-22109D01*
X32220Y-21259D02*
X33920Y-21259D01*
X33770Y-21259D02*
G75*
G03X33770Y-21259I-700J0D01*
G74*
G01*
G54D14*
X49475Y-26375D02*
X49475Y-24425D01*
X49475Y-24425D02*
X47925Y-24425D01*
X47925Y-24425D02*
X47925Y-26375D01*
X47925Y-26375D02*
X49475Y-26375D01*
X49336Y-26125D02*
G75*
G03X49336Y-26125I-111J0D01*
G74*
G01*
X50200Y-23550D02*
X49300Y-23550D01*
X49300Y-23550D02*
X49300Y-23050D01*
X49300Y-23050D02*
X50200Y-23050D01*
X50200Y-23050D02*
X50200Y-23550D01*
X46700Y-23100D02*
X47600Y-23100D01*
X47600Y-23100D02*
X47600Y-23600D01*
X47600Y-23600D02*
X46700Y-23600D01*
X46700Y-23600D02*
X46700Y-23100D01*
X46350Y-26600D02*
X46350Y-27500D01*
X46350Y-27500D02*
X47000Y-27500D01*
X47700Y-26600D02*
X48350Y-26600D01*
X48350Y-26600D02*
X48350Y-27500D01*
X48350Y-27500D02*
X47700Y-27500D01*
X47000Y-26600D02*
X46350Y-26600D01*
G54D16*
X52450Y-37250D02*
G75*
G03X52450Y-37250I-50J0D01*
G74*
G01*
X52400Y-36800D02*
X52400Y-37200D01*
X52400Y-37200D02*
X51800Y-37200D01*
X51800Y-37200D02*
X51800Y-36800D01*
X51800Y-36400D02*
X51800Y-36000D01*
X51800Y-36000D02*
X52400Y-36000D01*
X52400Y-36000D02*
X52400Y-36400D01*
G54D15*
X52574Y-26817D02*
G75*
G03X52574Y-26817I-62J0D01*
G74*
G01*
X52850Y-27780D02*
X52450Y-27780D01*
X52850Y-26755D02*
X52450Y-26755D01*
X52450Y-27780D02*
X52450Y-26755D01*
X52850Y-26755D02*
X52850Y-27780D01*
G54D16*
X54000Y-25100D02*
G75*
G03X54000Y-25100I-50J0D01*
G74*
G01*
X53500Y-25100D02*
X53900Y-25100D01*
X53900Y-25100D02*
X53900Y-25700D01*
X53900Y-25700D02*
X53500Y-25700D01*
X53100Y-25700D02*
X52700Y-25700D01*
X52700Y-25700D02*
X52700Y-25100D01*
X52700Y-25100D02*
X53100Y-25100D01*
X52000Y-24400D02*
G75*
G03X52000Y-24400I-50J0D01*
G74*
G01*
X51500Y-24400D02*
X51900Y-24400D01*
X51900Y-24400D02*
X51900Y-25000D01*
X51900Y-25000D02*
X51500Y-25000D01*
X51100Y-25000D02*
X50700Y-25000D01*
X50700Y-25000D02*
X50700Y-24400D01*
X50700Y-24400D02*
X51100Y-24400D01*
X49900Y-30600D02*
G75*
G03X49900Y-30600I-50J0D01*
G74*
G01*
X49400Y-30600D02*
X49800Y-30600D01*
X49800Y-30600D02*
X49800Y-31200D01*
X49800Y-31200D02*
X49400Y-31200D01*
X49000Y-31200D02*
X48600Y-31200D01*
X48600Y-31200D02*
X48600Y-30600D01*
X48600Y-30600D02*
X49000Y-30600D01*
X35150Y-23850D02*
G75*
G03X35150Y-23850I-50J0D01*
G74*
G01*
X35100Y-23400D02*
X35100Y-23800D01*
X35100Y-23800D02*
X34500Y-23800D01*
X34500Y-23800D02*
X34500Y-23400D01*
X34500Y-23000D02*
X34500Y-22600D01*
X34500Y-22600D02*
X35100Y-22600D01*
X35100Y-22600D02*
X35100Y-23000D01*
G54D14*
X55900Y-30850D02*
X55900Y-29950D01*
X55900Y-29950D02*
X55250Y-29950D01*
X54550Y-30850D02*
X53900Y-30850D01*
X53900Y-30850D02*
X53900Y-29950D01*
X53900Y-29950D02*
X54550Y-29950D01*
X55250Y-30850D02*
X55900Y-30850D01*
G54D16*
X60300Y-35150D02*
G75*
G03X60300Y-35150I-50J0D01*
G74*
G01*
X60700Y-35150D02*
X60300Y-35150D01*
X60300Y-35150D02*
X60300Y-34550D01*
X60300Y-34550D02*
X60700Y-34550D01*
X61100Y-34550D02*
X61500Y-34550D01*
X61500Y-34550D02*
X61500Y-35150D01*
X61500Y-35150D02*
X61100Y-35150D01*
G54D19*
X67462Y-32853D02*
X67994Y-32853D01*
X67994Y-32853D02*
X67994Y-32892D01*
X68132Y-34546D02*
X67462Y-34546D01*
X66137Y-26046D02*
X65605Y-26046D01*
X65605Y-26046D02*
X65605Y-26007D01*
X65467Y-24353D02*
X66137Y-24353D01*
G54D14*
X55800Y-35800D02*
X55720Y-35800D01*
X55200Y-35050D02*
X57000Y-35050D01*
X57000Y-35050D02*
X57000Y-35300D01*
X56360Y-36550D02*
X56360Y-35050D01*
X56490Y-36550D02*
X56490Y-35050D01*
X55200Y-36300D02*
X55200Y-36550D01*
X55200Y-36550D02*
X57000Y-36550D01*
X57000Y-36550D02*
X57000Y-36300D01*
X55200Y-35300D02*
X55200Y-35050D01*
X56050Y-35800D02*
X55800Y-35613D01*
X55800Y-35613D02*
X55800Y-35800D01*
X55800Y-35800D02*
X55800Y-35987D01*
X55800Y-35987D02*
X56050Y-35800D01*
X56050Y-35800D02*
X56050Y-35675D01*
X56050Y-35675D02*
X55988Y-35613D01*
X56050Y-35800D02*
X56050Y-35925D01*
X56050Y-35925D02*
X56112Y-35987D01*
X56050Y-35800D02*
X56487Y-35800D01*
X46647Y-24975D02*
X46925Y-24975D01*
X46925Y-24975D02*
X46925Y-24425D01*
X46925Y-24425D02*
X46647Y-24425D01*
X45975Y-24975D02*
X46253Y-24975D01*
X45975Y-24975D02*
X45975Y-24425D01*
X45975Y-24425D02*
X46253Y-24425D01*
X42575Y-25703D02*
X42575Y-25425D01*
X42575Y-25425D02*
X42025Y-25425D01*
X42025Y-25425D02*
X42025Y-25703D01*
X42575Y-26375D02*
X42575Y-26097D01*
X42575Y-26375D02*
X42025Y-26375D01*
X42025Y-26375D02*
X42025Y-26097D01*
X49075Y-23403D02*
X49075Y-23125D01*
X49075Y-23125D02*
X48525Y-23125D01*
X48525Y-23125D02*
X48525Y-23403D01*
X49075Y-24075D02*
X49075Y-23797D01*
X49075Y-24075D02*
X48525Y-24075D01*
X48525Y-24075D02*
X48525Y-23797D01*
X48375Y-23403D02*
X48375Y-23125D01*
X48375Y-23125D02*
X47825Y-23125D01*
X47825Y-23125D02*
X47825Y-23403D01*
X48375Y-24075D02*
X48375Y-23797D01*
X48375Y-24075D02*
X47825Y-24075D01*
X47825Y-24075D02*
X47825Y-23797D01*
X33225Y-25897D02*
X33225Y-26175D01*
X33225Y-26175D02*
X33775Y-26175D01*
X33775Y-26175D02*
X33775Y-25897D01*
X33225Y-25225D02*
X33225Y-25503D01*
X33225Y-25225D02*
X33775Y-25225D01*
X33775Y-25225D02*
X33775Y-25503D01*
X42497Y-22775D02*
X42775Y-22775D01*
X42775Y-22775D02*
X42775Y-22225D01*
X42775Y-22225D02*
X42497Y-22225D01*
X41825Y-22775D02*
X42103Y-22775D01*
X41825Y-22775D02*
X41825Y-22225D01*
X41825Y-22225D02*
X42103Y-22225D01*
X45025Y-26097D02*
X45025Y-26375D01*
X45025Y-26375D02*
X45575Y-26375D01*
X45575Y-26375D02*
X45575Y-26097D01*
X45025Y-25425D02*
X45025Y-25703D01*
X45025Y-25425D02*
X45575Y-25425D01*
X45575Y-25425D02*
X45575Y-25703D01*
X37997Y-38475D02*
X38275Y-38475D01*
X38275Y-38475D02*
X38275Y-37925D01*
X38275Y-37925D02*
X37997Y-37925D01*
X37325Y-38475D02*
X37603Y-38475D01*
X37325Y-38475D02*
X37325Y-37925D01*
X37325Y-37925D02*
X37603Y-37925D01*
X61097Y-38275D02*
X61375Y-38275D01*
X61375Y-38275D02*
X61375Y-37725D01*
X61375Y-37725D02*
X61097Y-37725D01*
X60425Y-38275D02*
X60703Y-38275D01*
X60425Y-38275D02*
X60425Y-37725D01*
X60425Y-37725D02*
X60703Y-37725D01*
X49003Y-31325D02*
X48725Y-31325D01*
X48725Y-31325D02*
X48725Y-31875D01*
X48725Y-31875D02*
X49003Y-31875D01*
X49675Y-31325D02*
X49397Y-31325D01*
X49675Y-31325D02*
X49675Y-31875D01*
X49675Y-31875D02*
X49397Y-31875D01*
X49497Y-34175D02*
X49775Y-34175D01*
X49775Y-34175D02*
X49775Y-33625D01*
X49775Y-33625D02*
X49497Y-33625D01*
X48825Y-34175D02*
X49103Y-34175D01*
X48825Y-34175D02*
X48825Y-33625D01*
X48825Y-33625D02*
X49103Y-33625D01*
X60327Y-34096D02*
X60327Y-34374D01*
X60327Y-34374D02*
X60877Y-34374D01*
X60877Y-34374D02*
X60877Y-34096D01*
X60327Y-33424D02*
X60327Y-33702D01*
X60327Y-33424D02*
X60877Y-33424D01*
X60877Y-33424D02*
X60877Y-33702D01*
X52697Y-28575D02*
X52975Y-28575D01*
X52975Y-28575D02*
X52975Y-28025D01*
X52975Y-28025D02*
X52697Y-28025D01*
X52025Y-28575D02*
X52303Y-28575D01*
X52025Y-28575D02*
X52025Y-28025D01*
X52025Y-28025D02*
X52303Y-28025D01*
X53103Y-25925D02*
X52825Y-25925D01*
X52825Y-25925D02*
X52825Y-26475D01*
X52825Y-26475D02*
X53103Y-26475D01*
X53775Y-25925D02*
X53497Y-25925D01*
X53775Y-25925D02*
X53775Y-26475D01*
X53775Y-26475D02*
X53497Y-26475D01*
X55725Y-21397D02*
X55725Y-21675D01*
X55725Y-21675D02*
X56275Y-21675D01*
X56275Y-21675D02*
X56275Y-21397D01*
X55725Y-20725D02*
X55725Y-21003D01*
X55725Y-20725D02*
X56275Y-20725D01*
X56275Y-20725D02*
X56275Y-21003D01*
X54125Y-23397D02*
X54125Y-23675D01*
X54125Y-23675D02*
X54675Y-23675D01*
X54675Y-23675D02*
X54675Y-23397D01*
X54125Y-22725D02*
X54125Y-23003D01*
X54125Y-22725D02*
X54675Y-22725D01*
X54675Y-22725D02*
X54675Y-23003D01*
X56175Y-27503D02*
X56175Y-27225D01*
X56175Y-27225D02*
X55625Y-27225D01*
X55625Y-27225D02*
X55625Y-27503D01*
X56175Y-28175D02*
X56175Y-27897D01*
X56175Y-28175D02*
X55625Y-28175D01*
X55625Y-28175D02*
X55625Y-27897D01*
X55625Y-29097D02*
X55625Y-29375D01*
X55625Y-29375D02*
X56175Y-29375D01*
X56175Y-29375D02*
X56175Y-29097D01*
X55625Y-28425D02*
X55625Y-28703D01*
X55625Y-28425D02*
X56175Y-28425D01*
X56175Y-28425D02*
X56175Y-28703D01*
X47875Y-31047D02*
X47875Y-31325D01*
X47875Y-31325D02*
X48425Y-31325D01*
X48425Y-31325D02*
X48425Y-31047D01*
X47875Y-30375D02*
X47875Y-30653D01*
X47875Y-30375D02*
X48425Y-30375D01*
X48425Y-30375D02*
X48425Y-30653D01*
X45575Y-27103D02*
X45575Y-26825D01*
X45575Y-26825D02*
X45025Y-26825D01*
X45025Y-26825D02*
X45025Y-27103D01*
X45575Y-27775D02*
X45575Y-27497D01*
X45575Y-27775D02*
X45025Y-27775D01*
X45025Y-27775D02*
X45025Y-27497D01*
X51047Y-26475D02*
X51325Y-26475D01*
X51325Y-26475D02*
X51325Y-25925D01*
X51325Y-25925D02*
X51047Y-25925D01*
X50375Y-26475D02*
X50653Y-26475D01*
X50375Y-26475D02*
X50375Y-25925D01*
X50375Y-25925D02*
X50653Y-25925D01*
X59450Y-35550D02*
X59500Y-35550D01*
X59500Y-35550D02*
X59500Y-33450D01*
X58000Y-33450D02*
X58000Y-35550D01*
X58000Y-35550D02*
X59450Y-35550D01*
X58550Y-35550D02*
X58550Y-35350D01*
X58550Y-35350D02*
X58950Y-35350D01*
X58950Y-35350D02*
X58950Y-35550D01*
X58000Y-33450D02*
X59500Y-33450D01*
G54D16*
X41350Y-25450D02*
G75*
G03X41350Y-25450I-50J0D01*
G74*
G01*
X41300Y-25000D02*
X41300Y-25400D01*
X41300Y-25400D02*
X40700Y-25400D01*
X40700Y-25400D02*
X40700Y-25000D01*
X40700Y-24600D02*
X40700Y-24200D01*
X40700Y-24200D02*
X41300Y-24200D01*
X41300Y-24200D02*
X41300Y-24600D01*
G54D14*
X38597Y-33675D02*
X38875Y-33675D01*
X38875Y-33675D02*
X38875Y-33125D01*
X38875Y-33125D02*
X38597Y-33125D01*
X37925Y-33675D02*
X38203Y-33675D01*
X37925Y-33675D02*
X37925Y-33125D01*
X37925Y-33125D02*
X38203Y-33125D01*
X42075Y-21003D02*
X42075Y-20725D01*
X42075Y-20725D02*
X41525Y-20725D01*
X41525Y-20725D02*
X41525Y-21003D01*
X42075Y-21675D02*
X42075Y-21397D01*
X42075Y-21675D02*
X41525Y-21675D01*
X41525Y-21675D02*
X41525Y-21397D01*
X57016Y-38200D02*
G75*
G03X57016Y-38200I-316J0D01*
G74*
G01*
X53350Y-29100D02*
X53350Y-29150D01*
X53350Y-29150D02*
X55450Y-29150D01*
X55450Y-27650D02*
X53350Y-27650D01*
X53350Y-27650D02*
X53350Y-29100D01*
X53350Y-28200D02*
X53550Y-28200D01*
X53550Y-28200D02*
X53550Y-28600D01*
X53550Y-28600D02*
X53350Y-28600D01*
X55450Y-27650D02*
X55450Y-29150D01*
X45650Y-22800D02*
X45650Y-22750D01*
X45650Y-22750D02*
X43550Y-22750D01*
X43550Y-24250D02*
X45650Y-24250D01*
X45650Y-24250D02*
X45650Y-22800D01*
X45650Y-23700D02*
X45450Y-23700D01*
X45450Y-23700D02*
X45450Y-23300D01*
X45450Y-23300D02*
X45650Y-23300D01*
X43550Y-24250D02*
X43550Y-22750D01*
X39403Y-33125D02*
X39125Y-33125D01*
X39125Y-33125D02*
X39125Y-33675D01*
X39125Y-33675D02*
X39403Y-33675D01*
X40075Y-33125D02*
X39797Y-33125D01*
X40075Y-33125D02*
X40075Y-33675D01*
X40075Y-33675D02*
X39797Y-33675D01*
G54D20*
X38700Y-24000D02*
G75*
G03X38700Y-24000I-100J0D01*
G74*
G01*
X38400Y-25000D02*
X38400Y-23800D01*
X38400Y-23800D02*
X39600Y-23800D01*
X39600Y-23800D02*
X39600Y-25000D01*
X39600Y-25000D02*
X38400Y-25000D01*
G54D14*
X41900Y-23672D02*
X41900Y-23950D01*
X41900Y-23950D02*
X42450Y-23950D01*
X42450Y-23950D02*
X42450Y-23672D01*
X41900Y-23000D02*
X41900Y-23278D01*
X41900Y-23000D02*
X42450Y-23000D01*
X42450Y-23000D02*
X42450Y-23278D01*
X42897Y-24875D02*
X43175Y-24875D01*
X43175Y-24875D02*
X43175Y-24325D01*
X43175Y-24325D02*
X42897Y-24325D01*
X42225Y-24875D02*
X42503Y-24875D01*
X42225Y-24875D02*
X42225Y-24325D01*
X42225Y-24325D02*
X42503Y-24325D01*
X41525Y-24997D02*
X41525Y-25275D01*
X41525Y-25275D02*
X42075Y-25275D01*
X42075Y-25275D02*
X42075Y-24997D01*
X41525Y-24325D02*
X41525Y-24603D01*
X41525Y-24325D02*
X42075Y-24325D01*
X42075Y-24325D02*
X42075Y-24603D01*
G54D16*
X36100Y-20700D02*
G75*
G03X36100Y-20700I-50J0D01*
G74*
G01*
X35600Y-20700D02*
X36000Y-20700D01*
X36000Y-20700D02*
X36000Y-21300D01*
X36000Y-21300D02*
X35600Y-21300D01*
X35200Y-21300D02*
X34800Y-21300D01*
X34800Y-21300D02*
X34800Y-20700D01*
X34800Y-20700D02*
X35200Y-20700D01*
X36100Y-21500D02*
G75*
G03X36100Y-21500I-50J0D01*
G74*
G01*
X35600Y-21500D02*
X36000Y-21500D01*
X36000Y-21500D02*
X36000Y-22100D01*
X36000Y-22100D02*
X35600Y-22100D01*
X35200Y-22100D02*
X34800Y-22100D01*
X34800Y-22100D02*
X34800Y-21500D01*
X34800Y-21500D02*
X35200Y-21500D01*
G54D18*
X37900Y-32900D02*
X37900Y-31900D01*
X37900Y-31900D02*
X39900Y-31900D01*
X39900Y-31900D02*
X39900Y-32900D01*
X39900Y-32900D02*
X37900Y-32900D01*
G54D16*
X51300Y-32800D02*
G75*
G03X51300Y-32800I-50J0D01*
G74*
G01*
X50800Y-32800D02*
X51200Y-32800D01*
X51200Y-32800D02*
X51200Y-33400D01*
X51200Y-33400D02*
X50800Y-33400D01*
X50400Y-33400D02*
X50000Y-33400D01*
X50000Y-33400D02*
X50000Y-32800D01*
X50000Y-32800D02*
X50400Y-32800D01*
G54D14*
X50403Y-33625D02*
X50125Y-33625D01*
X50125Y-33625D02*
X50125Y-34175D01*
X50125Y-34175D02*
X50403Y-34175D01*
X51075Y-33625D02*
X50797Y-33625D01*
X51075Y-33625D02*
X51075Y-34175D01*
X51075Y-34175D02*
X50797Y-34175D01*
X50897Y-31875D02*
X51175Y-31875D01*
X51175Y-31875D02*
X51175Y-31325D01*
X51175Y-31325D02*
X50897Y-31325D01*
X50225Y-31875D02*
X50503Y-31875D01*
X50225Y-31875D02*
X50225Y-31325D01*
X50225Y-31325D02*
X50503Y-31325D01*
X37997Y-36475D02*
X38275Y-36475D01*
X38275Y-36475D02*
X38275Y-35925D01*
X38275Y-35925D02*
X37997Y-35925D01*
X37325Y-36475D02*
X37603Y-36475D01*
X37325Y-36475D02*
X37325Y-35925D01*
X37325Y-35925D02*
X37603Y-35925D01*
X51425Y-31097D02*
X51425Y-31375D01*
X51425Y-31375D02*
X51975Y-31375D01*
X51975Y-31375D02*
X51975Y-31097D01*
X51425Y-30425D02*
X51425Y-30703D01*
X51425Y-30425D02*
X51975Y-30425D01*
X51975Y-30425D02*
X51975Y-30703D01*
G54D16*
X43400Y-24150D02*
G75*
G03X43400Y-24150I-50J0D01*
G74*
G01*
X43350Y-23700D02*
X43350Y-24100D01*
X43350Y-24100D02*
X42750Y-24100D01*
X42750Y-24100D02*
X42750Y-23700D01*
X42750Y-23300D02*
X42750Y-22900D01*
X42750Y-22900D02*
X43350Y-22900D01*
X43350Y-22900D02*
X43350Y-23300D01*
G54D14*
X50303Y-30125D02*
X50025Y-30125D01*
X50025Y-30125D02*
X50025Y-30675D01*
X50025Y-30675D02*
X50303Y-30675D01*
X50975Y-30125D02*
X50697Y-30125D01*
X50975Y-30125D02*
X50975Y-30675D01*
X50975Y-30675D02*
X50697Y-30675D01*
X48920Y-29950D02*
X50480Y-29950D01*
X50480Y-29950D02*
X50480Y-28050D01*
X50480Y-28050D02*
X48920Y-28050D01*
X48920Y-28050D02*
X48920Y-29950D01*
X48920Y-29750D02*
X48490Y-29750D01*
X48920Y-29250D02*
X48490Y-29250D01*
X48920Y-28750D02*
X48490Y-28750D01*
X48490Y-28250D02*
X48920Y-28250D01*
X50480Y-28250D02*
X50910Y-28250D01*
X50910Y-28750D02*
X50480Y-28750D01*
X50910Y-29250D02*
X50480Y-29250D01*
X50910Y-29750D02*
X50480Y-29750D01*
X50376Y-29660D02*
G75*
G03X50376Y-29660I-186J0D01*
G74*
G01*
X52797Y-22775D02*
X53075Y-22775D01*
X53075Y-22775D02*
X53075Y-22225D01*
X53075Y-22225D02*
X52797Y-22225D01*
X52125Y-22775D02*
X52403Y-22775D01*
X52125Y-22775D02*
X52125Y-22225D01*
X52125Y-22225D02*
X52403Y-22225D01*
X43873Y-20449D02*
X43873Y-21551D01*
X43913Y-21551D02*
X43913Y-20449D01*
X43952Y-20449D02*
X43952Y-21551D01*
X43991Y-21551D02*
X43991Y-20449D01*
X44031Y-21551D02*
X44031Y-20449D01*
X43834Y-21551D02*
X45566Y-21551D01*
X45566Y-21551D02*
X45566Y-20449D01*
X45566Y-20449D02*
X43834Y-20449D01*
X43834Y-20449D02*
X43834Y-21551D01*
X39727Y-23451D02*
X39727Y-22349D01*
X39687Y-22349D02*
X39687Y-23451D01*
X39648Y-23451D02*
X39648Y-22349D01*
X39609Y-22349D02*
X39609Y-23451D01*
X39569Y-22349D02*
X39569Y-23451D01*
X39766Y-22349D02*
X38034Y-22349D01*
X38034Y-22349D02*
X38034Y-23451D01*
X38034Y-23451D02*
X39766Y-23451D01*
X39766Y-23451D02*
X39766Y-22349D01*
X55551Y-31573D02*
X54449Y-31573D01*
X54449Y-31613D02*
X55551Y-31613D01*
X55551Y-31652D02*
X54449Y-31652D01*
X54449Y-31691D02*
X55551Y-31691D01*
X54449Y-31731D02*
X55551Y-31731D01*
X54449Y-31534D02*
X54449Y-33266D01*
X54449Y-33266D02*
X55551Y-33266D01*
X55551Y-33266D02*
X55551Y-31534D01*
X55551Y-31534D02*
X54449Y-31534D01*
X35523Y-22349D02*
X35523Y-23451D01*
X35563Y-23451D02*
X35563Y-22349D01*
X35602Y-22349D02*
X35602Y-23451D01*
X35641Y-23451D02*
X35641Y-22349D01*
X35681Y-23451D02*
X35681Y-22349D01*
X35484Y-23451D02*
X37216Y-23451D01*
X37216Y-23451D02*
X37216Y-22349D01*
X37216Y-22349D02*
X35484Y-22349D01*
X35484Y-22349D02*
X35484Y-23451D01*
X38070Y-30300D02*
G75*
G03X38070Y-30300I-70J0D01*
G74*
G01*
X36850Y-29650D02*
X36850Y-30250D01*
X36850Y-30250D02*
X37950Y-30250D01*
X37950Y-30250D02*
X37950Y-29650D01*
X37950Y-29050D02*
X37950Y-28450D01*
X37950Y-28450D02*
X36850Y-28450D01*
X36850Y-28450D02*
X36850Y-29050D01*
G54D16*
X34950Y-34050D02*
G75*
G03X34950Y-34050I-50J0D01*
G74*
G01*
X34900Y-34500D02*
X34900Y-34100D01*
X34900Y-34100D02*
X35500Y-34100D01*
X35500Y-34100D02*
X35500Y-34500D01*
X35500Y-34900D02*
X35500Y-35300D01*
X35500Y-35300D02*
X34900Y-35300D01*
X34900Y-35300D02*
X34900Y-34900D01*
X52450Y-38650D02*
G75*
G03X52450Y-38650I-50J0D01*
G74*
G01*
X52400Y-38200D02*
X52400Y-38600D01*
X52400Y-38600D02*
X51800Y-38600D01*
X51800Y-38600D02*
X51800Y-38200D01*
X51800Y-37800D02*
X51800Y-37400D01*
X51800Y-37400D02*
X52400Y-37400D01*
X52400Y-37400D02*
X52400Y-37800D01*
G54D14*
X49300Y-34850D02*
X49300Y-35750D01*
X49300Y-35750D02*
X49950Y-35750D01*
X50650Y-34850D02*
X51300Y-34850D01*
X51300Y-34850D02*
X51300Y-35750D01*
X51300Y-35750D02*
X50650Y-35750D01*
X49950Y-34850D02*
X49300Y-34850D01*
X50200Y-36850D02*
X51450Y-36850D01*
X51450Y-36850D02*
X51450Y-36150D01*
X51450Y-36150D02*
X50200Y-36150D01*
X50200Y-38650D02*
X51450Y-38650D01*
X51450Y-38650D02*
X51450Y-37950D01*
X51450Y-37950D02*
X50200Y-37950D01*
X47800Y-36050D02*
X50200Y-36050D01*
X50200Y-36050D02*
X50200Y-38750D01*
X50200Y-38750D02*
X47100Y-38750D01*
X47050Y-38750D02*
X47050Y-36050D01*
X47100Y-36050D02*
X47800Y-36050D01*
X65750Y-28329D02*
X65750Y-29889D01*
X65750Y-29889D02*
X67650Y-29889D01*
X67650Y-29889D02*
X67650Y-28329D01*
X67650Y-28329D02*
X65750Y-28329D01*
X65950Y-28329D02*
X65950Y-27899D01*
X66450Y-28329D02*
X66450Y-27899D01*
X66950Y-28329D02*
X66950Y-27899D01*
X67450Y-27899D02*
X67450Y-28329D01*
X67450Y-29889D02*
X67450Y-30319D01*
X66950Y-30319D02*
X66950Y-29889D01*
X66450Y-30319D02*
X66450Y-29889D01*
X65950Y-30319D02*
X65950Y-29889D01*
X66226Y-29599D02*
G75*
G03X66226Y-29599I-186J0D01*
G74*
G01*
X62750Y-28329D02*
X62750Y-29889D01*
X62750Y-29889D02*
X64650Y-29889D01*
X64650Y-29889D02*
X64650Y-28329D01*
X64650Y-28329D02*
X62750Y-28329D01*
X62950Y-28329D02*
X62950Y-27899D01*
X63450Y-28329D02*
X63450Y-27899D01*
X63950Y-28329D02*
X63950Y-27899D01*
X64450Y-27899D02*
X64450Y-28329D01*
X64450Y-29889D02*
X64450Y-30319D01*
X63950Y-30319D02*
X63950Y-29889D01*
X63450Y-30319D02*
X63450Y-29889D01*
X62950Y-30319D02*
X62950Y-29889D01*
X63226Y-29599D02*
G75*
G03X63226Y-29599I-186J0D01*
G74*
G01*
X50225Y-21797D02*
X50225Y-22075D01*
X50225Y-22075D02*
X50775Y-22075D01*
X50775Y-22075D02*
X50775Y-21797D01*
X50225Y-21125D02*
X50225Y-21403D01*
X50225Y-21125D02*
X50775Y-21125D01*
X50775Y-21125D02*
X50775Y-21403D01*
G54D17*
X51456Y-21403D02*
X51456Y-21128D01*
X51456Y-21797D02*
X51456Y-22072D01*
X50944Y-21403D02*
X50944Y-21128D01*
X50944Y-22072D02*
X50944Y-21797D01*
X50950Y-21128D02*
X51450Y-21128D01*
X51450Y-22072D02*
X50950Y-22072D01*
G54D16*
X56300Y-37400D02*
G75*
G03X56300Y-37400I-50J0D01*
G74*
G01*
X56700Y-37400D02*
X56300Y-37400D01*
X56300Y-37400D02*
X56300Y-36800D01*
X56300Y-36800D02*
X56700Y-36800D01*
X57100Y-36800D02*
X57500Y-36800D01*
X57500Y-36800D02*
X57500Y-37400D01*
X57500Y-37400D02*
X57100Y-37400D01*
G54D14*
X55797Y-37375D02*
X56075Y-37375D01*
X56075Y-37375D02*
X56075Y-36825D01*
X56075Y-36825D02*
X55797Y-36825D01*
X55125Y-37375D02*
X55403Y-37375D01*
X55125Y-37375D02*
X55125Y-36825D01*
X55125Y-36825D02*
X55403Y-36825D01*
X54797Y-26275D02*
X55075Y-26275D01*
X55075Y-26275D02*
X55075Y-25725D01*
X55075Y-25725D02*
X54797Y-25725D01*
X54125Y-26275D02*
X54403Y-26275D01*
X54125Y-26275D02*
X54125Y-25725D01*
X54125Y-25725D02*
X54403Y-25725D01*
X41650Y-23278D02*
X41650Y-23000D01*
X41650Y-23000D02*
X41100Y-23000D01*
X41100Y-23000D02*
X41100Y-23278D01*
X41650Y-23950D02*
X41650Y-23672D01*
X41650Y-23950D02*
X41100Y-23950D01*
X41100Y-23950D02*
X41100Y-23672D01*
X40900Y-23303D02*
X40900Y-23025D01*
X40900Y-23025D02*
X40350Y-23025D01*
X40350Y-23025D02*
X40350Y-23303D01*
X40900Y-23975D02*
X40900Y-23697D01*
X40900Y-23975D02*
X40350Y-23975D01*
X40350Y-23975D02*
X40350Y-23697D01*
X44375Y-27103D02*
X44375Y-26825D01*
X44375Y-26825D02*
X43825Y-26825D01*
X43825Y-26825D02*
X43825Y-27103D01*
X44375Y-27775D02*
X44375Y-27497D01*
X44375Y-27775D02*
X43825Y-27775D01*
X43825Y-27775D02*
X43825Y-27497D01*
G54D21*
X65350Y-29400D02*
X65350Y-29200D01*
X65350Y-29200D02*
X65050Y-29200D01*
X65050Y-29200D02*
X65050Y-29400D01*
X65350Y-29600D02*
X65350Y-29800D01*
X65350Y-29800D02*
X65050Y-29800D01*
X65050Y-29800D02*
X65050Y-29600D01*
G54D14*
X49003Y-32143D02*
X49003Y-32457D01*
X49043Y-32457D02*
X49043Y-32143D01*
X49082Y-32457D02*
X49082Y-32143D01*
X48964Y-32457D02*
X49436Y-32457D01*
X49436Y-32457D02*
X49436Y-32143D01*
X49436Y-32143D02*
X48964Y-32143D01*
X48964Y-32143D02*
X48964Y-32457D01*
X38597Y-26557D02*
X38597Y-26243D01*
X38557Y-26243D02*
X38557Y-26557D01*
X38518Y-26243D02*
X38518Y-26557D01*
X38636Y-26243D02*
X38164Y-26243D01*
X38164Y-26243D02*
X38164Y-26557D01*
X38164Y-26557D02*
X38636Y-26557D01*
X38636Y-26557D02*
X38636Y-26243D01*
X38597Y-25557D02*
X38597Y-25243D01*
X38557Y-25243D02*
X38557Y-25557D01*
X38518Y-25243D02*
X38518Y-25557D01*
X38636Y-25243D02*
X38164Y-25243D01*
X38164Y-25243D02*
X38164Y-25557D01*
X38164Y-25557D02*
X38636Y-25557D01*
X38636Y-25557D02*
X38636Y-25243D01*
X38643Y-27897D02*
X38957Y-27897D01*
X38957Y-27857D02*
X38643Y-27857D01*
X38957Y-27818D02*
X38643Y-27818D01*
X38957Y-27936D02*
X38957Y-27464D01*
X38957Y-27464D02*
X38643Y-27464D01*
X38643Y-27464D02*
X38643Y-27936D01*
X38643Y-27936D02*
X38957Y-27936D01*
X50897Y-32457D02*
X50897Y-32143D01*
X50857Y-32143D02*
X50857Y-32457D01*
X50818Y-32143D02*
X50818Y-32457D01*
X50936Y-32143D02*
X50464Y-32143D01*
X50464Y-32143D02*
X50464Y-32457D01*
X50464Y-32457D02*
X50936Y-32457D01*
X50936Y-32457D02*
X50936Y-32143D01*
X53815Y-32046D02*
X53185Y-32046D01*
X53185Y-32006D02*
X53815Y-32006D01*
X53185Y-32951D02*
X53185Y-31849D01*
X53185Y-31849D02*
X53815Y-31849D01*
X53815Y-31849D02*
X53815Y-32951D01*
X53815Y-32951D02*
X53185Y-32951D01*
X56185Y-33004D02*
X56815Y-33004D01*
X56815Y-33044D02*
X56185Y-33044D01*
X56815Y-32099D02*
X56815Y-33201D01*
X56815Y-33201D02*
X56185Y-33201D01*
X56185Y-33201D02*
X56185Y-32099D01*
X56185Y-32099D02*
X56815Y-32099D01*
X50004Y-27415D02*
X50004Y-26785D01*
X50044Y-26785D02*
X50044Y-27415D01*
X49099Y-26785D02*
X50201Y-26785D01*
X50201Y-26785D02*
X50201Y-27415D01*
X50201Y-27415D02*
X49099Y-27415D01*
X49099Y-27415D02*
X49099Y-26785D01*
G54D16*
X42261Y-34110D02*
X42392Y-34306D01*
X42392Y-34110D02*
X42261Y-34306D01*
X42569Y-34306D02*
X42457Y-34306D01*
X42513Y-34306D02*
X42513Y-34110D01*
X42494Y-34138D01*
X42476Y-34157D01*
X42457Y-34166D01*
X42042Y-34629D02*
X41930Y-34629D01*
X41986Y-34629D02*
X41986Y-34433D01*
X41968Y-34461D01*
X41949Y-34480D01*
X41930Y-34489D01*
X42210Y-34433D02*
X42173Y-34433D01*
X42154Y-34442D01*
X42145Y-34452D01*
X42126Y-34480D01*
X42117Y-34517D01*
X42117Y-34592D01*
X42126Y-34610D01*
X42136Y-34620D01*
X42154Y-34629D01*
X42192Y-34629D01*
X42210Y-34620D01*
X42220Y-34610D01*
X42229Y-34592D01*
X42229Y-34545D01*
X42220Y-34526D01*
X42210Y-34517D01*
X42192Y-34508D01*
X42154Y-34508D01*
X42136Y-34517D01*
X42126Y-34526D01*
X42117Y-34545D01*
X42313Y-34629D02*
X42313Y-34433D01*
X42378Y-34573D01*
X42444Y-34433D01*
X42444Y-34629D01*
X42537Y-34629D02*
X42537Y-34433D01*
X42621Y-34629D02*
X42621Y-34526D01*
X42612Y-34508D01*
X42593Y-34498D01*
X42565Y-34498D01*
X42546Y-34508D01*
X42537Y-34517D01*
X42696Y-34498D02*
X42798Y-34498D01*
X42696Y-34629D01*
X42798Y-34629D01*
G54D22*
X59054Y-22703D02*
X59016Y-22684D01*
X58979Y-22646D01*
X58923Y-22590D01*
X58885Y-22571D01*
X58848Y-22571D01*
X58866Y-22665D02*
X58829Y-22646D01*
X58791Y-22609D01*
X58773Y-22534D01*
X58773Y-22402D01*
X58791Y-22327D01*
X58829Y-22290D01*
X58866Y-22271D01*
X58941Y-22271D01*
X58979Y-22290D01*
X59016Y-22327D01*
X59035Y-22402D01*
X59035Y-22534D01*
X59016Y-22609D01*
X58979Y-22646D01*
X58941Y-22665D01*
X58866Y-22665D01*
X59410Y-22665D02*
X59185Y-22665D01*
X59298Y-22665D02*
X59298Y-22271D01*
X59260Y-22327D01*
X59223Y-22365D01*
X59185Y-22384D01*
G54D17*
X36157Y-35320D02*
X36157Y-35120D01*
X36204Y-35120D01*
X36233Y-35130D01*
X36252Y-35149D01*
X36261Y-35168D01*
X36271Y-35206D01*
X36271Y-35235D01*
X36261Y-35273D01*
X36252Y-35292D01*
X36233Y-35311D01*
X36204Y-35320D01*
X36157Y-35320D01*
X36347Y-35140D02*
X36357Y-35130D01*
X36376Y-35120D01*
X36423Y-35120D01*
X36442Y-35130D01*
X36452Y-35140D01*
X36461Y-35159D01*
X36461Y-35178D01*
X36452Y-35206D01*
X36338Y-35320D01*
X36461Y-35320D01*
X36652Y-35320D02*
X36538Y-35320D01*
X36595Y-35320D02*
X36595Y-35120D01*
X36576Y-35149D01*
X36557Y-35168D01*
X36538Y-35178D01*
G54D23*
X36813Y-35240D02*
X36813Y-35140D01*
X36870Y-35240D01*
X36870Y-35140D01*
X36917Y-35140D02*
X36917Y-35221D01*
X36922Y-35230D01*
X36927Y-35235D01*
X36936Y-35240D01*
X36955Y-35240D01*
X36965Y-35235D01*
X36970Y-35230D01*
X36975Y-35221D01*
X36975Y-35140D01*
X37022Y-35240D02*
X37022Y-35140D01*
X37060Y-35140D01*
X37070Y-35145D01*
X37075Y-35150D01*
X37079Y-35159D01*
X37079Y-35173D01*
X37075Y-35183D01*
X37070Y-35188D01*
X37060Y-35192D01*
X37022Y-35192D01*
X37117Y-35150D02*
X37122Y-35145D01*
X37132Y-35140D01*
X37155Y-35140D01*
X37165Y-35145D01*
X37170Y-35150D01*
X37175Y-35159D01*
X37175Y-35169D01*
X37170Y-35183D01*
X37113Y-35240D01*
X37175Y-35240D01*
X37270Y-35240D02*
X37213Y-35240D01*
X37241Y-35240D02*
X37241Y-35140D01*
X37232Y-35154D01*
X37222Y-35164D01*
X37213Y-35169D01*
X37332Y-35140D02*
X37341Y-35140D01*
X37351Y-35145D01*
X37355Y-35150D01*
X37360Y-35159D01*
X37365Y-35178D01*
X37365Y-35202D01*
X37360Y-35221D01*
X37355Y-35230D01*
X37351Y-35235D01*
X37341Y-35240D01*
X37332Y-35240D01*
X37322Y-35235D01*
X37317Y-35230D01*
X37313Y-35221D01*
X37308Y-35202D01*
X37308Y-35178D01*
X37313Y-35159D01*
X37317Y-35150D01*
X37322Y-35145D01*
X37332Y-35140D01*
X37455Y-35140D02*
X37408Y-35140D01*
X37403Y-35188D01*
X37408Y-35183D01*
X37417Y-35178D01*
X37441Y-35178D01*
X37451Y-35183D01*
X37455Y-35188D01*
X37460Y-35197D01*
X37460Y-35221D01*
X37455Y-35230D01*
X37451Y-35235D01*
X37441Y-35240D01*
X37417Y-35240D01*
X37408Y-35235D01*
X37403Y-35230D01*
X37551Y-35240D02*
X37503Y-35240D01*
X37503Y-35140D01*
G54D17*
X45900Y-25819D02*
X45890Y-25838D01*
X45871Y-25857D01*
X45842Y-25885D01*
X45833Y-25904D01*
X45833Y-25923D01*
X45880Y-25914D02*
X45871Y-25933D01*
X45852Y-25952D01*
X45814Y-25961D01*
X45747Y-25961D01*
X45709Y-25952D01*
X45690Y-25933D01*
X45680Y-25914D01*
X45680Y-25876D01*
X45690Y-25857D01*
X45709Y-25838D01*
X45747Y-25828D01*
X45814Y-25828D01*
X45852Y-25838D01*
X45871Y-25857D01*
X45880Y-25876D01*
X45880Y-25914D01*
X45700Y-25752D02*
X45690Y-25742D01*
X45680Y-25723D01*
X45680Y-25676D01*
X45690Y-25657D01*
X45700Y-25647D01*
X45719Y-25638D01*
X45738Y-25638D01*
X45766Y-25647D01*
X45880Y-25761D01*
X45880Y-25638D01*
G54D24*
X46146Y-25760D02*
X46232Y-25760D01*
X46189Y-25910D02*
X46189Y-25760D01*
X46267Y-25760D02*
X46360Y-25760D01*
X46310Y-25817D01*
X46332Y-25817D01*
X46346Y-25825D01*
X46353Y-25832D01*
X46360Y-25846D01*
X46360Y-25882D01*
X46353Y-25896D01*
X46346Y-25903D01*
X46332Y-25910D01*
X46289Y-25910D01*
X46275Y-25903D01*
X46267Y-25896D01*
X46432Y-25910D02*
X46460Y-25910D01*
X46475Y-25903D01*
X46482Y-25896D01*
X46496Y-25875D01*
X46503Y-25846D01*
X46503Y-25789D01*
X46496Y-25775D01*
X46489Y-25767D01*
X46475Y-25760D01*
X46446Y-25760D01*
X46432Y-25767D01*
X46425Y-25775D01*
X46417Y-25789D01*
X46417Y-25825D01*
X46425Y-25839D01*
X46432Y-25846D01*
X46446Y-25853D01*
X46475Y-25853D01*
X46489Y-25846D01*
X46496Y-25839D01*
X46503Y-25825D01*
X46596Y-25760D02*
X46610Y-25760D01*
X46625Y-25767D01*
X46632Y-25775D01*
X46639Y-25789D01*
X46646Y-25817D01*
X46646Y-25853D01*
X46639Y-25882D01*
X46632Y-25896D01*
X46625Y-25903D01*
X46610Y-25910D01*
X46596Y-25910D01*
X46582Y-25903D01*
X46575Y-25896D01*
X46567Y-25882D01*
X46560Y-25853D01*
X46560Y-25817D01*
X46567Y-25789D01*
X46575Y-25775D01*
X46582Y-25767D01*
X46596Y-25760D01*
X46775Y-25810D02*
X46775Y-25910D01*
X46739Y-25753D02*
X46703Y-25860D01*
X46796Y-25860D01*
G54D17*
X42715Y-26521D02*
X42715Y-26271D01*
X42775Y-26271D01*
X42810Y-26283D01*
X42834Y-26306D01*
X42846Y-26330D01*
X42858Y-26378D01*
X42858Y-26414D01*
X42846Y-26461D01*
X42834Y-26485D01*
X42810Y-26509D01*
X42775Y-26521D01*
X42715Y-26521D01*
X42941Y-26271D02*
X43108Y-26271D01*
X43001Y-26521D01*
G54D23*
X43158Y-25988D02*
X43172Y-25992D01*
X43177Y-25997D01*
X43182Y-26007D01*
X43182Y-26021D01*
X43177Y-26030D01*
X43172Y-26035D01*
X43163Y-26040D01*
X43125Y-26040D01*
X43125Y-25940D01*
X43158Y-25940D01*
X43167Y-25945D01*
X43172Y-25950D01*
X43177Y-25959D01*
X43177Y-25969D01*
X43172Y-25978D01*
X43167Y-25983D01*
X43158Y-25988D01*
X43125Y-25988D01*
X43220Y-26011D02*
X43267Y-26011D01*
X43210Y-26040D02*
X43244Y-25940D01*
X43277Y-26040D01*
X43296Y-25940D02*
X43353Y-25940D01*
X43325Y-26040D02*
X43325Y-25940D01*
X43434Y-25940D02*
X43386Y-25940D01*
X43382Y-25988D01*
X43386Y-25983D01*
X43396Y-25978D01*
X43420Y-25978D01*
X43429Y-25983D01*
X43434Y-25988D01*
X43439Y-25997D01*
X43439Y-26021D01*
X43434Y-26030D01*
X43429Y-26035D01*
X43420Y-26040D01*
X43396Y-26040D01*
X43386Y-26035D01*
X43382Y-26030D01*
X43525Y-25973D02*
X43525Y-26040D01*
X43501Y-25935D02*
X43477Y-26007D01*
X43539Y-26007D01*
X43572Y-26035D02*
X43586Y-26040D01*
X43610Y-26040D01*
X43620Y-26035D01*
X43625Y-26030D01*
X43629Y-26021D01*
X43629Y-26011D01*
X43625Y-26002D01*
X43620Y-25997D01*
X43610Y-25992D01*
X43591Y-25988D01*
X43582Y-25983D01*
X43577Y-25978D01*
X43572Y-25969D01*
X43572Y-25959D01*
X43577Y-25950D01*
X43582Y-25945D01*
X43591Y-25940D01*
X43615Y-25940D01*
X43629Y-25945D01*
G54D25*
X51686Y-25868D02*
X51676Y-25878D01*
X51648Y-25887D01*
X51630Y-25887D01*
X51601Y-25878D01*
X51583Y-25859D01*
X51573Y-25840D01*
X51564Y-25803D01*
X51564Y-25775D01*
X51573Y-25737D01*
X51583Y-25718D01*
X51601Y-25700D01*
X51630Y-25690D01*
X51648Y-25690D01*
X51676Y-25700D01*
X51686Y-25709D01*
X51873Y-25887D02*
X51761Y-25887D01*
X51817Y-25887D02*
X51817Y-25690D01*
X51798Y-25718D01*
X51780Y-25737D01*
X51761Y-25747D01*
X51995Y-25690D02*
X52014Y-25690D01*
X52033Y-25700D01*
X52042Y-25709D01*
X52052Y-25728D01*
X52061Y-25765D01*
X52061Y-25812D01*
X52052Y-25850D01*
X52042Y-25868D01*
X52033Y-25878D01*
X52014Y-25887D01*
X51995Y-25887D01*
X51977Y-25878D01*
X51967Y-25868D01*
X51958Y-25850D01*
X51949Y-25812D01*
X51949Y-25765D01*
X51958Y-25728D01*
X51967Y-25709D01*
X51977Y-25700D01*
X51995Y-25690D01*
G54D24*
X50969Y-25693D02*
X50969Y-25778D01*
X50969Y-25735D02*
X50819Y-25735D01*
X50841Y-25750D01*
X50855Y-25764D01*
X50862Y-25778D01*
X50819Y-25600D02*
X50819Y-25586D01*
X50826Y-25571D01*
X50834Y-25564D01*
X50848Y-25557D01*
X50876Y-25550D01*
X50912Y-25550D01*
X50941Y-25557D01*
X50955Y-25564D01*
X50962Y-25571D01*
X50969Y-25586D01*
X50969Y-25600D01*
X50962Y-25614D01*
X50955Y-25621D01*
X50941Y-25628D01*
X50912Y-25636D01*
X50876Y-25636D01*
X50848Y-25628D01*
X50834Y-25621D01*
X50826Y-25614D01*
X50819Y-25600D01*
X50819Y-25457D02*
X50819Y-25443D01*
X50826Y-25428D01*
X50834Y-25421D01*
X50848Y-25414D01*
X50876Y-25407D01*
X50912Y-25407D01*
X50941Y-25414D01*
X50955Y-25421D01*
X50962Y-25428D01*
X50969Y-25443D01*
X50969Y-25457D01*
X50962Y-25471D01*
X50955Y-25478D01*
X50941Y-25486D01*
X50912Y-25493D01*
X50876Y-25493D01*
X50848Y-25486D01*
X50834Y-25478D01*
X50826Y-25471D01*
X50819Y-25457D01*
X50869Y-25343D02*
X50969Y-25343D01*
X50884Y-25343D02*
X50876Y-25336D01*
X50869Y-25321D01*
X50869Y-25300D01*
X50876Y-25286D01*
X50891Y-25278D01*
X50969Y-25278D01*
X50891Y-25157D02*
X50891Y-25207D01*
X50969Y-25207D02*
X50819Y-25207D01*
X50819Y-25136D01*
G54D25*
X31973Y-32110D02*
X31963Y-32120D01*
X31935Y-32129D01*
X31917Y-32129D01*
X31888Y-32120D01*
X31870Y-32101D01*
X31860Y-32082D01*
X31851Y-32045D01*
X31851Y-32017D01*
X31860Y-31979D01*
X31870Y-31960D01*
X31888Y-31942D01*
X31917Y-31932D01*
X31935Y-31932D01*
X31963Y-31942D01*
X31973Y-31951D01*
X32048Y-31951D02*
X32057Y-31942D01*
X32076Y-31932D01*
X32123Y-31932D01*
X32142Y-31942D01*
X32151Y-31951D01*
X32160Y-31970D01*
X32160Y-31989D01*
X32151Y-32017D01*
X32039Y-32129D01*
X32160Y-32129D01*
X32236Y-31951D02*
X32245Y-31942D01*
X32264Y-31932D01*
X32311Y-31932D01*
X32329Y-31942D01*
X32339Y-31951D01*
X32348Y-31970D01*
X32348Y-31989D01*
X32339Y-32017D01*
X32226Y-32129D01*
X32348Y-32129D01*
G54D24*
X31867Y-32960D02*
X31782Y-32960D01*
X31825Y-32960D02*
X31825Y-32810D01*
X31810Y-32832D01*
X31796Y-32846D01*
X31782Y-32853D01*
X31960Y-32810D02*
X31975Y-32810D01*
X31989Y-32817D01*
X31996Y-32825D01*
X32003Y-32839D01*
X32010Y-32867D01*
X32010Y-32903D01*
X32003Y-32932D01*
X31996Y-32946D01*
X31989Y-32953D01*
X31975Y-32960D01*
X31960Y-32960D01*
X31946Y-32953D01*
X31939Y-32946D01*
X31932Y-32932D01*
X31925Y-32903D01*
X31925Y-32867D01*
X31932Y-32839D01*
X31939Y-32825D01*
X31946Y-32817D01*
X31960Y-32810D01*
X32103Y-32810D02*
X32117Y-32810D01*
X32132Y-32817D01*
X32139Y-32825D01*
X32146Y-32839D01*
X32153Y-32867D01*
X32153Y-32903D01*
X32146Y-32932D01*
X32139Y-32946D01*
X32132Y-32953D01*
X32117Y-32960D01*
X32103Y-32960D01*
X32089Y-32953D01*
X32082Y-32946D01*
X32075Y-32932D01*
X32067Y-32903D01*
X32067Y-32867D01*
X32075Y-32839D01*
X32082Y-32825D01*
X32089Y-32817D01*
X32103Y-32810D01*
X32217Y-32860D02*
X32217Y-32960D01*
X32217Y-32875D02*
X32225Y-32867D01*
X32239Y-32860D01*
X32260Y-32860D01*
X32275Y-32867D01*
X32282Y-32882D01*
X32282Y-32960D01*
X32403Y-32882D02*
X32353Y-32882D01*
X32353Y-32960D02*
X32353Y-32810D01*
X32425Y-32810D01*
G54D25*
X44373Y-25260D02*
X44363Y-25270D01*
X44335Y-25279D01*
X44317Y-25279D01*
X44288Y-25270D01*
X44270Y-25251D01*
X44260Y-25232D01*
X44251Y-25195D01*
X44251Y-25167D01*
X44260Y-25129D01*
X44270Y-25110D01*
X44288Y-25092D01*
X44317Y-25082D01*
X44335Y-25082D01*
X44363Y-25092D01*
X44373Y-25101D01*
X44560Y-25279D02*
X44448Y-25279D01*
X44504Y-25279D02*
X44504Y-25082D01*
X44485Y-25110D01*
X44467Y-25129D01*
X44448Y-25139D01*
X44626Y-25082D02*
X44748Y-25082D01*
X44682Y-25157D01*
X44711Y-25157D01*
X44729Y-25167D01*
X44739Y-25176D01*
X44748Y-25195D01*
X44748Y-25242D01*
X44739Y-25260D01*
X44729Y-25270D01*
X44711Y-25279D01*
X44654Y-25279D01*
X44636Y-25270D01*
X44626Y-25260D01*
G54D24*
X44267Y-26060D02*
X44182Y-26060D01*
X44225Y-26060D02*
X44225Y-25910D01*
X44210Y-25932D01*
X44196Y-25946D01*
X44182Y-25953D01*
X44360Y-25910D02*
X44375Y-25910D01*
X44389Y-25917D01*
X44396Y-25925D01*
X44403Y-25939D01*
X44410Y-25967D01*
X44410Y-26003D01*
X44403Y-26032D01*
X44396Y-26046D01*
X44389Y-26053D01*
X44375Y-26060D01*
X44360Y-26060D01*
X44346Y-26053D01*
X44339Y-26046D01*
X44332Y-26032D01*
X44325Y-26003D01*
X44325Y-25967D01*
X44332Y-25939D01*
X44339Y-25925D01*
X44346Y-25917D01*
X44360Y-25910D01*
X44503Y-25910D02*
X44517Y-25910D01*
X44532Y-25917D01*
X44539Y-25925D01*
X44546Y-25939D01*
X44553Y-25967D01*
X44553Y-26003D01*
X44546Y-26032D01*
X44539Y-26046D01*
X44532Y-26053D01*
X44517Y-26060D01*
X44503Y-26060D01*
X44489Y-26053D01*
X44482Y-26046D01*
X44475Y-26032D01*
X44467Y-26003D01*
X44467Y-25967D01*
X44475Y-25939D01*
X44482Y-25925D01*
X44489Y-25917D01*
X44503Y-25910D01*
X44617Y-25960D02*
X44617Y-26060D01*
X44617Y-25975D02*
X44625Y-25967D01*
X44639Y-25960D01*
X44660Y-25960D01*
X44675Y-25967D01*
X44682Y-25982D01*
X44682Y-26060D01*
X44803Y-25982D02*
X44753Y-25982D01*
X44753Y-26060D02*
X44753Y-25910D01*
X44825Y-25910D01*
G54D25*
X45760Y-30126D02*
X45770Y-30136D01*
X45779Y-30164D01*
X45779Y-30182D01*
X45770Y-30211D01*
X45751Y-30229D01*
X45732Y-30239D01*
X45695Y-30248D01*
X45667Y-30248D01*
X45629Y-30239D01*
X45610Y-30229D01*
X45592Y-30211D01*
X45582Y-30182D01*
X45582Y-30164D01*
X45592Y-30136D01*
X45601Y-30126D01*
X45779Y-29939D02*
X45779Y-30051D01*
X45779Y-29995D02*
X45582Y-29995D01*
X45610Y-30014D01*
X45629Y-30032D01*
X45639Y-30051D01*
X45582Y-29873D02*
X45582Y-29742D01*
X45779Y-29826D01*
G54D23*
X46580Y-30234D02*
X46580Y-30291D01*
X46580Y-30263D02*
X46480Y-30263D01*
X46494Y-30272D01*
X46504Y-30282D01*
X46509Y-30291D01*
X46480Y-30172D02*
X46480Y-30163D01*
X46485Y-30153D01*
X46490Y-30149D01*
X46499Y-30144D01*
X46518Y-30139D01*
X46542Y-30139D01*
X46561Y-30144D01*
X46570Y-30149D01*
X46575Y-30153D01*
X46580Y-30163D01*
X46580Y-30172D01*
X46575Y-30182D01*
X46570Y-30187D01*
X46561Y-30191D01*
X46542Y-30196D01*
X46518Y-30196D01*
X46499Y-30191D01*
X46490Y-30187D01*
X46485Y-30182D01*
X46480Y-30172D01*
X46480Y-30077D02*
X46480Y-30068D01*
X46485Y-30058D01*
X46490Y-30053D01*
X46499Y-30049D01*
X46518Y-30044D01*
X46542Y-30044D01*
X46561Y-30049D01*
X46570Y-30053D01*
X46575Y-30058D01*
X46580Y-30068D01*
X46580Y-30077D01*
X46575Y-30087D01*
X46570Y-30091D01*
X46561Y-30096D01*
X46542Y-30101D01*
X46518Y-30101D01*
X46499Y-30096D01*
X46490Y-30091D01*
X46485Y-30087D01*
X46480Y-30077D01*
X46513Y-30001D02*
X46580Y-30001D01*
X46523Y-30001D02*
X46518Y-29996D01*
X46513Y-29987D01*
X46513Y-29972D01*
X46518Y-29963D01*
X46528Y-29958D01*
X46580Y-29958D01*
X46528Y-29877D02*
X46528Y-29910D01*
X46580Y-29910D02*
X46480Y-29910D01*
X46480Y-29863D01*
G54D25*
X45810Y-31076D02*
X45820Y-31086D01*
X45829Y-31114D01*
X45829Y-31132D01*
X45820Y-31161D01*
X45801Y-31179D01*
X45782Y-31189D01*
X45745Y-31198D01*
X45717Y-31198D01*
X45679Y-31189D01*
X45660Y-31179D01*
X45642Y-31161D01*
X45632Y-31132D01*
X45632Y-31114D01*
X45642Y-31086D01*
X45651Y-31076D01*
X45829Y-30889D02*
X45829Y-31001D01*
X45829Y-30945D02*
X45632Y-30945D01*
X45660Y-30964D01*
X45679Y-30982D01*
X45689Y-31001D01*
X45829Y-30795D02*
X45829Y-30757D01*
X45820Y-30738D01*
X45810Y-30729D01*
X45782Y-30710D01*
X45745Y-30701D01*
X45670Y-30701D01*
X45651Y-30710D01*
X45642Y-30720D01*
X45632Y-30738D01*
X45632Y-30776D01*
X45642Y-30795D01*
X45651Y-30804D01*
X45670Y-30813D01*
X45717Y-30813D01*
X45735Y-30804D01*
X45745Y-30795D01*
X45754Y-30776D01*
X45754Y-30738D01*
X45745Y-30720D01*
X45735Y-30710D01*
X45717Y-30701D01*
G54D23*
X46600Y-31054D02*
X46600Y-31111D01*
X46600Y-31083D02*
X46500Y-31083D01*
X46514Y-31092D01*
X46524Y-31102D01*
X46529Y-31111D01*
X46500Y-30992D02*
X46500Y-30983D01*
X46505Y-30973D01*
X46510Y-30969D01*
X46519Y-30964D01*
X46538Y-30959D01*
X46562Y-30959D01*
X46581Y-30964D01*
X46590Y-30969D01*
X46595Y-30973D01*
X46600Y-30983D01*
X46600Y-30992D01*
X46595Y-31002D01*
X46590Y-31007D01*
X46581Y-31011D01*
X46562Y-31016D01*
X46538Y-31016D01*
X46519Y-31011D01*
X46510Y-31007D01*
X46505Y-31002D01*
X46500Y-30992D01*
X46500Y-30897D02*
X46500Y-30888D01*
X46505Y-30878D01*
X46510Y-30873D01*
X46519Y-30869D01*
X46538Y-30864D01*
X46562Y-30864D01*
X46581Y-30869D01*
X46590Y-30873D01*
X46595Y-30878D01*
X46600Y-30888D01*
X46600Y-30897D01*
X46595Y-30907D01*
X46590Y-30911D01*
X46581Y-30916D01*
X46562Y-30921D01*
X46538Y-30921D01*
X46519Y-30916D01*
X46510Y-30911D01*
X46505Y-30907D01*
X46500Y-30897D01*
X46533Y-30821D02*
X46600Y-30821D01*
X46543Y-30821D02*
X46538Y-30816D01*
X46533Y-30807D01*
X46533Y-30792D01*
X46538Y-30783D01*
X46548Y-30778D01*
X46600Y-30778D01*
X46548Y-30697D02*
X46548Y-30730D01*
X46600Y-30730D02*
X46500Y-30730D01*
X46500Y-30683D01*
G54D25*
X39623Y-31160D02*
X39613Y-31170D01*
X39585Y-31179D01*
X39567Y-31179D01*
X39538Y-31170D01*
X39520Y-31151D01*
X39510Y-31132D01*
X39501Y-31095D01*
X39501Y-31067D01*
X39510Y-31029D01*
X39520Y-31010D01*
X39538Y-30992D01*
X39567Y-30982D01*
X39585Y-30982D01*
X39613Y-30992D01*
X39623Y-31001D01*
X39810Y-31179D02*
X39698Y-31179D01*
X39754Y-31179D02*
X39754Y-30982D01*
X39735Y-31010D01*
X39717Y-31029D01*
X39698Y-31039D01*
X39979Y-30982D02*
X39942Y-30982D01*
X39923Y-30992D01*
X39914Y-31001D01*
X39895Y-31029D01*
X39886Y-31067D01*
X39886Y-31142D01*
X39895Y-31160D01*
X39904Y-31170D01*
X39923Y-31179D01*
X39961Y-31179D01*
X39979Y-31170D01*
X39989Y-31160D01*
X39998Y-31142D01*
X39998Y-31095D01*
X39989Y-31076D01*
X39979Y-31067D01*
X39961Y-31057D01*
X39923Y-31057D01*
X39904Y-31067D01*
X39895Y-31076D01*
X39886Y-31095D01*
G54D24*
X39592Y-30285D02*
X39507Y-30285D01*
X39550Y-30285D02*
X39550Y-30135D01*
X39535Y-30157D01*
X39521Y-30171D01*
X39507Y-30178D01*
X39685Y-30135D02*
X39700Y-30135D01*
X39714Y-30142D01*
X39721Y-30150D01*
X39728Y-30164D01*
X39735Y-30192D01*
X39735Y-30228D01*
X39728Y-30257D01*
X39721Y-30271D01*
X39714Y-30278D01*
X39700Y-30285D01*
X39685Y-30285D01*
X39671Y-30278D01*
X39664Y-30271D01*
X39657Y-30257D01*
X39650Y-30228D01*
X39650Y-30192D01*
X39657Y-30164D01*
X39664Y-30150D01*
X39671Y-30142D01*
X39685Y-30135D01*
X39828Y-30135D02*
X39842Y-30135D01*
X39857Y-30142D01*
X39864Y-30150D01*
X39871Y-30164D01*
X39878Y-30192D01*
X39878Y-30228D01*
X39871Y-30257D01*
X39864Y-30271D01*
X39857Y-30278D01*
X39842Y-30285D01*
X39828Y-30285D01*
X39814Y-30278D01*
X39807Y-30271D01*
X39800Y-30257D01*
X39792Y-30228D01*
X39792Y-30192D01*
X39800Y-30164D01*
X39807Y-30150D01*
X39814Y-30142D01*
X39828Y-30135D01*
X39942Y-30185D02*
X39942Y-30285D01*
X39942Y-30200D02*
X39950Y-30192D01*
X39964Y-30185D01*
X39985Y-30185D01*
X40000Y-30192D01*
X40007Y-30207D01*
X40007Y-30285D01*
X40128Y-30207D02*
X40078Y-30207D01*
X40078Y-30285D02*
X40078Y-30135D01*
X40150Y-30135D01*
G54D26*
X46151Y-24040D02*
X46161Y-24048D01*
X46170Y-24074D01*
X46170Y-24091D01*
X46161Y-24117D01*
X46142Y-24134D01*
X46123Y-24142D01*
X46085Y-24151D01*
X46056Y-24151D01*
X46018Y-24142D01*
X45999Y-24134D01*
X45980Y-24117D01*
X45970Y-24091D01*
X45970Y-24074D01*
X45980Y-24048D01*
X45990Y-24040D01*
X45970Y-23885D02*
X45970Y-23920D01*
X45980Y-23937D01*
X45990Y-23945D01*
X46018Y-23962D01*
X46056Y-23971D01*
X46132Y-23971D01*
X46151Y-23962D01*
X46161Y-23954D01*
X46170Y-23937D01*
X46170Y-23902D01*
X46161Y-23885D01*
X46151Y-23877D01*
X46132Y-23868D01*
X46085Y-23868D01*
X46066Y-23877D01*
X46056Y-23885D01*
X46047Y-23902D01*
X46047Y-23937D01*
X46056Y-23954D01*
X46066Y-23962D01*
X46085Y-23971D01*
G54D23*
X47123Y-24116D02*
X47190Y-24116D01*
X47085Y-24140D02*
X47157Y-24164D01*
X47157Y-24102D01*
X47090Y-24073D02*
X47090Y-24007D01*
X47190Y-24050D01*
X47123Y-23969D02*
X47223Y-23969D01*
X47128Y-23969D02*
X47123Y-23959D01*
X47123Y-23940D01*
X47128Y-23930D01*
X47133Y-23926D01*
X47142Y-23921D01*
X47171Y-23921D01*
X47180Y-23926D01*
X47185Y-23930D01*
X47190Y-23940D01*
X47190Y-23959D01*
X47185Y-23969D01*
X47138Y-23845D02*
X47138Y-23878D01*
X47190Y-23878D02*
X47090Y-23878D01*
X47090Y-23830D01*
G54D26*
X50461Y-24030D02*
X50471Y-24038D01*
X50480Y-24064D01*
X50480Y-24081D01*
X50471Y-24107D01*
X50452Y-24124D01*
X50433Y-24132D01*
X50395Y-24141D01*
X50366Y-24141D01*
X50328Y-24132D01*
X50309Y-24124D01*
X50290Y-24107D01*
X50280Y-24081D01*
X50280Y-24064D01*
X50290Y-24038D01*
X50300Y-24030D01*
X50280Y-23970D02*
X50280Y-23850D01*
X50480Y-23927D01*
G54D23*
X49673Y-24116D02*
X49740Y-24116D01*
X49635Y-24140D02*
X49707Y-24164D01*
X49707Y-24102D01*
X49640Y-24073D02*
X49640Y-24007D01*
X49740Y-24050D01*
X49673Y-23969D02*
X49773Y-23969D01*
X49678Y-23969D02*
X49673Y-23959D01*
X49673Y-23940D01*
X49678Y-23930D01*
X49683Y-23926D01*
X49692Y-23921D01*
X49721Y-23921D01*
X49730Y-23926D01*
X49735Y-23930D01*
X49740Y-23940D01*
X49740Y-23959D01*
X49735Y-23969D01*
X49688Y-23845D02*
X49688Y-23878D01*
X49740Y-23878D02*
X49640Y-23878D01*
X49640Y-23830D01*
G54D25*
X33014Y-27108D02*
X33024Y-27118D01*
X33033Y-27146D01*
X33033Y-27164D01*
X33024Y-27193D01*
X33005Y-27211D01*
X32986Y-27221D01*
X32949Y-27230D01*
X32921Y-27230D01*
X32883Y-27221D01*
X32864Y-27211D01*
X32846Y-27193D01*
X32836Y-27164D01*
X32836Y-27146D01*
X32846Y-27118D01*
X32855Y-27108D01*
X33033Y-26921D02*
X33033Y-27033D01*
X33033Y-26977D02*
X32836Y-26977D01*
X32864Y-26996D01*
X32883Y-27014D01*
X32893Y-27033D01*
X32902Y-26752D02*
X33033Y-26752D01*
X32827Y-26799D02*
X32968Y-26845D01*
X32968Y-26724D01*
G54D24*
X33182Y-26910D02*
X33196Y-26910D01*
X33210Y-26917D01*
X33217Y-26925D01*
X33225Y-26939D01*
X33232Y-26967D01*
X33232Y-27003D01*
X33225Y-27032D01*
X33217Y-27046D01*
X33210Y-27053D01*
X33196Y-27060D01*
X33182Y-27060D01*
X33167Y-27053D01*
X33160Y-27046D01*
X33153Y-27032D01*
X33146Y-27003D01*
X33146Y-26967D01*
X33153Y-26939D01*
X33160Y-26925D01*
X33167Y-26917D01*
X33182Y-26910D01*
X33296Y-27046D02*
X33303Y-27053D01*
X33296Y-27060D01*
X33289Y-27053D01*
X33296Y-27046D01*
X33296Y-27060D01*
X33432Y-26960D02*
X33432Y-27060D01*
X33396Y-26903D02*
X33360Y-27010D01*
X33453Y-27010D01*
X33496Y-26910D02*
X33596Y-26910D01*
X33532Y-27060D01*
X33717Y-26960D02*
X33717Y-27060D01*
X33653Y-26960D02*
X33653Y-27039D01*
X33660Y-27053D01*
X33675Y-27060D01*
X33696Y-27060D01*
X33710Y-27053D01*
X33717Y-27046D01*
X33839Y-26982D02*
X33789Y-26982D01*
X33789Y-27060D02*
X33789Y-26910D01*
X33860Y-26910D01*
G54D18*
X34165Y-31386D02*
X34165Y-31588D01*
X34177Y-31612D01*
X34189Y-31624D01*
X34213Y-31636D01*
X34260Y-31636D01*
X34284Y-31624D01*
X34296Y-31612D01*
X34308Y-31588D01*
X34308Y-31386D01*
X34463Y-31493D02*
X34439Y-31481D01*
X34427Y-31469D01*
X34415Y-31445D01*
X34415Y-31433D01*
X34427Y-31410D01*
X34439Y-31398D01*
X34463Y-31386D01*
X34510Y-31386D01*
X34534Y-31398D01*
X34546Y-31410D01*
X34558Y-31433D01*
X34558Y-31445D01*
X34546Y-31469D01*
X34534Y-31481D01*
X34510Y-31493D01*
X34463Y-31493D01*
X34439Y-31505D01*
X34427Y-31517D01*
X34415Y-31540D01*
X34415Y-31588D01*
X34427Y-31612D01*
X34439Y-31624D01*
X34463Y-31636D01*
X34510Y-31636D01*
X34534Y-31624D01*
X34546Y-31612D01*
X34558Y-31588D01*
X34558Y-31540D01*
X34546Y-31517D01*
X34534Y-31505D01*
X34510Y-31493D01*
G54D14*
X34180Y-33447D02*
X33980Y-33447D01*
X34123Y-33380D01*
X33980Y-33314D01*
X34180Y-33314D01*
X34161Y-33104D02*
X34171Y-33114D01*
X34180Y-33142D01*
X34180Y-33161D01*
X34171Y-33190D01*
X34152Y-33209D01*
X34133Y-33219D01*
X34095Y-33228D01*
X34066Y-33228D01*
X34028Y-33219D01*
X34009Y-33209D01*
X33990Y-33190D01*
X33980Y-33161D01*
X33980Y-33142D01*
X33990Y-33114D01*
X34000Y-33104D01*
X34180Y-33019D02*
X33980Y-33019D01*
X33980Y-32942D01*
X33990Y-32923D01*
X34000Y-32914D01*
X34019Y-32904D01*
X34047Y-32904D01*
X34066Y-32914D01*
X34076Y-32923D01*
X34085Y-32942D01*
X34085Y-33019D01*
X34000Y-32828D02*
X33990Y-32819D01*
X33980Y-32800D01*
X33980Y-32752D01*
X33990Y-32733D01*
X34000Y-32723D01*
X34019Y-32714D01*
X34038Y-32714D01*
X34066Y-32723D01*
X34180Y-32838D01*
X34180Y-32714D01*
X33980Y-32533D02*
X33980Y-32628D01*
X34076Y-32638D01*
X34066Y-32628D01*
X34057Y-32609D01*
X34057Y-32561D01*
X34066Y-32542D01*
X34076Y-32533D01*
X34095Y-32523D01*
X34142Y-32523D01*
X34161Y-32533D01*
X34171Y-32542D01*
X34180Y-32561D01*
X34180Y-32609D01*
X34171Y-32628D01*
X34161Y-32638D01*
X33980Y-32352D02*
X33980Y-32390D01*
X33990Y-32409D01*
X34000Y-32419D01*
X34028Y-32438D01*
X34066Y-32447D01*
X34142Y-32447D01*
X34161Y-32438D01*
X34171Y-32428D01*
X34180Y-32409D01*
X34180Y-32371D01*
X34171Y-32352D01*
X34161Y-32342D01*
X34142Y-32333D01*
X34095Y-32333D01*
X34076Y-32342D01*
X34066Y-32352D01*
X34057Y-32371D01*
X34057Y-32409D01*
X34066Y-32428D01*
X34076Y-32438D01*
X34095Y-32447D01*
X34000Y-32257D02*
X33990Y-32247D01*
X33980Y-32228D01*
X33980Y-32180D01*
X33990Y-32161D01*
X34000Y-32152D01*
X34019Y-32142D01*
X34038Y-32142D01*
X34066Y-32152D01*
X34180Y-32266D01*
X34180Y-32142D01*
G54D27*
X41071Y-28521D02*
X41071Y-28764D01*
X41085Y-28792D01*
X41100Y-28807D01*
X41128Y-28821D01*
X41185Y-28821D01*
X41214Y-28807D01*
X41228Y-28792D01*
X41242Y-28764D01*
X41242Y-28521D01*
X41514Y-28521D02*
X41457Y-28521D01*
X41428Y-28535D01*
X41414Y-28550D01*
X41385Y-28592D01*
X41371Y-28650D01*
X41371Y-28764D01*
X41385Y-28792D01*
X41400Y-28807D01*
X41428Y-28821D01*
X41485Y-28821D01*
X41514Y-28807D01*
X41528Y-28792D01*
X41542Y-28764D01*
X41542Y-28692D01*
X41528Y-28664D01*
X41514Y-28650D01*
X41485Y-28635D01*
X41428Y-28635D01*
X41400Y-28650D01*
X41385Y-28664D01*
X41371Y-28692D01*
G54D14*
X41935Y-30343D02*
X42030Y-30343D01*
X41916Y-30400D02*
X41982Y-30200D01*
X42049Y-30400D01*
X42087Y-30200D02*
X42201Y-30200D01*
X42144Y-30400D02*
X42144Y-30200D01*
X42268Y-30400D02*
X42268Y-30200D01*
X42335Y-30343D01*
X42401Y-30200D01*
X42401Y-30400D01*
X42497Y-30296D02*
X42563Y-30296D01*
X42592Y-30400D02*
X42497Y-30400D01*
X42497Y-30200D01*
X42592Y-30200D01*
X42782Y-30210D02*
X42763Y-30200D01*
X42735Y-30200D01*
X42706Y-30210D01*
X42687Y-30229D01*
X42678Y-30248D01*
X42668Y-30286D01*
X42668Y-30315D01*
X42678Y-30353D01*
X42687Y-30372D01*
X42706Y-30391D01*
X42735Y-30400D01*
X42754Y-30400D01*
X42782Y-30391D01*
X42792Y-30381D01*
X42792Y-30315D01*
X42754Y-30315D01*
X42868Y-30343D02*
X42963Y-30343D01*
X42849Y-30400D02*
X42916Y-30200D01*
X42982Y-30400D01*
X43135Y-30200D02*
X43097Y-30200D01*
X43078Y-30210D01*
X43068Y-30220D01*
X43049Y-30248D01*
X43040Y-30286D01*
X43040Y-30362D01*
X43049Y-30381D01*
X43059Y-30391D01*
X43078Y-30400D01*
X43116Y-30400D01*
X43135Y-30391D01*
X43144Y-30381D01*
X43154Y-30362D01*
X43154Y-30315D01*
X43144Y-30296D01*
X43135Y-30286D01*
X43116Y-30277D01*
X43078Y-30277D01*
X43059Y-30286D01*
X43049Y-30296D01*
X43040Y-30315D01*
X43325Y-30267D02*
X43325Y-30400D01*
X43278Y-30191D02*
X43230Y-30334D01*
X43354Y-30334D01*
X43430Y-30400D02*
X43430Y-30200D01*
X43497Y-30343D01*
X43563Y-30200D01*
X43563Y-30400D01*
X43763Y-30400D02*
X43649Y-30400D01*
X43706Y-30400D02*
X43706Y-30200D01*
X43687Y-30229D01*
X43668Y-30248D01*
X43649Y-30258D01*
X43849Y-30324D02*
X44001Y-30324D01*
X44087Y-30343D02*
X44182Y-30343D01*
X44068Y-30400D02*
X44135Y-30200D01*
X44201Y-30400D01*
X44249Y-30400D02*
X44354Y-30267D01*
X44249Y-30267D02*
X44354Y-30400D01*
G54D25*
X61510Y-36026D02*
X61520Y-36036D01*
X61529Y-36064D01*
X61529Y-36082D01*
X61520Y-36111D01*
X61501Y-36129D01*
X61482Y-36139D01*
X61445Y-36148D01*
X61417Y-36148D01*
X61379Y-36139D01*
X61360Y-36129D01*
X61342Y-36111D01*
X61332Y-36082D01*
X61332Y-36064D01*
X61342Y-36036D01*
X61351Y-36026D01*
X61351Y-35951D02*
X61342Y-35942D01*
X61332Y-35923D01*
X61332Y-35876D01*
X61342Y-35857D01*
X61351Y-35848D01*
X61370Y-35839D01*
X61389Y-35839D01*
X61417Y-35848D01*
X61529Y-35960D01*
X61529Y-35839D01*
X61332Y-35773D02*
X61332Y-35642D01*
X61529Y-35726D01*
G54D24*
X60617Y-36060D02*
X60532Y-36060D01*
X60575Y-36060D02*
X60575Y-35910D01*
X60560Y-35932D01*
X60546Y-35946D01*
X60532Y-35953D01*
X60710Y-35910D02*
X60725Y-35910D01*
X60739Y-35917D01*
X60746Y-35925D01*
X60753Y-35939D01*
X60760Y-35967D01*
X60760Y-36003D01*
X60753Y-36032D01*
X60746Y-36046D01*
X60739Y-36053D01*
X60725Y-36060D01*
X60710Y-36060D01*
X60696Y-36053D01*
X60689Y-36046D01*
X60682Y-36032D01*
X60675Y-36003D01*
X60675Y-35967D01*
X60682Y-35939D01*
X60689Y-35925D01*
X60696Y-35917D01*
X60710Y-35910D01*
X60853Y-35910D02*
X60867Y-35910D01*
X60882Y-35917D01*
X60889Y-35925D01*
X60896Y-35939D01*
X60903Y-35967D01*
X60903Y-36003D01*
X60896Y-36032D01*
X60889Y-36046D01*
X60882Y-36053D01*
X60867Y-36060D01*
X60853Y-36060D01*
X60839Y-36053D01*
X60832Y-36046D01*
X60825Y-36032D01*
X60817Y-36003D01*
X60817Y-35967D01*
X60825Y-35939D01*
X60832Y-35925D01*
X60839Y-35917D01*
X60853Y-35910D01*
X60967Y-35960D02*
X60967Y-36060D01*
X60967Y-35975D02*
X60975Y-35967D01*
X60989Y-35960D01*
X61010Y-35960D01*
X61025Y-35967D01*
X61032Y-35982D01*
X61032Y-36060D01*
X61153Y-35982D02*
X61103Y-35982D01*
X61103Y-36060D02*
X61103Y-35910D01*
X61175Y-35910D01*
G54D25*
X45829Y-31882D02*
X45829Y-31976D01*
X45632Y-31976D01*
X45829Y-31713D02*
X45829Y-31826D01*
X45829Y-31770D02*
X45632Y-31770D01*
X45660Y-31789D01*
X45679Y-31807D01*
X45689Y-31826D01*
G54D23*
X46590Y-31916D02*
X46590Y-31973D01*
X46590Y-31945D02*
X46490Y-31945D01*
X46504Y-31954D01*
X46514Y-31964D01*
X46519Y-31973D01*
X46490Y-31854D02*
X46490Y-31845D01*
X46495Y-31835D01*
X46500Y-31830D01*
X46509Y-31826D01*
X46528Y-31821D01*
X46552Y-31821D01*
X46571Y-31826D01*
X46580Y-31830D01*
X46585Y-31835D01*
X46590Y-31845D01*
X46590Y-31854D01*
X46585Y-31864D01*
X46580Y-31869D01*
X46571Y-31873D01*
X46552Y-31878D01*
X46528Y-31878D01*
X46509Y-31873D01*
X46500Y-31869D01*
X46495Y-31864D01*
X46490Y-31854D01*
X46523Y-31735D02*
X46590Y-31735D01*
X46523Y-31778D02*
X46576Y-31778D01*
X46585Y-31773D01*
X46590Y-31764D01*
X46590Y-31749D01*
X46585Y-31740D01*
X46580Y-31735D01*
X46590Y-31688D02*
X46490Y-31688D01*
X46538Y-31688D02*
X46538Y-31630D01*
X46590Y-31630D02*
X46490Y-31630D01*
G54D25*
X48193Y-33000D02*
X48183Y-33010D01*
X48155Y-33019D01*
X48137Y-33019D01*
X48108Y-33010D01*
X48090Y-32991D01*
X48080Y-32972D01*
X48071Y-32935D01*
X48071Y-32907D01*
X48080Y-32869D01*
X48090Y-32850D01*
X48108Y-32832D01*
X48137Y-32822D01*
X48155Y-32822D01*
X48183Y-32832D01*
X48193Y-32841D01*
X48268Y-32841D02*
X48277Y-32832D01*
X48296Y-32822D01*
X48343Y-32822D01*
X48362Y-32832D01*
X48371Y-32841D01*
X48380Y-32860D01*
X48380Y-32879D01*
X48371Y-32907D01*
X48259Y-33019D01*
X48380Y-33019D01*
X48446Y-32822D02*
X48568Y-32822D01*
X48502Y-32897D01*
X48531Y-32897D01*
X48549Y-32907D01*
X48559Y-32916D01*
X48568Y-32935D01*
X48568Y-32982D01*
X48559Y-33000D01*
X48549Y-33010D01*
X48531Y-33019D01*
X48474Y-33019D01*
X48456Y-33010D01*
X48446Y-33000D01*
G54D24*
X49210Y-33417D02*
X49210Y-33403D01*
X49217Y-33389D01*
X49225Y-33382D01*
X49239Y-33374D01*
X49267Y-33367D01*
X49303Y-33367D01*
X49332Y-33374D01*
X49346Y-33382D01*
X49353Y-33389D01*
X49360Y-33403D01*
X49360Y-33417D01*
X49353Y-33432D01*
X49346Y-33439D01*
X49332Y-33446D01*
X49303Y-33453D01*
X49267Y-33453D01*
X49239Y-33446D01*
X49225Y-33439D01*
X49217Y-33432D01*
X49210Y-33417D01*
X49346Y-33303D02*
X49353Y-33296D01*
X49360Y-33303D01*
X49353Y-33310D01*
X49346Y-33303D01*
X49360Y-33303D01*
X49260Y-33167D02*
X49360Y-33167D01*
X49203Y-33203D02*
X49310Y-33239D01*
X49310Y-33146D01*
X49210Y-33103D02*
X49210Y-33003D01*
X49360Y-33067D01*
X49260Y-32882D02*
X49360Y-32882D01*
X49260Y-32946D02*
X49339Y-32946D01*
X49353Y-32939D01*
X49360Y-32924D01*
X49360Y-32903D01*
X49353Y-32889D01*
X49346Y-32882D01*
X49282Y-32760D02*
X49282Y-32810D01*
X49360Y-32810D02*
X49210Y-32810D01*
X49210Y-32739D01*
G54D25*
X40913Y-22097D02*
X40903Y-22107D01*
X40875Y-22116D01*
X40856Y-22116D01*
X40828Y-22107D01*
X40809Y-22088D01*
X40800Y-22069D01*
X40791Y-22032D01*
X40791Y-22004D01*
X40800Y-21966D01*
X40809Y-21947D01*
X40828Y-21929D01*
X40856Y-21919D01*
X40875Y-21919D01*
X40903Y-21929D01*
X40913Y-21938D01*
X40988Y-21938D02*
X40997Y-21929D01*
X41016Y-21919D01*
X41063Y-21919D01*
X41082Y-21929D01*
X41091Y-21938D01*
X41100Y-21957D01*
X41100Y-21976D01*
X41091Y-22004D01*
X40978Y-22116D01*
X41100Y-22116D01*
G54D24*
X40961Y-22822D02*
X40961Y-22907D01*
X40961Y-22864D02*
X40811Y-22864D01*
X40833Y-22879D01*
X40847Y-22893D01*
X40854Y-22907D01*
X40811Y-22729D02*
X40811Y-22715D01*
X40818Y-22700D01*
X40826Y-22693D01*
X40840Y-22686D01*
X40868Y-22679D01*
X40904Y-22679D01*
X40933Y-22686D01*
X40947Y-22693D01*
X40954Y-22700D01*
X40961Y-22715D01*
X40961Y-22729D01*
X40954Y-22743D01*
X40947Y-22750D01*
X40933Y-22757D01*
X40904Y-22765D01*
X40868Y-22765D01*
X40840Y-22757D01*
X40826Y-22750D01*
X40818Y-22743D01*
X40811Y-22729D01*
X40811Y-22586D02*
X40811Y-22572D01*
X40818Y-22557D01*
X40826Y-22550D01*
X40840Y-22543D01*
X40868Y-22536D01*
X40904Y-22536D01*
X40933Y-22543D01*
X40947Y-22550D01*
X40954Y-22557D01*
X40961Y-22572D01*
X40961Y-22586D01*
X40954Y-22600D01*
X40947Y-22607D01*
X40933Y-22615D01*
X40904Y-22622D01*
X40868Y-22622D01*
X40840Y-22615D01*
X40826Y-22607D01*
X40818Y-22600D01*
X40811Y-22586D01*
X40861Y-22472D02*
X40961Y-22472D01*
X40876Y-22472D02*
X40868Y-22465D01*
X40861Y-22450D01*
X40861Y-22429D01*
X40868Y-22415D01*
X40883Y-22407D01*
X40961Y-22407D01*
X40883Y-22286D02*
X40883Y-22336D01*
X40961Y-22336D02*
X40811Y-22336D01*
X40811Y-22265D01*
G54D16*
X48969Y-26462D02*
X48969Y-26622D01*
X48979Y-26640D01*
X48988Y-26650D01*
X49007Y-26659D01*
X49044Y-26659D01*
X49063Y-26650D01*
X49073Y-26640D01*
X49082Y-26622D01*
X49082Y-26462D01*
X49260Y-26528D02*
X49260Y-26659D01*
X49213Y-26453D02*
X49166Y-26594D01*
X49288Y-26594D01*
X48668Y-26082D02*
X48668Y-26148D01*
X48771Y-26148D02*
X48574Y-26148D01*
X48574Y-26054D01*
X48574Y-26007D02*
X48574Y-25895D01*
X48771Y-25951D02*
X48574Y-25951D01*
X48593Y-25838D02*
X48584Y-25829D01*
X48574Y-25810D01*
X48574Y-25763D01*
X48584Y-25745D01*
X48593Y-25735D01*
X48612Y-25726D01*
X48631Y-25726D01*
X48659Y-25735D01*
X48771Y-25848D01*
X48771Y-25726D01*
X48574Y-25660D02*
X48574Y-25538D01*
X48649Y-25604D01*
X48649Y-25576D01*
X48659Y-25557D01*
X48668Y-25548D01*
X48687Y-25538D01*
X48734Y-25538D01*
X48752Y-25548D01*
X48762Y-25557D01*
X48771Y-25576D01*
X48771Y-25632D01*
X48762Y-25651D01*
X48752Y-25660D01*
X48574Y-25416D02*
X48574Y-25398D01*
X48584Y-25379D01*
X48593Y-25369D01*
X48612Y-25360D01*
X48649Y-25351D01*
X48696Y-25351D01*
X48734Y-25360D01*
X48752Y-25369D01*
X48762Y-25379D01*
X48771Y-25398D01*
X48771Y-25416D01*
X48762Y-25435D01*
X48752Y-25444D01*
X48734Y-25454D01*
X48696Y-25463D01*
X48649Y-25463D01*
X48612Y-25454D01*
X48593Y-25444D01*
X48584Y-25435D01*
X48574Y-25416D01*
X48574Y-25285D02*
X48771Y-25154D01*
X48574Y-25154D02*
X48771Y-25285D01*
X48696Y-25079D02*
X48696Y-24929D01*
X48762Y-24844D02*
X48771Y-24816D01*
X48771Y-24769D01*
X48762Y-24750D01*
X48752Y-24741D01*
X48734Y-24732D01*
X48715Y-24732D01*
X48696Y-24741D01*
X48687Y-24750D01*
X48677Y-24769D01*
X48668Y-24807D01*
X48659Y-24825D01*
X48649Y-24835D01*
X48631Y-24844D01*
X48612Y-24844D01*
X48593Y-24835D01*
X48584Y-24825D01*
X48574Y-24807D01*
X48574Y-24760D01*
X48584Y-24732D01*
G54D26*
X50480Y-23432D02*
X50280Y-23432D01*
X50280Y-23390D01*
X50290Y-23364D01*
X50309Y-23347D01*
X50328Y-23338D01*
X50366Y-23330D01*
X50395Y-23330D01*
X50433Y-23338D01*
X50452Y-23347D01*
X50471Y-23364D01*
X50480Y-23390D01*
X50480Y-23432D01*
X50347Y-23175D02*
X50480Y-23175D01*
X50271Y-23218D02*
X50414Y-23261D01*
X50414Y-23150D01*
X46190Y-23472D02*
X45990Y-23472D01*
X45990Y-23430D01*
X46000Y-23404D01*
X46019Y-23387D01*
X46038Y-23378D01*
X46076Y-23370D01*
X46105Y-23370D01*
X46143Y-23378D01*
X46162Y-23387D01*
X46181Y-23404D01*
X46190Y-23430D01*
X46190Y-23472D01*
X45990Y-23310D02*
X45990Y-23198D01*
X46067Y-23258D01*
X46067Y-23232D01*
X46076Y-23215D01*
X46086Y-23207D01*
X46105Y-23198D01*
X46152Y-23198D01*
X46171Y-23207D01*
X46181Y-23215D01*
X46190Y-23232D01*
X46190Y-23284D01*
X46181Y-23301D01*
X46171Y-23310D01*
G54D14*
X47271Y-27761D02*
X47261Y-27771D01*
X47233Y-27780D01*
X47214Y-27780D01*
X47185Y-27771D01*
X47166Y-27752D01*
X47157Y-27733D01*
X47147Y-27695D01*
X47147Y-27666D01*
X47157Y-27628D01*
X47166Y-27609D01*
X47185Y-27590D01*
X47214Y-27580D01*
X47233Y-27580D01*
X47261Y-27590D01*
X47271Y-27600D01*
X47461Y-27780D02*
X47347Y-27780D01*
X47404Y-27780D02*
X47404Y-27580D01*
X47385Y-27609D01*
X47366Y-27628D01*
X47347Y-27638D01*
X47642Y-27580D02*
X47547Y-27580D01*
X47538Y-27676D01*
X47547Y-27666D01*
X47566Y-27657D01*
X47614Y-27657D01*
X47633Y-27666D01*
X47642Y-27676D01*
X47652Y-27695D01*
X47652Y-27742D01*
X47642Y-27761D01*
X47633Y-27771D01*
X47614Y-27780D01*
X47566Y-27780D01*
X47547Y-27771D01*
X47538Y-27761D01*
G54D28*
X47319Y-27215D02*
X47397Y-27215D01*
X47274Y-27244D02*
X47358Y-27272D01*
X47358Y-27199D01*
X47386Y-27154D02*
X47392Y-27148D01*
X47397Y-27154D01*
X47392Y-27159D01*
X47386Y-27154D01*
X47397Y-27154D01*
X47279Y-27109D02*
X47279Y-27030D01*
X47397Y-27080D01*
X47319Y-26934D02*
X47397Y-26934D01*
X47319Y-26985D02*
X47380Y-26985D01*
X47392Y-26979D01*
X47397Y-26968D01*
X47397Y-26951D01*
X47392Y-26940D01*
X47386Y-26934D01*
X47335Y-26839D02*
X47335Y-26878D01*
X47397Y-26878D02*
X47279Y-26878D01*
X47279Y-26822D01*
G54D25*
X51973Y-35860D02*
X51963Y-35870D01*
X51935Y-35879D01*
X51917Y-35879D01*
X51888Y-35870D01*
X51870Y-35851D01*
X51860Y-35832D01*
X51851Y-35795D01*
X51851Y-35767D01*
X51860Y-35729D01*
X51870Y-35710D01*
X51888Y-35692D01*
X51917Y-35682D01*
X51935Y-35682D01*
X51963Y-35692D01*
X51973Y-35701D01*
X52048Y-35701D02*
X52057Y-35692D01*
X52076Y-35682D01*
X52123Y-35682D01*
X52142Y-35692D01*
X52151Y-35701D01*
X52160Y-35720D01*
X52160Y-35739D01*
X52151Y-35767D01*
X52039Y-35879D01*
X52160Y-35879D01*
X52273Y-35767D02*
X52254Y-35757D01*
X52245Y-35748D01*
X52236Y-35729D01*
X52236Y-35720D01*
X52245Y-35701D01*
X52254Y-35692D01*
X52273Y-35682D01*
X52311Y-35682D01*
X52329Y-35692D01*
X52339Y-35701D01*
X52348Y-35720D01*
X52348Y-35729D01*
X52339Y-35748D01*
X52329Y-35757D01*
X52311Y-35767D01*
X52273Y-35767D01*
X52254Y-35776D01*
X52245Y-35785D01*
X52236Y-35804D01*
X52236Y-35842D01*
X52245Y-35860D01*
X52254Y-35870D01*
X52273Y-35879D01*
X52311Y-35879D01*
X52329Y-35870D01*
X52339Y-35860D01*
X52348Y-35842D01*
X52348Y-35804D01*
X52339Y-35785D01*
X52329Y-35776D01*
X52311Y-35767D01*
G54D24*
X51867Y-36660D02*
X51782Y-36660D01*
X51825Y-36660D02*
X51825Y-36510D01*
X51810Y-36532D01*
X51796Y-36546D01*
X51782Y-36553D01*
X51960Y-36510D02*
X51975Y-36510D01*
X51989Y-36517D01*
X51996Y-36525D01*
X52003Y-36539D01*
X52010Y-36567D01*
X52010Y-36603D01*
X52003Y-36632D01*
X51996Y-36646D01*
X51989Y-36653D01*
X51975Y-36660D01*
X51960Y-36660D01*
X51946Y-36653D01*
X51939Y-36646D01*
X51932Y-36632D01*
X51925Y-36603D01*
X51925Y-36567D01*
X51932Y-36539D01*
X51939Y-36525D01*
X51946Y-36517D01*
X51960Y-36510D01*
X52103Y-36510D02*
X52117Y-36510D01*
X52132Y-36517D01*
X52139Y-36525D01*
X52146Y-36539D01*
X52153Y-36567D01*
X52153Y-36603D01*
X52146Y-36632D01*
X52139Y-36646D01*
X52132Y-36653D01*
X52117Y-36660D01*
X52103Y-36660D01*
X52089Y-36653D01*
X52082Y-36646D01*
X52075Y-36632D01*
X52067Y-36603D01*
X52067Y-36567D01*
X52075Y-36539D01*
X52082Y-36525D01*
X52089Y-36517D01*
X52103Y-36510D01*
X52217Y-36560D02*
X52217Y-36660D01*
X52217Y-36575D02*
X52225Y-36567D01*
X52239Y-36560D01*
X52260Y-36560D01*
X52275Y-36567D01*
X52282Y-36582D01*
X52282Y-36660D01*
X52403Y-36582D02*
X52353Y-36582D01*
X52353Y-36660D02*
X52353Y-36510D01*
X52425Y-36510D01*
X52912Y-26940D02*
X52912Y-26790D01*
X52948Y-26790D01*
X52970Y-26797D01*
X52984Y-26812D01*
X52991Y-26826D01*
X52998Y-26855D01*
X52998Y-26876D01*
X52991Y-26905D01*
X52984Y-26919D01*
X52970Y-26933D01*
X52948Y-26940D01*
X52912Y-26940D01*
X53141Y-26940D02*
X53055Y-26940D01*
X53098Y-26940D02*
X53098Y-26790D01*
X53084Y-26812D01*
X53070Y-26826D01*
X53055Y-26833D01*
X53284Y-26940D02*
X53198Y-26940D01*
X53241Y-26940D02*
X53241Y-26790D01*
X53227Y-26812D01*
X53212Y-26826D01*
X53198Y-26833D01*
X52632Y-27630D02*
X52639Y-27608D01*
X52646Y-27601D01*
X52660Y-27594D01*
X52682Y-27594D01*
X52696Y-27601D01*
X52703Y-27608D01*
X52710Y-27622D01*
X52710Y-27680D01*
X52560Y-27680D01*
X52560Y-27630D01*
X52567Y-27615D01*
X52575Y-27608D01*
X52589Y-27601D01*
X52603Y-27601D01*
X52617Y-27608D01*
X52625Y-27615D01*
X52632Y-27630D01*
X52632Y-27680D01*
X52667Y-27537D02*
X52667Y-27465D01*
X52710Y-27551D02*
X52560Y-27501D01*
X52710Y-27451D01*
X52560Y-27422D02*
X52560Y-27337D01*
X52710Y-27380D02*
X52560Y-27380D01*
X52560Y-27215D02*
X52560Y-27287D01*
X52632Y-27294D01*
X52625Y-27287D01*
X52617Y-27272D01*
X52617Y-27237D01*
X52625Y-27222D01*
X52632Y-27215D01*
X52646Y-27208D01*
X52682Y-27208D01*
X52696Y-27215D01*
X52703Y-27222D01*
X52710Y-27237D01*
X52710Y-27272D01*
X52703Y-27287D01*
X52696Y-27294D01*
X52610Y-27080D02*
X52710Y-27080D01*
X52553Y-27115D02*
X52660Y-27151D01*
X52660Y-27058D01*
X52703Y-27008D02*
X52710Y-26987D01*
X52710Y-26951D01*
X52703Y-26937D01*
X52696Y-26930D01*
X52682Y-26922D01*
X52667Y-26922D01*
X52653Y-26930D01*
X52646Y-26937D01*
X52639Y-26951D01*
X52632Y-26980D01*
X52625Y-26994D01*
X52617Y-27001D01*
X52603Y-27008D01*
X52589Y-27008D01*
X52575Y-27001D01*
X52567Y-26994D01*
X52560Y-26980D01*
X52560Y-26944D01*
X52567Y-26922D01*
G54D25*
X54160Y-25526D02*
X54170Y-25536D01*
X54179Y-25564D01*
X54179Y-25582D01*
X54170Y-25611D01*
X54151Y-25629D01*
X54132Y-25639D01*
X54095Y-25648D01*
X54067Y-25648D01*
X54029Y-25639D01*
X54010Y-25629D01*
X53992Y-25611D01*
X53982Y-25582D01*
X53982Y-25564D01*
X53992Y-25536D01*
X54001Y-25526D01*
X54179Y-25339D02*
X54179Y-25451D01*
X54179Y-25395D02*
X53982Y-25395D01*
X54010Y-25414D01*
X54029Y-25432D01*
X54039Y-25451D01*
X54001Y-25263D02*
X53992Y-25254D01*
X53982Y-25235D01*
X53982Y-25188D01*
X53992Y-25170D01*
X54001Y-25160D01*
X54020Y-25151D01*
X54039Y-25151D01*
X54067Y-25160D01*
X54179Y-25273D01*
X54179Y-25151D01*
G54D24*
X53360Y-25532D02*
X53360Y-25617D01*
X53360Y-25574D02*
X53210Y-25574D01*
X53232Y-25589D01*
X53246Y-25603D01*
X53253Y-25617D01*
X53210Y-25439D02*
X53210Y-25425D01*
X53217Y-25410D01*
X53225Y-25403D01*
X53239Y-25396D01*
X53267Y-25389D01*
X53303Y-25389D01*
X53332Y-25396D01*
X53346Y-25403D01*
X53353Y-25410D01*
X53360Y-25425D01*
X53360Y-25439D01*
X53353Y-25453D01*
X53346Y-25460D01*
X53332Y-25467D01*
X53303Y-25475D01*
X53267Y-25475D01*
X53239Y-25467D01*
X53225Y-25460D01*
X53217Y-25453D01*
X53210Y-25439D01*
X53210Y-25296D02*
X53210Y-25282D01*
X53217Y-25267D01*
X53225Y-25260D01*
X53239Y-25253D01*
X53267Y-25246D01*
X53303Y-25246D01*
X53332Y-25253D01*
X53346Y-25260D01*
X53353Y-25267D01*
X53360Y-25282D01*
X53360Y-25296D01*
X53353Y-25310D01*
X53346Y-25317D01*
X53332Y-25325D01*
X53303Y-25332D01*
X53267Y-25332D01*
X53239Y-25325D01*
X53225Y-25317D01*
X53217Y-25310D01*
X53210Y-25296D01*
X53260Y-25182D02*
X53360Y-25182D01*
X53275Y-25182D02*
X53267Y-25175D01*
X53260Y-25160D01*
X53260Y-25139D01*
X53267Y-25125D01*
X53282Y-25117D01*
X53360Y-25117D01*
X53282Y-24996D02*
X53282Y-25046D01*
X53360Y-25046D02*
X53210Y-25046D01*
X53210Y-24975D01*
G54D25*
X52160Y-24826D02*
X52170Y-24836D01*
X52179Y-24864D01*
X52179Y-24882D01*
X52170Y-24911D01*
X52151Y-24929D01*
X52132Y-24939D01*
X52095Y-24948D01*
X52067Y-24948D01*
X52029Y-24939D01*
X52010Y-24929D01*
X51992Y-24911D01*
X51982Y-24882D01*
X51982Y-24864D01*
X51992Y-24836D01*
X52001Y-24826D01*
X52179Y-24639D02*
X52179Y-24751D01*
X52179Y-24695D02*
X51982Y-24695D01*
X52010Y-24714D01*
X52029Y-24732D01*
X52039Y-24751D01*
X52179Y-24451D02*
X52179Y-24563D01*
X52179Y-24507D02*
X51982Y-24507D01*
X52010Y-24526D01*
X52029Y-24545D01*
X52039Y-24563D01*
G54D24*
X51360Y-24912D02*
X51360Y-24997D01*
X51360Y-24954D02*
X51210Y-24954D01*
X51232Y-24969D01*
X51246Y-24983D01*
X51253Y-24997D01*
X51210Y-24776D02*
X51210Y-24847D01*
X51282Y-24855D01*
X51275Y-24847D01*
X51267Y-24833D01*
X51267Y-24797D01*
X51275Y-24783D01*
X51282Y-24776D01*
X51296Y-24769D01*
X51332Y-24769D01*
X51346Y-24776D01*
X51353Y-24783D01*
X51360Y-24797D01*
X51360Y-24833D01*
X51353Y-24847D01*
X51346Y-24855D01*
X51210Y-24676D02*
X51210Y-24662D01*
X51217Y-24647D01*
X51225Y-24640D01*
X51239Y-24633D01*
X51267Y-24626D01*
X51303Y-24626D01*
X51332Y-24633D01*
X51346Y-24640D01*
X51353Y-24647D01*
X51360Y-24662D01*
X51360Y-24676D01*
X51353Y-24690D01*
X51346Y-24697D01*
X51332Y-24705D01*
X51303Y-24712D01*
X51267Y-24712D01*
X51239Y-24705D01*
X51225Y-24697D01*
X51217Y-24690D01*
X51210Y-24676D01*
X51260Y-24562D02*
X51410Y-24562D01*
X51267Y-24562D02*
X51260Y-24547D01*
X51260Y-24519D01*
X51267Y-24505D01*
X51275Y-24497D01*
X51289Y-24490D01*
X51332Y-24490D01*
X51346Y-24497D01*
X51353Y-24505D01*
X51360Y-24519D01*
X51360Y-24547D01*
X51353Y-24562D01*
X51282Y-24376D02*
X51282Y-24426D01*
X51360Y-24426D02*
X51210Y-24426D01*
X51210Y-24355D01*
X50023Y-31065D02*
X50030Y-31072D01*
X50037Y-31094D01*
X50037Y-31108D01*
X50030Y-31129D01*
X50016Y-31144D01*
X50002Y-31151D01*
X49973Y-31158D01*
X49952Y-31158D01*
X49923Y-31151D01*
X49909Y-31144D01*
X49894Y-31129D01*
X49887Y-31108D01*
X49887Y-31094D01*
X49894Y-31072D01*
X49902Y-31065D01*
X49902Y-31008D02*
X49894Y-31001D01*
X49887Y-30986D01*
X49887Y-30951D01*
X49894Y-30936D01*
X49902Y-30929D01*
X49916Y-30922D01*
X49930Y-30922D01*
X49952Y-30929D01*
X50037Y-31015D01*
X50037Y-30922D01*
X49887Y-30829D02*
X49887Y-30815D01*
X49894Y-30801D01*
X49902Y-30794D01*
X49916Y-30786D01*
X49944Y-30779D01*
X49980Y-30779D01*
X50009Y-30786D01*
X50023Y-30794D01*
X50030Y-30801D01*
X50037Y-30815D01*
X50037Y-30829D01*
X50030Y-30844D01*
X50023Y-30851D01*
X50009Y-30858D01*
X49980Y-30865D01*
X49944Y-30865D01*
X49916Y-30858D01*
X49902Y-30851D01*
X49894Y-30844D01*
X49887Y-30829D01*
X49260Y-31132D02*
X49260Y-31217D01*
X49260Y-31174D02*
X49110Y-31174D01*
X49132Y-31189D01*
X49146Y-31203D01*
X49153Y-31217D01*
X49110Y-31039D02*
X49110Y-31025D01*
X49117Y-31010D01*
X49125Y-31003D01*
X49139Y-30996D01*
X49167Y-30989D01*
X49203Y-30989D01*
X49232Y-30996D01*
X49246Y-31003D01*
X49253Y-31010D01*
X49260Y-31025D01*
X49260Y-31039D01*
X49253Y-31053D01*
X49246Y-31060D01*
X49232Y-31067D01*
X49203Y-31075D01*
X49167Y-31075D01*
X49139Y-31067D01*
X49125Y-31060D01*
X49117Y-31053D01*
X49110Y-31039D01*
X49110Y-30896D02*
X49110Y-30882D01*
X49117Y-30867D01*
X49125Y-30860D01*
X49139Y-30853D01*
X49167Y-30846D01*
X49203Y-30846D01*
X49232Y-30853D01*
X49246Y-30860D01*
X49253Y-30867D01*
X49260Y-30882D01*
X49260Y-30896D01*
X49253Y-30910D01*
X49246Y-30917D01*
X49232Y-30925D01*
X49203Y-30932D01*
X49167Y-30932D01*
X49139Y-30925D01*
X49125Y-30917D01*
X49117Y-30910D01*
X49110Y-30896D01*
X49160Y-30782D02*
X49260Y-30782D01*
X49175Y-30782D02*
X49167Y-30775D01*
X49160Y-30760D01*
X49160Y-30739D01*
X49167Y-30725D01*
X49182Y-30717D01*
X49260Y-30717D01*
X49182Y-30596D02*
X49182Y-30646D01*
X49260Y-30646D02*
X49110Y-30646D01*
X49110Y-30575D01*
G54D25*
X34260Y-23232D02*
X34270Y-23242D01*
X34279Y-23270D01*
X34279Y-23289D01*
X34270Y-23317D01*
X34251Y-23336D01*
X34232Y-23345D01*
X34195Y-23354D01*
X34167Y-23354D01*
X34129Y-23345D01*
X34110Y-23336D01*
X34092Y-23317D01*
X34082Y-23289D01*
X34082Y-23270D01*
X34092Y-23242D01*
X34101Y-23232D01*
X34148Y-23063D02*
X34279Y-23063D01*
X34073Y-23110D02*
X34214Y-23157D01*
X34214Y-23035D01*
G54D24*
X34567Y-23260D02*
X34482Y-23260D01*
X34525Y-23260D02*
X34525Y-23110D01*
X34510Y-23132D01*
X34496Y-23146D01*
X34482Y-23153D01*
X34703Y-23110D02*
X34632Y-23110D01*
X34625Y-23182D01*
X34632Y-23175D01*
X34646Y-23167D01*
X34682Y-23167D01*
X34696Y-23175D01*
X34703Y-23182D01*
X34710Y-23196D01*
X34710Y-23232D01*
X34703Y-23246D01*
X34696Y-23253D01*
X34682Y-23260D01*
X34646Y-23260D01*
X34632Y-23253D01*
X34625Y-23246D01*
X34803Y-23110D02*
X34817Y-23110D01*
X34832Y-23117D01*
X34839Y-23125D01*
X34846Y-23139D01*
X34853Y-23167D01*
X34853Y-23203D01*
X34846Y-23232D01*
X34839Y-23246D01*
X34832Y-23253D01*
X34817Y-23260D01*
X34803Y-23260D01*
X34789Y-23253D01*
X34782Y-23246D01*
X34775Y-23232D01*
X34767Y-23203D01*
X34767Y-23167D01*
X34775Y-23139D01*
X34782Y-23125D01*
X34789Y-23117D01*
X34803Y-23110D01*
X34917Y-23160D02*
X34917Y-23310D01*
X34917Y-23167D02*
X34932Y-23160D01*
X34960Y-23160D01*
X34975Y-23167D01*
X34982Y-23175D01*
X34989Y-23189D01*
X34989Y-23232D01*
X34982Y-23246D01*
X34975Y-23253D01*
X34960Y-23260D01*
X34932Y-23260D01*
X34917Y-23253D01*
X35103Y-23182D02*
X35053Y-23182D01*
X35053Y-23260D02*
X35053Y-23110D01*
X35125Y-23110D01*
G54D14*
X56292Y-30592D02*
X56307Y-30607D01*
X56321Y-30650D01*
X56321Y-30678D01*
X56307Y-30721D01*
X56278Y-30750D01*
X56250Y-30764D01*
X56192Y-30778D01*
X56150Y-30778D01*
X56092Y-30764D01*
X56064Y-30750D01*
X56035Y-30721D01*
X56021Y-30678D01*
X56021Y-30650D01*
X56035Y-30607D01*
X56050Y-30592D01*
X56321Y-30307D02*
X56321Y-30478D01*
X56321Y-30392D02*
X56021Y-30392D01*
X56064Y-30421D01*
X56092Y-30450D01*
X56107Y-30478D01*
X56150Y-30135D02*
X56135Y-30164D01*
X56121Y-30178D01*
X56092Y-30192D01*
X56078Y-30192D01*
X56050Y-30178D01*
X56035Y-30164D01*
X56021Y-30135D01*
X56021Y-30078D01*
X56035Y-30050D01*
X56050Y-30035D01*
X56078Y-30021D01*
X56092Y-30021D01*
X56121Y-30035D01*
X56135Y-30050D01*
X56150Y-30078D01*
X56150Y-30135D01*
X56164Y-30164D01*
X56178Y-30178D01*
X56207Y-30192D01*
X56264Y-30192D01*
X56292Y-30178D01*
X56307Y-30164D01*
X56321Y-30135D01*
X56321Y-30078D01*
X56307Y-30050D01*
X56292Y-30035D01*
X56264Y-30021D01*
X56207Y-30021D01*
X56178Y-30035D01*
X56164Y-30050D01*
X56150Y-30078D01*
G54D26*
X54902Y-30602D02*
X55022Y-30602D01*
X54834Y-30645D02*
X54962Y-30688D01*
X54962Y-30577D01*
X55005Y-30508D02*
X55014Y-30499D01*
X55022Y-30508D01*
X55014Y-30517D01*
X55005Y-30508D01*
X55022Y-30508D01*
X54842Y-30440D02*
X54842Y-30320D01*
X55022Y-30397D01*
X54902Y-30174D02*
X55022Y-30174D01*
X54902Y-30251D02*
X54997Y-30251D01*
X55014Y-30242D01*
X55022Y-30225D01*
X55022Y-30199D01*
X55014Y-30182D01*
X55005Y-30174D01*
X54928Y-30028D02*
X54928Y-30088D01*
X55022Y-30088D02*
X54842Y-30088D01*
X54842Y-30002D01*
G54D25*
X61715Y-34707D02*
X61705Y-34717D01*
X61677Y-34726D01*
X61659Y-34726D01*
X61630Y-34717D01*
X61612Y-34698D01*
X61602Y-34679D01*
X61593Y-34642D01*
X61593Y-34614D01*
X61602Y-34576D01*
X61612Y-34557D01*
X61630Y-34539D01*
X61659Y-34529D01*
X61677Y-34529D01*
X61705Y-34539D01*
X61715Y-34548D01*
X61790Y-34548D02*
X61799Y-34539D01*
X61818Y-34529D01*
X61865Y-34529D01*
X61884Y-34539D01*
X61893Y-34548D01*
X61902Y-34567D01*
X61902Y-34586D01*
X61893Y-34614D01*
X61781Y-34726D01*
X61902Y-34726D01*
X62081Y-34529D02*
X61987Y-34529D01*
X61978Y-34623D01*
X61987Y-34614D01*
X62006Y-34604D01*
X62053Y-34604D01*
X62071Y-34614D01*
X62081Y-34623D01*
X62090Y-34642D01*
X62090Y-34689D01*
X62081Y-34707D01*
X62071Y-34717D01*
X62053Y-34726D01*
X62006Y-34726D01*
X61987Y-34717D01*
X61978Y-34707D01*
G54D24*
X60960Y-35082D02*
X60960Y-35167D01*
X60960Y-35124D02*
X60810Y-35124D01*
X60832Y-35139D01*
X60846Y-35153D01*
X60853Y-35167D01*
X60810Y-34989D02*
X60810Y-34975D01*
X60817Y-34960D01*
X60825Y-34953D01*
X60839Y-34946D01*
X60867Y-34939D01*
X60903Y-34939D01*
X60932Y-34946D01*
X60946Y-34953D01*
X60953Y-34960D01*
X60960Y-34975D01*
X60960Y-34989D01*
X60953Y-35003D01*
X60946Y-35010D01*
X60932Y-35017D01*
X60903Y-35025D01*
X60867Y-35025D01*
X60839Y-35017D01*
X60825Y-35010D01*
X60817Y-35003D01*
X60810Y-34989D01*
X60810Y-34846D02*
X60810Y-34832D01*
X60817Y-34817D01*
X60825Y-34810D01*
X60839Y-34803D01*
X60867Y-34796D01*
X60903Y-34796D01*
X60932Y-34803D01*
X60946Y-34810D01*
X60953Y-34817D01*
X60960Y-34832D01*
X60960Y-34846D01*
X60953Y-34860D01*
X60946Y-34867D01*
X60932Y-34875D01*
X60903Y-34882D01*
X60867Y-34882D01*
X60839Y-34875D01*
X60825Y-34867D01*
X60817Y-34860D01*
X60810Y-34846D01*
X60860Y-34732D02*
X60960Y-34732D01*
X60875Y-34732D02*
X60867Y-34725D01*
X60860Y-34710D01*
X60860Y-34689D01*
X60867Y-34675D01*
X60882Y-34667D01*
X60960Y-34667D01*
X60882Y-34546D02*
X60882Y-34596D01*
X60960Y-34596D02*
X60810Y-34596D01*
X60810Y-34525D01*
G54D29*
X65776Y-35791D02*
X65776Y-35318D01*
X65888Y-35318D01*
X65956Y-35341D01*
X66001Y-35386D01*
X66023Y-35431D01*
X66046Y-35521D01*
X66046Y-35588D01*
X66023Y-35678D01*
X66001Y-35723D01*
X65956Y-35768D01*
X65888Y-35791D01*
X65776Y-35791D01*
X66496Y-35791D02*
X66226Y-35791D01*
X66361Y-35791D02*
X66361Y-35318D01*
X66316Y-35386D01*
X66271Y-35431D01*
X66226Y-35453D01*
X66721Y-35791D02*
X66811Y-35791D01*
X66856Y-35768D01*
X66878Y-35746D01*
X66923Y-35678D01*
X66946Y-35588D01*
X66946Y-35408D01*
X66923Y-35363D01*
X66901Y-35341D01*
X66856Y-35318D01*
X66766Y-35318D01*
X66721Y-35341D01*
X66698Y-35363D01*
X66676Y-35408D01*
X66676Y-35521D01*
X66698Y-35566D01*
X66721Y-35588D01*
X66766Y-35611D01*
X66856Y-35611D01*
X66901Y-35588D01*
X66923Y-35566D01*
X66946Y-35521D01*
X66851Y-23591D02*
X66851Y-23118D01*
X66963Y-23118D01*
X67031Y-23141D01*
X67076Y-23186D01*
X67098Y-23231D01*
X67121Y-23321D01*
X67121Y-23388D01*
X67098Y-23478D01*
X67076Y-23523D01*
X67031Y-23568D01*
X66963Y-23591D01*
X66851Y-23591D01*
X67391Y-23321D02*
X67346Y-23298D01*
X67323Y-23276D01*
X67301Y-23231D01*
X67301Y-23208D01*
X67323Y-23163D01*
X67346Y-23141D01*
X67391Y-23118D01*
X67481Y-23118D01*
X67526Y-23141D01*
X67548Y-23163D01*
X67571Y-23208D01*
X67571Y-23231D01*
X67548Y-23276D01*
X67526Y-23298D01*
X67481Y-23321D01*
X67391Y-23321D01*
X67346Y-23343D01*
X67323Y-23366D01*
X67301Y-23411D01*
X67301Y-23501D01*
X67323Y-23546D01*
X67346Y-23568D01*
X67391Y-23591D01*
X67481Y-23591D01*
X67526Y-23568D01*
X67548Y-23546D01*
X67571Y-23501D01*
X67571Y-23411D01*
X67548Y-23366D01*
X67526Y-23343D01*
X67481Y-23321D01*
G54D17*
X55857Y-34980D02*
X55857Y-34780D01*
X55904Y-34780D01*
X55933Y-34790D01*
X55952Y-34809D01*
X55961Y-34828D01*
X55971Y-34866D01*
X55971Y-34895D01*
X55961Y-34933D01*
X55952Y-34952D01*
X55933Y-34971D01*
X55904Y-34980D01*
X55857Y-34980D01*
X56047Y-34800D02*
X56057Y-34790D01*
X56076Y-34780D01*
X56123Y-34780D01*
X56142Y-34790D01*
X56152Y-34800D01*
X56161Y-34819D01*
X56161Y-34838D01*
X56152Y-34866D01*
X56038Y-34980D01*
X56161Y-34980D01*
X56285Y-34780D02*
X56304Y-34780D01*
X56323Y-34790D01*
X56333Y-34800D01*
X56342Y-34819D01*
X56352Y-34857D01*
X56352Y-34904D01*
X56342Y-34942D01*
X56333Y-34961D01*
X56323Y-34971D01*
X56304Y-34980D01*
X56285Y-34980D01*
X56266Y-34971D01*
X56257Y-34961D01*
X56247Y-34942D01*
X56238Y-34904D01*
X56238Y-34857D01*
X56247Y-34819D01*
X56257Y-34800D01*
X56266Y-34790D01*
X56285Y-34780D01*
G54D24*
X55387Y-35443D02*
X55408Y-35450D01*
X55444Y-35450D01*
X55458Y-35443D01*
X55465Y-35436D01*
X55472Y-35422D01*
X55472Y-35407D01*
X55465Y-35393D01*
X55458Y-35386D01*
X55444Y-35379D01*
X55415Y-35372D01*
X55401Y-35365D01*
X55394Y-35357D01*
X55387Y-35343D01*
X55387Y-35329D01*
X55394Y-35315D01*
X55401Y-35307D01*
X55415Y-35300D01*
X55451Y-35300D01*
X55472Y-35307D01*
X55530Y-35443D02*
X55551Y-35450D01*
X55587Y-35450D01*
X55601Y-35443D01*
X55608Y-35436D01*
X55615Y-35422D01*
X55615Y-35407D01*
X55608Y-35393D01*
X55601Y-35386D01*
X55587Y-35379D01*
X55558Y-35372D01*
X55544Y-35365D01*
X55537Y-35357D01*
X55530Y-35343D01*
X55530Y-35329D01*
X55537Y-35315D01*
X55544Y-35307D01*
X55558Y-35300D01*
X55594Y-35300D01*
X55615Y-35307D01*
X55672Y-35407D02*
X55744Y-35407D01*
X55658Y-35450D02*
X55708Y-35300D01*
X55758Y-35450D01*
X55801Y-35315D02*
X55808Y-35307D01*
X55822Y-35300D01*
X55858Y-35300D01*
X55872Y-35307D01*
X55880Y-35315D01*
X55887Y-35329D01*
X55887Y-35343D01*
X55880Y-35365D01*
X55794Y-35450D01*
X55887Y-35450D01*
X56030Y-35450D02*
X55944Y-35450D01*
X55987Y-35450D02*
X55987Y-35300D01*
X55972Y-35322D01*
X55958Y-35336D01*
X55944Y-35343D01*
X56122Y-35300D02*
X56137Y-35300D01*
X56151Y-35307D01*
X56158Y-35315D01*
X56165Y-35329D01*
X56172Y-35357D01*
X56172Y-35393D01*
X56165Y-35422D01*
X56158Y-35436D01*
X56151Y-35443D01*
X56137Y-35450D01*
X56122Y-35450D01*
X56108Y-35443D01*
X56101Y-35436D01*
X56094Y-35422D01*
X56087Y-35393D01*
X56087Y-35357D01*
X56094Y-35329D01*
X56101Y-35315D01*
X56108Y-35307D01*
X56122Y-35300D01*
G54D26*
X45829Y-24815D02*
X45735Y-24875D01*
X45829Y-24918D02*
X45632Y-24918D01*
X45632Y-24850D01*
X45642Y-24832D01*
X45651Y-24824D01*
X45670Y-24815D01*
X45698Y-24815D01*
X45717Y-24824D01*
X45726Y-24832D01*
X45735Y-24850D01*
X45735Y-24918D01*
X45829Y-24644D02*
X45829Y-24747D01*
X45829Y-24695D02*
X45632Y-24695D01*
X45660Y-24712D01*
X45679Y-24730D01*
X45689Y-24747D01*
X45632Y-24584D02*
X45632Y-24464D01*
X45829Y-24541D01*
G54D24*
X46510Y-24803D02*
X46510Y-24889D01*
X46510Y-24846D02*
X46360Y-24846D01*
X46382Y-24860D01*
X46396Y-24875D01*
X46403Y-24889D01*
X46360Y-24710D02*
X46360Y-24696D01*
X46367Y-24682D01*
X46375Y-24675D01*
X46389Y-24667D01*
X46417Y-24660D01*
X46453Y-24660D01*
X46482Y-24667D01*
X46496Y-24675D01*
X46503Y-24682D01*
X46510Y-24696D01*
X46510Y-24710D01*
X46503Y-24725D01*
X46496Y-24732D01*
X46482Y-24739D01*
X46453Y-24746D01*
X46417Y-24746D01*
X46389Y-24739D01*
X46375Y-24732D01*
X46367Y-24725D01*
X46360Y-24710D01*
X46510Y-24596D02*
X46360Y-24596D01*
X46510Y-24510D02*
X46425Y-24575D01*
X46360Y-24510D02*
X46446Y-24596D01*
G54D26*
X42184Y-26679D02*
X42124Y-26585D01*
X42081Y-26679D02*
X42081Y-26482D01*
X42150Y-26482D01*
X42167Y-26492D01*
X42175Y-26501D01*
X42184Y-26520D01*
X42184Y-26548D01*
X42175Y-26567D01*
X42167Y-26576D01*
X42150Y-26585D01*
X42081Y-26585D01*
X42252Y-26501D02*
X42261Y-26492D01*
X42278Y-26482D01*
X42321Y-26482D01*
X42338Y-26492D01*
X42347Y-26501D01*
X42355Y-26520D01*
X42355Y-26539D01*
X42347Y-26567D01*
X42244Y-26679D01*
X42355Y-26679D01*
X42467Y-26482D02*
X42484Y-26482D01*
X42501Y-26492D01*
X42510Y-26501D01*
X42518Y-26520D01*
X42527Y-26557D01*
X42527Y-26604D01*
X42518Y-26642D01*
X42510Y-26660D01*
X42501Y-26670D01*
X42484Y-26679D01*
X42467Y-26679D01*
X42450Y-26670D01*
X42441Y-26660D01*
X42432Y-26642D01*
X42424Y-26604D01*
X42424Y-26557D01*
X42432Y-26520D01*
X42441Y-26501D01*
X42450Y-26492D01*
X42467Y-26482D01*
G54D24*
X42196Y-25960D02*
X42110Y-25960D01*
X42153Y-25960D02*
X42153Y-25810D01*
X42139Y-25832D01*
X42125Y-25846D01*
X42110Y-25853D01*
X42289Y-25810D02*
X42303Y-25810D01*
X42317Y-25817D01*
X42325Y-25825D01*
X42332Y-25839D01*
X42339Y-25867D01*
X42339Y-25903D01*
X42332Y-25932D01*
X42325Y-25946D01*
X42317Y-25953D01*
X42303Y-25960D01*
X42289Y-25960D01*
X42275Y-25953D01*
X42267Y-25946D01*
X42260Y-25932D01*
X42253Y-25903D01*
X42253Y-25867D01*
X42260Y-25839D01*
X42267Y-25825D01*
X42275Y-25817D01*
X42289Y-25810D01*
X42403Y-25960D02*
X42403Y-25810D01*
X42489Y-25960D02*
X42425Y-25875D01*
X42489Y-25810D02*
X42403Y-25896D01*
G54D26*
X48734Y-24329D02*
X48674Y-24235D01*
X48631Y-24329D02*
X48631Y-24132D01*
X48700Y-24132D01*
X48717Y-24142D01*
X48725Y-24151D01*
X48734Y-24170D01*
X48734Y-24198D01*
X48725Y-24217D01*
X48717Y-24226D01*
X48700Y-24235D01*
X48631Y-24235D01*
X48905Y-24329D02*
X48802Y-24329D01*
X48854Y-24329D02*
X48854Y-24132D01*
X48837Y-24160D01*
X48820Y-24179D01*
X48802Y-24189D01*
X48965Y-24132D02*
X49077Y-24132D01*
X49017Y-24207D01*
X49042Y-24207D01*
X49060Y-24217D01*
X49068Y-24226D01*
X49077Y-24245D01*
X49077Y-24292D01*
X49068Y-24310D01*
X49060Y-24320D01*
X49042Y-24329D01*
X48991Y-24329D01*
X48974Y-24320D01*
X48965Y-24310D01*
G54D24*
X48685Y-23525D02*
X48692Y-23517D01*
X48707Y-23510D01*
X48742Y-23510D01*
X48757Y-23517D01*
X48764Y-23525D01*
X48771Y-23539D01*
X48771Y-23553D01*
X48764Y-23575D01*
X48678Y-23660D01*
X48771Y-23660D01*
X48821Y-23510D02*
X48921Y-23510D01*
X48857Y-23660D01*
G54D26*
X47984Y-24329D02*
X47924Y-24235D01*
X47881Y-24329D02*
X47881Y-24132D01*
X47950Y-24132D01*
X47967Y-24142D01*
X47975Y-24151D01*
X47984Y-24170D01*
X47984Y-24198D01*
X47975Y-24217D01*
X47967Y-24226D01*
X47950Y-24235D01*
X47881Y-24235D01*
X48155Y-24329D02*
X48052Y-24329D01*
X48104Y-24329D02*
X48104Y-24132D01*
X48087Y-24160D01*
X48070Y-24179D01*
X48052Y-24189D01*
X48224Y-24151D02*
X48232Y-24142D01*
X48250Y-24132D01*
X48292Y-24132D01*
X48310Y-24142D01*
X48318Y-24151D01*
X48327Y-24170D01*
X48327Y-24189D01*
X48318Y-24217D01*
X48215Y-24329D01*
X48327Y-24329D01*
G54D24*
X47985Y-23525D02*
X47992Y-23517D01*
X48007Y-23510D01*
X48042Y-23510D01*
X48057Y-23517D01*
X48064Y-23525D01*
X48071Y-23539D01*
X48071Y-23553D01*
X48064Y-23575D01*
X47978Y-23660D01*
X48071Y-23660D01*
X48121Y-23510D02*
X48221Y-23510D01*
X48157Y-23660D01*
G54D26*
X33089Y-25795D02*
X32995Y-25855D01*
X33089Y-25898D02*
X32892Y-25898D01*
X32892Y-25830D01*
X32902Y-25812D01*
X32911Y-25804D01*
X32930Y-25795D01*
X32958Y-25795D01*
X32977Y-25804D01*
X32986Y-25812D01*
X32995Y-25830D01*
X32995Y-25898D01*
X33089Y-25624D02*
X33089Y-25727D01*
X33089Y-25675D02*
X32892Y-25675D01*
X32920Y-25692D01*
X32939Y-25710D01*
X32949Y-25727D01*
X32977Y-25521D02*
X32967Y-25538D01*
X32958Y-25547D01*
X32939Y-25555D01*
X32930Y-25555D01*
X32911Y-25547D01*
X32902Y-25538D01*
X32892Y-25521D01*
X32892Y-25487D01*
X32902Y-25470D01*
X32911Y-25461D01*
X32930Y-25452D01*
X32939Y-25452D01*
X32958Y-25461D01*
X32967Y-25470D01*
X32977Y-25487D01*
X32977Y-25521D01*
X32986Y-25538D01*
X32995Y-25547D01*
X33014Y-25555D01*
X33052Y-25555D01*
X33070Y-25547D01*
X33080Y-25538D01*
X33089Y-25521D01*
X33089Y-25487D01*
X33080Y-25470D01*
X33070Y-25461D01*
X33052Y-25452D01*
X33014Y-25452D01*
X32995Y-25461D01*
X32986Y-25470D01*
X32977Y-25487D01*
G54D24*
X33467Y-25760D02*
X33382Y-25760D01*
X33425Y-25760D02*
X33425Y-25610D01*
X33410Y-25632D01*
X33396Y-25646D01*
X33382Y-25653D01*
X33532Y-25760D02*
X33532Y-25610D01*
X33617Y-25760D02*
X33553Y-25675D01*
X33617Y-25610D02*
X33532Y-25696D01*
G54D26*
X42288Y-22107D02*
X42228Y-22013D01*
X42185Y-22107D02*
X42185Y-21910D01*
X42253Y-21910D01*
X42270Y-21920D01*
X42279Y-21929D01*
X42288Y-21948D01*
X42288Y-21976D01*
X42279Y-21995D01*
X42270Y-22004D01*
X42253Y-22013D01*
X42185Y-22013D01*
X42373Y-22107D02*
X42408Y-22107D01*
X42425Y-22098D01*
X42433Y-22088D01*
X42450Y-22060D01*
X42459Y-22023D01*
X42459Y-21948D01*
X42450Y-21929D01*
X42442Y-21920D01*
X42425Y-21910D01*
X42390Y-21910D01*
X42373Y-21920D01*
X42365Y-21929D01*
X42356Y-21948D01*
X42356Y-21995D01*
X42365Y-22013D01*
X42373Y-22023D01*
X42390Y-22032D01*
X42425Y-22032D01*
X42442Y-22023D01*
X42450Y-22013D01*
X42459Y-21995D01*
G54D24*
X42360Y-22528D02*
X42360Y-22614D01*
X42360Y-22571D02*
X42210Y-22571D01*
X42232Y-22585D01*
X42246Y-22600D01*
X42253Y-22614D01*
X42210Y-22435D02*
X42210Y-22421D01*
X42217Y-22407D01*
X42225Y-22400D01*
X42239Y-22392D01*
X42267Y-22385D01*
X42303Y-22385D01*
X42332Y-22392D01*
X42346Y-22400D01*
X42353Y-22407D01*
X42360Y-22421D01*
X42360Y-22435D01*
X42353Y-22450D01*
X42346Y-22457D01*
X42332Y-22464D01*
X42303Y-22471D01*
X42267Y-22471D01*
X42239Y-22464D01*
X42225Y-22457D01*
X42217Y-22450D01*
X42210Y-22435D01*
G54D26*
X45094Y-25359D02*
X45034Y-25265D01*
X44991Y-25359D02*
X44991Y-25162D01*
X45060Y-25162D01*
X45077Y-25172D01*
X45085Y-25181D01*
X45094Y-25200D01*
X45094Y-25228D01*
X45085Y-25247D01*
X45077Y-25256D01*
X45060Y-25265D01*
X44991Y-25265D01*
X45162Y-25181D02*
X45171Y-25172D01*
X45188Y-25162D01*
X45231Y-25162D01*
X45248Y-25172D01*
X45257Y-25181D01*
X45265Y-25200D01*
X45265Y-25219D01*
X45257Y-25247D01*
X45154Y-25359D01*
X45265Y-25359D01*
X45437Y-25359D02*
X45334Y-25359D01*
X45385Y-25359D02*
X45385Y-25162D01*
X45368Y-25190D01*
X45351Y-25209D01*
X45334Y-25219D01*
G54D24*
X45196Y-25960D02*
X45110Y-25960D01*
X45153Y-25960D02*
X45153Y-25810D01*
X45139Y-25832D01*
X45125Y-25846D01*
X45110Y-25853D01*
X45289Y-25810D02*
X45303Y-25810D01*
X45317Y-25817D01*
X45325Y-25825D01*
X45332Y-25839D01*
X45339Y-25867D01*
X45339Y-25903D01*
X45332Y-25932D01*
X45325Y-25946D01*
X45317Y-25953D01*
X45303Y-25960D01*
X45289Y-25960D01*
X45275Y-25953D01*
X45267Y-25946D01*
X45260Y-25932D01*
X45253Y-25903D01*
X45253Y-25867D01*
X45260Y-25839D01*
X45267Y-25825D01*
X45275Y-25817D01*
X45289Y-25810D01*
X45403Y-25960D02*
X45403Y-25810D01*
X45489Y-25960D02*
X45425Y-25875D01*
X45489Y-25810D02*
X45403Y-25896D01*
G54D26*
X37684Y-38779D02*
X37624Y-38685D01*
X37581Y-38779D02*
X37581Y-38582D01*
X37650Y-38582D01*
X37667Y-38592D01*
X37675Y-38601D01*
X37684Y-38620D01*
X37684Y-38648D01*
X37675Y-38667D01*
X37667Y-38676D01*
X37650Y-38685D01*
X37581Y-38685D01*
X37838Y-38648D02*
X37838Y-38779D01*
X37795Y-38573D02*
X37752Y-38714D01*
X37864Y-38714D01*
X37924Y-38601D02*
X37932Y-38592D01*
X37950Y-38582D01*
X37992Y-38582D01*
X38010Y-38592D01*
X38018Y-38601D01*
X38027Y-38620D01*
X38027Y-38639D01*
X38018Y-38667D01*
X37915Y-38779D01*
X38027Y-38779D01*
G54D24*
X37860Y-38232D02*
X37860Y-38317D01*
X37860Y-38274D02*
X37710Y-38274D01*
X37732Y-38289D01*
X37746Y-38303D01*
X37753Y-38317D01*
X37860Y-38167D02*
X37710Y-38167D01*
X37860Y-38082D02*
X37775Y-38146D01*
X37710Y-38082D02*
X37796Y-38167D01*
G54D26*
X61679Y-38115D02*
X61585Y-38175D01*
X61679Y-38218D02*
X61482Y-38218D01*
X61482Y-38150D01*
X61492Y-38132D01*
X61501Y-38124D01*
X61520Y-38115D01*
X61548Y-38115D01*
X61567Y-38124D01*
X61576Y-38132D01*
X61585Y-38150D01*
X61585Y-38218D01*
X61548Y-37961D02*
X61679Y-37961D01*
X61473Y-38004D02*
X61614Y-38047D01*
X61614Y-37935D01*
X61482Y-37884D02*
X61482Y-37772D01*
X61557Y-37832D01*
X61557Y-37807D01*
X61567Y-37790D01*
X61576Y-37781D01*
X61595Y-37772D01*
X61642Y-37772D01*
X61660Y-37781D01*
X61670Y-37790D01*
X61679Y-37807D01*
X61679Y-37858D01*
X61670Y-37875D01*
X61660Y-37884D01*
G54D24*
X60960Y-38042D02*
X60960Y-38128D01*
X60960Y-38085D02*
X60810Y-38085D01*
X60832Y-38100D01*
X60846Y-38114D01*
X60853Y-38128D01*
X60960Y-37978D02*
X60810Y-37978D01*
X60917Y-37928D01*
X60810Y-37878D01*
X60960Y-37878D01*
X49938Y-31659D02*
X49867Y-31709D01*
X49938Y-31745D02*
X49788Y-31745D01*
X49788Y-31688D01*
X49795Y-31673D01*
X49803Y-31666D01*
X49817Y-31659D01*
X49838Y-31659D01*
X49853Y-31666D01*
X49860Y-31673D01*
X49867Y-31688D01*
X49867Y-31745D01*
X49788Y-31609D02*
X49788Y-31516D01*
X49845Y-31566D01*
X49845Y-31545D01*
X49853Y-31530D01*
X49860Y-31523D01*
X49874Y-31516D01*
X49910Y-31516D01*
X49924Y-31523D01*
X49931Y-31530D01*
X49938Y-31545D01*
X49938Y-31588D01*
X49931Y-31602D01*
X49924Y-31609D01*
X49803Y-31459D02*
X49795Y-31452D01*
X49788Y-31438D01*
X49788Y-31402D01*
X49795Y-31388D01*
X49803Y-31380D01*
X49817Y-31373D01*
X49831Y-31373D01*
X49853Y-31380D01*
X49938Y-31466D01*
X49938Y-31373D01*
X49260Y-31699D02*
X49260Y-31785D01*
X49260Y-31742D02*
X49110Y-31742D01*
X49132Y-31757D01*
X49146Y-31771D01*
X49153Y-31785D01*
X49110Y-31607D02*
X49110Y-31592D01*
X49117Y-31578D01*
X49125Y-31571D01*
X49139Y-31564D01*
X49167Y-31557D01*
X49203Y-31557D01*
X49232Y-31564D01*
X49246Y-31571D01*
X49253Y-31578D01*
X49260Y-31592D01*
X49260Y-31607D01*
X49253Y-31621D01*
X49246Y-31628D01*
X49232Y-31635D01*
X49203Y-31642D01*
X49167Y-31642D01*
X49139Y-31635D01*
X49125Y-31628D01*
X49117Y-31621D01*
X49110Y-31607D01*
X49110Y-31464D02*
X49110Y-31450D01*
X49117Y-31435D01*
X49125Y-31428D01*
X49139Y-31421D01*
X49167Y-31414D01*
X49203Y-31414D01*
X49232Y-31421D01*
X49246Y-31428D01*
X49253Y-31435D01*
X49260Y-31450D01*
X49260Y-31464D01*
X49253Y-31478D01*
X49246Y-31485D01*
X49232Y-31492D01*
X49203Y-31500D01*
X49167Y-31500D01*
X49139Y-31492D01*
X49125Y-31485D01*
X49117Y-31478D01*
X49110Y-31464D01*
G54D26*
X49284Y-34479D02*
X49224Y-34385D01*
X49181Y-34479D02*
X49181Y-34282D01*
X49250Y-34282D01*
X49267Y-34292D01*
X49275Y-34301D01*
X49284Y-34320D01*
X49284Y-34348D01*
X49275Y-34367D01*
X49267Y-34376D01*
X49250Y-34385D01*
X49181Y-34385D01*
X49344Y-34282D02*
X49455Y-34282D01*
X49395Y-34357D01*
X49421Y-34357D01*
X49438Y-34367D01*
X49447Y-34376D01*
X49455Y-34395D01*
X49455Y-34442D01*
X49447Y-34460D01*
X49438Y-34470D01*
X49421Y-34479D01*
X49370Y-34479D01*
X49352Y-34470D01*
X49344Y-34460D01*
X49610Y-34282D02*
X49575Y-34282D01*
X49558Y-34292D01*
X49550Y-34301D01*
X49532Y-34329D01*
X49524Y-34367D01*
X49524Y-34442D01*
X49532Y-34460D01*
X49541Y-34470D01*
X49558Y-34479D01*
X49592Y-34479D01*
X49610Y-34470D01*
X49618Y-34460D01*
X49627Y-34442D01*
X49627Y-34395D01*
X49618Y-34376D01*
X49610Y-34367D01*
X49592Y-34357D01*
X49558Y-34357D01*
X49541Y-34367D01*
X49532Y-34376D01*
X49524Y-34395D01*
G54D24*
X49360Y-34003D02*
X49360Y-34089D01*
X49360Y-34046D02*
X49210Y-34046D01*
X49232Y-34060D01*
X49246Y-34075D01*
X49253Y-34089D01*
X49210Y-33910D02*
X49210Y-33896D01*
X49217Y-33882D01*
X49225Y-33875D01*
X49239Y-33867D01*
X49267Y-33860D01*
X49303Y-33860D01*
X49332Y-33867D01*
X49346Y-33875D01*
X49353Y-33882D01*
X49360Y-33896D01*
X49360Y-33910D01*
X49353Y-33925D01*
X49346Y-33932D01*
X49332Y-33939D01*
X49303Y-33946D01*
X49267Y-33946D01*
X49239Y-33939D01*
X49225Y-33932D01*
X49217Y-33925D01*
X49210Y-33910D01*
X49360Y-33796D02*
X49210Y-33796D01*
X49360Y-33710D02*
X49275Y-33775D01*
X49210Y-33710D02*
X49296Y-33796D01*
G54D26*
X61123Y-33643D02*
X61063Y-33549D01*
X61020Y-33643D02*
X61020Y-33446D01*
X61089Y-33446D01*
X61106Y-33456D01*
X61114Y-33465D01*
X61123Y-33484D01*
X61123Y-33512D01*
X61114Y-33531D01*
X61106Y-33540D01*
X61089Y-33549D01*
X61020Y-33549D01*
X61183Y-33446D02*
X61294Y-33446D01*
X61234Y-33521D01*
X61260Y-33521D01*
X61277Y-33531D01*
X61286Y-33540D01*
X61294Y-33559D01*
X61294Y-33606D01*
X61286Y-33624D01*
X61277Y-33634D01*
X61260Y-33643D01*
X61209Y-33643D01*
X61191Y-33634D01*
X61183Y-33624D01*
X61380Y-33643D02*
X61414Y-33643D01*
X61431Y-33634D01*
X61440Y-33624D01*
X61457Y-33596D01*
X61466Y-33559D01*
X61466Y-33484D01*
X61457Y-33465D01*
X61449Y-33456D01*
X61431Y-33446D01*
X61397Y-33446D01*
X61380Y-33456D01*
X61371Y-33465D01*
X61363Y-33484D01*
X61363Y-33531D01*
X61371Y-33549D01*
X61380Y-33559D01*
X61397Y-33568D01*
X61431Y-33568D01*
X61449Y-33559D01*
X61457Y-33549D01*
X61466Y-33531D01*
G54D24*
X60427Y-33959D02*
X60341Y-33959D01*
X60384Y-33959D02*
X60384Y-33809D01*
X60369Y-33831D01*
X60355Y-33845D01*
X60341Y-33852D01*
X60519Y-33809D02*
X60534Y-33809D01*
X60548Y-33816D01*
X60555Y-33824D01*
X60562Y-33838D01*
X60569Y-33866D01*
X60569Y-33902D01*
X60562Y-33931D01*
X60555Y-33945D01*
X60548Y-33952D01*
X60534Y-33959D01*
X60519Y-33959D01*
X60505Y-33952D01*
X60498Y-33945D01*
X60491Y-33931D01*
X60484Y-33902D01*
X60484Y-33866D01*
X60491Y-33838D01*
X60498Y-33824D01*
X60505Y-33816D01*
X60519Y-33809D01*
X60662Y-33809D02*
X60677Y-33809D01*
X60691Y-33816D01*
X60698Y-33824D01*
X60705Y-33838D01*
X60712Y-33866D01*
X60712Y-33902D01*
X60705Y-33931D01*
X60698Y-33945D01*
X60691Y-33952D01*
X60677Y-33959D01*
X60662Y-33959D01*
X60648Y-33952D01*
X60641Y-33945D01*
X60634Y-33931D01*
X60627Y-33902D01*
X60627Y-33866D01*
X60634Y-33838D01*
X60641Y-33824D01*
X60648Y-33816D01*
X60662Y-33809D01*
X60777Y-33959D02*
X60777Y-33809D01*
X60862Y-33959D02*
X60798Y-33874D01*
X60862Y-33809D02*
X60777Y-33895D01*
G54D26*
X51879Y-28415D02*
X51785Y-28475D01*
X51879Y-28518D02*
X51682Y-28518D01*
X51682Y-28450D01*
X51692Y-28432D01*
X51701Y-28424D01*
X51720Y-28415D01*
X51748Y-28415D01*
X51767Y-28424D01*
X51776Y-28432D01*
X51785Y-28450D01*
X51785Y-28518D01*
X51701Y-28347D02*
X51692Y-28338D01*
X51682Y-28321D01*
X51682Y-28278D01*
X51692Y-28261D01*
X51701Y-28252D01*
X51720Y-28244D01*
X51739Y-28244D01*
X51767Y-28252D01*
X51879Y-28355D01*
X51879Y-28244D01*
X51682Y-28184D02*
X51682Y-28064D01*
X51879Y-28141D01*
G54D24*
X52560Y-28399D02*
X52560Y-28485D01*
X52560Y-28442D02*
X52410Y-28442D01*
X52432Y-28457D01*
X52446Y-28471D01*
X52453Y-28485D01*
X52410Y-28307D02*
X52410Y-28292D01*
X52417Y-28278D01*
X52425Y-28271D01*
X52439Y-28264D01*
X52467Y-28257D01*
X52503Y-28257D01*
X52532Y-28264D01*
X52546Y-28271D01*
X52553Y-28278D01*
X52560Y-28292D01*
X52560Y-28307D01*
X52553Y-28321D01*
X52546Y-28328D01*
X52532Y-28335D01*
X52503Y-28342D01*
X52467Y-28342D01*
X52439Y-28335D01*
X52425Y-28328D01*
X52417Y-28321D01*
X52410Y-28307D01*
X52410Y-28164D02*
X52410Y-28150D01*
X52417Y-28135D01*
X52425Y-28128D01*
X52439Y-28121D01*
X52467Y-28114D01*
X52503Y-28114D01*
X52532Y-28121D01*
X52546Y-28128D01*
X52553Y-28135D01*
X52560Y-28150D01*
X52560Y-28164D01*
X52553Y-28178D01*
X52546Y-28185D01*
X52532Y-28192D01*
X52503Y-28200D01*
X52467Y-28200D01*
X52439Y-28192D01*
X52425Y-28185D01*
X52417Y-28178D01*
X52410Y-28164D01*
G54D26*
X52364Y-26019D02*
X52304Y-25925D01*
X52261Y-26019D02*
X52261Y-25822D01*
X52330Y-25822D01*
X52347Y-25832D01*
X52355Y-25841D01*
X52364Y-25860D01*
X52364Y-25888D01*
X52355Y-25907D01*
X52347Y-25916D01*
X52330Y-25925D01*
X52261Y-25925D01*
X52432Y-25841D02*
X52441Y-25832D01*
X52458Y-25822D01*
X52501Y-25822D01*
X52518Y-25832D01*
X52527Y-25841D01*
X52535Y-25860D01*
X52535Y-25879D01*
X52527Y-25907D01*
X52424Y-26019D01*
X52535Y-26019D01*
X52595Y-25822D02*
X52707Y-25822D01*
X52647Y-25897D01*
X52672Y-25897D01*
X52690Y-25907D01*
X52698Y-25916D01*
X52707Y-25935D01*
X52707Y-25982D01*
X52698Y-26000D01*
X52690Y-26010D01*
X52672Y-26019D01*
X52621Y-26019D01*
X52604Y-26010D01*
X52595Y-26000D01*
G54D24*
X53364Y-26242D02*
X53364Y-26328D01*
X53364Y-26285D02*
X53204Y-26285D01*
X53227Y-26300D01*
X53242Y-26314D01*
X53250Y-26328D01*
X53364Y-26178D02*
X53204Y-26178D01*
X53319Y-26128D01*
X53204Y-26078D01*
X53364Y-26078D01*
G54D26*
X56010Y-20629D02*
X55950Y-20535D01*
X55907Y-20629D02*
X55907Y-20432D01*
X55975Y-20432D01*
X55992Y-20442D01*
X56001Y-20451D01*
X56010Y-20470D01*
X56010Y-20498D01*
X56001Y-20517D01*
X55992Y-20526D01*
X55975Y-20535D01*
X55907Y-20535D01*
X56164Y-20498D02*
X56164Y-20629D01*
X56121Y-20423D02*
X56078Y-20564D01*
X56190Y-20564D01*
G54D24*
X55696Y-21110D02*
X55789Y-21110D01*
X55739Y-21167D01*
X55760Y-21167D01*
X55775Y-21175D01*
X55782Y-21182D01*
X55789Y-21196D01*
X55789Y-21232D01*
X55782Y-21246D01*
X55775Y-21253D01*
X55760Y-21260D01*
X55717Y-21260D01*
X55703Y-21253D01*
X55696Y-21246D01*
X55839Y-21110D02*
X55939Y-21110D01*
X55875Y-21260D01*
X55996Y-21246D02*
X56003Y-21253D01*
X55996Y-21260D01*
X55989Y-21253D01*
X55996Y-21246D01*
X55996Y-21260D01*
X56089Y-21175D02*
X56075Y-21167D01*
X56067Y-21160D01*
X56060Y-21146D01*
X56060Y-21139D01*
X56067Y-21125D01*
X56075Y-21117D01*
X56089Y-21110D01*
X56117Y-21110D01*
X56132Y-21117D01*
X56139Y-21125D01*
X56146Y-21139D01*
X56146Y-21146D01*
X56139Y-21160D01*
X56132Y-21167D01*
X56117Y-21175D01*
X56089Y-21175D01*
X56075Y-21182D01*
X56067Y-21189D01*
X56060Y-21203D01*
X56060Y-21232D01*
X56067Y-21246D01*
X56075Y-21253D01*
X56089Y-21260D01*
X56117Y-21260D01*
X56132Y-21253D01*
X56139Y-21246D01*
X56146Y-21232D01*
X56146Y-21203D01*
X56139Y-21189D01*
X56132Y-21182D01*
X56117Y-21175D01*
X56210Y-21260D02*
X56210Y-21110D01*
X56296Y-21260D02*
X56232Y-21175D01*
X56296Y-21110D02*
X56210Y-21196D01*
G54D26*
X54370Y-22579D02*
X54310Y-22485D01*
X54267Y-22579D02*
X54267Y-22382D01*
X54335Y-22382D01*
X54352Y-22392D01*
X54361Y-22401D01*
X54370Y-22420D01*
X54370Y-22448D01*
X54361Y-22467D01*
X54352Y-22476D01*
X54335Y-22485D01*
X54267Y-22485D01*
X54472Y-22467D02*
X54455Y-22457D01*
X54447Y-22448D01*
X54438Y-22429D01*
X54438Y-22420D01*
X54447Y-22401D01*
X54455Y-22392D01*
X54472Y-22382D01*
X54507Y-22382D01*
X54524Y-22392D01*
X54532Y-22401D01*
X54541Y-22420D01*
X54541Y-22429D01*
X54532Y-22448D01*
X54524Y-22457D01*
X54507Y-22467D01*
X54472Y-22467D01*
X54455Y-22476D01*
X54447Y-22485D01*
X54438Y-22504D01*
X54438Y-22542D01*
X54447Y-22560D01*
X54455Y-22570D01*
X54472Y-22579D01*
X54507Y-22579D01*
X54524Y-22570D01*
X54532Y-22560D01*
X54541Y-22542D01*
X54541Y-22504D01*
X54532Y-22485D01*
X54524Y-22476D01*
X54507Y-22467D01*
G54D24*
X54367Y-23260D02*
X54282Y-23260D01*
X54325Y-23260D02*
X54325Y-23110D01*
X54310Y-23132D01*
X54296Y-23146D01*
X54282Y-23153D01*
X54432Y-23260D02*
X54432Y-23110D01*
X54517Y-23260D02*
X54453Y-23175D01*
X54517Y-23110D02*
X54432Y-23196D01*
G54D26*
X55784Y-27079D02*
X55724Y-26985D01*
X55681Y-27079D02*
X55681Y-26882D01*
X55750Y-26882D01*
X55767Y-26892D01*
X55775Y-26901D01*
X55784Y-26920D01*
X55784Y-26948D01*
X55775Y-26967D01*
X55767Y-26976D01*
X55750Y-26985D01*
X55681Y-26985D01*
X55852Y-26901D02*
X55861Y-26892D01*
X55878Y-26882D01*
X55921Y-26882D01*
X55938Y-26892D01*
X55947Y-26901D01*
X55955Y-26920D01*
X55955Y-26939D01*
X55947Y-26967D01*
X55844Y-27079D01*
X55955Y-27079D01*
X56110Y-26882D02*
X56075Y-26882D01*
X56058Y-26892D01*
X56050Y-26901D01*
X56032Y-26929D01*
X56024Y-26967D01*
X56024Y-27042D01*
X56032Y-27060D01*
X56041Y-27070D01*
X56058Y-27079D01*
X56092Y-27079D01*
X56110Y-27070D01*
X56118Y-27060D01*
X56127Y-27042D01*
X56127Y-26995D01*
X56118Y-26976D01*
X56110Y-26967D01*
X56092Y-26957D01*
X56058Y-26957D01*
X56041Y-26967D01*
X56032Y-26976D01*
X56024Y-26995D01*
G54D24*
X55871Y-27760D02*
X55785Y-27760D01*
X55828Y-27760D02*
X55828Y-27610D01*
X55814Y-27632D01*
X55800Y-27646D01*
X55785Y-27653D01*
X55964Y-27610D02*
X55978Y-27610D01*
X55992Y-27617D01*
X56000Y-27625D01*
X56007Y-27639D01*
X56014Y-27667D01*
X56014Y-27703D01*
X56007Y-27732D01*
X56000Y-27746D01*
X55992Y-27753D01*
X55978Y-27760D01*
X55964Y-27760D01*
X55950Y-27753D01*
X55942Y-27746D01*
X55935Y-27732D01*
X55928Y-27703D01*
X55928Y-27667D01*
X55935Y-27639D01*
X55942Y-27625D01*
X55950Y-27617D01*
X55964Y-27610D01*
G54D26*
X56404Y-29339D02*
X56344Y-29245D01*
X56301Y-29339D02*
X56301Y-29142D01*
X56370Y-29142D01*
X56387Y-29152D01*
X56395Y-29161D01*
X56404Y-29180D01*
X56404Y-29208D01*
X56395Y-29227D01*
X56387Y-29236D01*
X56370Y-29245D01*
X56301Y-29245D01*
X56472Y-29161D02*
X56481Y-29152D01*
X56498Y-29142D01*
X56541Y-29142D01*
X56558Y-29152D01*
X56567Y-29161D01*
X56575Y-29180D01*
X56575Y-29199D01*
X56567Y-29227D01*
X56464Y-29339D01*
X56575Y-29339D01*
X56661Y-29339D02*
X56695Y-29339D01*
X56712Y-29330D01*
X56721Y-29320D01*
X56738Y-29292D01*
X56747Y-29255D01*
X56747Y-29180D01*
X56738Y-29161D01*
X56730Y-29152D01*
X56712Y-29142D01*
X56678Y-29142D01*
X56661Y-29152D01*
X56652Y-29161D01*
X56644Y-29180D01*
X56644Y-29227D01*
X56652Y-29245D01*
X56661Y-29255D01*
X56678Y-29264D01*
X56712Y-29264D01*
X56730Y-29255D01*
X56738Y-29245D01*
X56747Y-29227D01*
G54D24*
X55871Y-28960D02*
X55785Y-28960D01*
X55828Y-28960D02*
X55828Y-28810D01*
X55814Y-28832D01*
X55800Y-28846D01*
X55785Y-28853D01*
X55964Y-28810D02*
X55978Y-28810D01*
X55992Y-28817D01*
X56000Y-28825D01*
X56007Y-28839D01*
X56014Y-28867D01*
X56014Y-28903D01*
X56007Y-28932D01*
X56000Y-28946D01*
X55992Y-28953D01*
X55978Y-28960D01*
X55964Y-28960D01*
X55950Y-28953D01*
X55942Y-28946D01*
X55935Y-28932D01*
X55928Y-28903D01*
X55928Y-28867D01*
X55935Y-28839D01*
X55942Y-28825D01*
X55950Y-28817D01*
X55964Y-28810D01*
G54D26*
X47779Y-30615D02*
X47685Y-30675D01*
X47779Y-30718D02*
X47582Y-30718D01*
X47582Y-30650D01*
X47592Y-30632D01*
X47601Y-30624D01*
X47620Y-30615D01*
X47648Y-30615D01*
X47667Y-30624D01*
X47676Y-30632D01*
X47685Y-30650D01*
X47685Y-30718D01*
X47582Y-30555D02*
X47582Y-30444D01*
X47657Y-30504D01*
X47657Y-30478D01*
X47667Y-30461D01*
X47676Y-30452D01*
X47695Y-30444D01*
X47742Y-30444D01*
X47760Y-30452D01*
X47770Y-30461D01*
X47779Y-30478D01*
X47779Y-30530D01*
X47770Y-30547D01*
X47760Y-30555D01*
X47582Y-30332D02*
X47582Y-30315D01*
X47592Y-30298D01*
X47601Y-30290D01*
X47620Y-30281D01*
X47657Y-30272D01*
X47704Y-30272D01*
X47742Y-30281D01*
X47760Y-30290D01*
X47770Y-30298D01*
X47779Y-30315D01*
X47779Y-30332D01*
X47770Y-30350D01*
X47760Y-30358D01*
X47742Y-30367D01*
X47704Y-30375D01*
X47657Y-30375D01*
X47620Y-30367D01*
X47601Y-30358D01*
X47592Y-30350D01*
X47582Y-30332D01*
G54D24*
X48050Y-30910D02*
X47964Y-30910D01*
X48007Y-30910D02*
X48007Y-30760D01*
X47992Y-30782D01*
X47978Y-30796D01*
X47964Y-30803D01*
X48142Y-30760D02*
X48157Y-30760D01*
X48171Y-30767D01*
X48178Y-30775D01*
X48185Y-30789D01*
X48192Y-30817D01*
X48192Y-30853D01*
X48185Y-30882D01*
X48178Y-30896D01*
X48171Y-30903D01*
X48157Y-30910D01*
X48142Y-30910D01*
X48128Y-30903D01*
X48121Y-30896D01*
X48114Y-30882D01*
X48107Y-30853D01*
X48107Y-30817D01*
X48114Y-30789D01*
X48121Y-30775D01*
X48128Y-30767D01*
X48142Y-30760D01*
X48285Y-30760D02*
X48300Y-30760D01*
X48314Y-30767D01*
X48321Y-30775D01*
X48328Y-30789D01*
X48335Y-30817D01*
X48335Y-30853D01*
X48328Y-30882D01*
X48321Y-30896D01*
X48314Y-30903D01*
X48300Y-30910D01*
X48285Y-30910D01*
X48271Y-30903D01*
X48264Y-30896D01*
X48257Y-30882D01*
X48250Y-30853D01*
X48250Y-30817D01*
X48257Y-30789D01*
X48264Y-30775D01*
X48271Y-30767D01*
X48285Y-30760D01*
G54D26*
X44979Y-27815D02*
X44885Y-27875D01*
X44979Y-27918D02*
X44782Y-27918D01*
X44782Y-27850D01*
X44792Y-27832D01*
X44801Y-27824D01*
X44820Y-27815D01*
X44848Y-27815D01*
X44867Y-27824D01*
X44876Y-27832D01*
X44885Y-27850D01*
X44885Y-27918D01*
X44801Y-27747D02*
X44792Y-27738D01*
X44782Y-27721D01*
X44782Y-27678D01*
X44792Y-27661D01*
X44801Y-27652D01*
X44820Y-27644D01*
X44839Y-27644D01*
X44867Y-27652D01*
X44979Y-27755D01*
X44979Y-27644D01*
X44848Y-27490D02*
X44979Y-27490D01*
X44773Y-27532D02*
X44914Y-27575D01*
X44914Y-27464D01*
G54D24*
X45196Y-27360D02*
X45110Y-27360D01*
X45153Y-27360D02*
X45153Y-27210D01*
X45139Y-27232D01*
X45125Y-27246D01*
X45110Y-27253D01*
X45289Y-27210D02*
X45303Y-27210D01*
X45317Y-27217D01*
X45325Y-27225D01*
X45332Y-27239D01*
X45339Y-27267D01*
X45339Y-27303D01*
X45332Y-27332D01*
X45325Y-27346D01*
X45317Y-27353D01*
X45303Y-27360D01*
X45289Y-27360D01*
X45275Y-27353D01*
X45267Y-27346D01*
X45260Y-27332D01*
X45253Y-27303D01*
X45253Y-27267D01*
X45260Y-27239D01*
X45267Y-27225D01*
X45275Y-27217D01*
X45289Y-27210D01*
X45403Y-27360D02*
X45403Y-27210D01*
X45489Y-27360D02*
X45425Y-27275D01*
X45489Y-27210D02*
X45403Y-27296D01*
G54D26*
X51432Y-26679D02*
X51372Y-26585D01*
X51329Y-26679D02*
X51329Y-26482D01*
X51398Y-26482D01*
X51415Y-26492D01*
X51423Y-26501D01*
X51432Y-26520D01*
X51432Y-26548D01*
X51423Y-26567D01*
X51415Y-26576D01*
X51398Y-26585D01*
X51329Y-26585D01*
X51500Y-26501D02*
X51509Y-26492D01*
X51526Y-26482D01*
X51569Y-26482D01*
X51586Y-26492D01*
X51595Y-26501D01*
X51603Y-26520D01*
X51603Y-26539D01*
X51595Y-26567D01*
X51492Y-26679D01*
X51603Y-26679D01*
X51672Y-26501D02*
X51680Y-26492D01*
X51698Y-26482D01*
X51740Y-26482D01*
X51758Y-26492D01*
X51766Y-26501D01*
X51775Y-26520D01*
X51775Y-26539D01*
X51766Y-26567D01*
X51663Y-26679D01*
X51775Y-26679D01*
G54D24*
X50910Y-26232D02*
X50910Y-26317D01*
X50910Y-26274D02*
X50760Y-26274D01*
X50782Y-26289D01*
X50796Y-26303D01*
X50803Y-26317D01*
X50910Y-26167D02*
X50760Y-26167D01*
X50910Y-26082D02*
X50825Y-26146D01*
X50760Y-26082D02*
X50846Y-26167D01*
G54D18*
X58726Y-36316D02*
X58969Y-36316D01*
X58997Y-36302D01*
X59012Y-36287D01*
X59026Y-36259D01*
X59026Y-36202D01*
X59012Y-36173D01*
X58997Y-36159D01*
X58969Y-36145D01*
X58726Y-36145D01*
X59026Y-35845D02*
X59026Y-36016D01*
X59026Y-35930D02*
X58726Y-35930D01*
X58769Y-35959D01*
X58797Y-35987D01*
X58812Y-36016D01*
X58726Y-35659D02*
X58726Y-35630D01*
X58740Y-35602D01*
X58755Y-35587D01*
X58783Y-35573D01*
X58840Y-35559D01*
X58912Y-35559D01*
X58969Y-35573D01*
X58997Y-35587D01*
X59012Y-35602D01*
X59026Y-35630D01*
X59026Y-35659D01*
X59012Y-35687D01*
X58997Y-35702D01*
X58969Y-35716D01*
X58912Y-35730D01*
X58840Y-35730D01*
X58783Y-35716D01*
X58755Y-35702D01*
X58740Y-35687D01*
X58726Y-35659D01*
X59301Y-35460D02*
X59051Y-35460D01*
X59229Y-35377D01*
X59051Y-35294D01*
X59301Y-35294D01*
X59229Y-35186D02*
X59229Y-35067D01*
X59301Y-35210D02*
X59051Y-35127D01*
X59301Y-35044D01*
X59051Y-34984D02*
X59301Y-34817D01*
X59051Y-34817D02*
X59301Y-34984D01*
X59051Y-34603D02*
X59051Y-34722D01*
X59170Y-34734D01*
X59158Y-34722D01*
X59146Y-34698D01*
X59146Y-34639D01*
X59158Y-34615D01*
X59170Y-34603D01*
X59194Y-34591D01*
X59253Y-34591D01*
X59277Y-34603D01*
X59289Y-34615D01*
X59301Y-34639D01*
X59301Y-34698D01*
X59289Y-34722D01*
X59277Y-34734D01*
X59051Y-34436D02*
X59051Y-34413D01*
X59063Y-34389D01*
X59075Y-34377D01*
X59098Y-34365D01*
X59146Y-34353D01*
X59205Y-34353D01*
X59253Y-34365D01*
X59277Y-34377D01*
X59289Y-34389D01*
X59301Y-34413D01*
X59301Y-34436D01*
X59289Y-34460D01*
X59277Y-34472D01*
X59253Y-34484D01*
X59205Y-34496D01*
X59146Y-34496D01*
X59098Y-34484D01*
X59075Y-34472D01*
X59063Y-34460D01*
X59051Y-34436D01*
X59051Y-34270D02*
X59051Y-34115D01*
X59146Y-34198D01*
X59146Y-34163D01*
X59158Y-34139D01*
X59170Y-34127D01*
X59194Y-34115D01*
X59253Y-34115D01*
X59277Y-34127D01*
X59289Y-34139D01*
X59301Y-34163D01*
X59301Y-34234D01*
X59289Y-34258D01*
X59277Y-34270D01*
X59051Y-34032D02*
X59051Y-33877D01*
X59146Y-33960D01*
X59146Y-33925D01*
X59158Y-33901D01*
X59170Y-33889D01*
X59194Y-33877D01*
X59253Y-33877D01*
X59277Y-33889D01*
X59289Y-33901D01*
X59301Y-33925D01*
X59301Y-33996D01*
X59289Y-34020D01*
X59277Y-34032D01*
X59301Y-33770D02*
X59051Y-33770D01*
X59051Y-33710D01*
X59063Y-33675D01*
X59086Y-33651D01*
X59110Y-33639D01*
X59158Y-33627D01*
X59194Y-33627D01*
X59241Y-33639D01*
X59265Y-33651D01*
X59289Y-33675D01*
X59301Y-33710D01*
X59301Y-33770D01*
G54D25*
X40947Y-25700D02*
X40937Y-25710D01*
X40909Y-25719D01*
X40890Y-25719D01*
X40862Y-25710D01*
X40843Y-25691D01*
X40834Y-25672D01*
X40825Y-25635D01*
X40825Y-25607D01*
X40834Y-25569D01*
X40843Y-25550D01*
X40862Y-25532D01*
X40890Y-25522D01*
X40909Y-25522D01*
X40937Y-25532D01*
X40947Y-25541D01*
X41040Y-25719D02*
X41078Y-25719D01*
X41097Y-25710D01*
X41106Y-25700D01*
X41125Y-25672D01*
X41134Y-25635D01*
X41134Y-25560D01*
X41125Y-25541D01*
X41116Y-25532D01*
X41097Y-25522D01*
X41059Y-25522D01*
X41040Y-25532D01*
X41031Y-25541D01*
X41022Y-25560D01*
X41022Y-25607D01*
X41031Y-25625D01*
X41040Y-25635D01*
X41059Y-25644D01*
X41097Y-25644D01*
X41116Y-25635D01*
X41125Y-25625D01*
X41134Y-25607D01*
G54D24*
X40767Y-24860D02*
X40682Y-24860D01*
X40725Y-24860D02*
X40725Y-24710D01*
X40710Y-24732D01*
X40696Y-24746D01*
X40682Y-24753D01*
X40860Y-24710D02*
X40875Y-24710D01*
X40889Y-24717D01*
X40896Y-24725D01*
X40903Y-24739D01*
X40910Y-24767D01*
X40910Y-24803D01*
X40903Y-24832D01*
X40896Y-24846D01*
X40889Y-24853D01*
X40875Y-24860D01*
X40860Y-24860D01*
X40846Y-24853D01*
X40839Y-24846D01*
X40832Y-24832D01*
X40825Y-24803D01*
X40825Y-24767D01*
X40832Y-24739D01*
X40839Y-24725D01*
X40846Y-24717D01*
X40860Y-24710D01*
X41003Y-24710D02*
X41017Y-24710D01*
X41032Y-24717D01*
X41039Y-24725D01*
X41046Y-24739D01*
X41053Y-24767D01*
X41053Y-24803D01*
X41046Y-24832D01*
X41039Y-24846D01*
X41032Y-24853D01*
X41017Y-24860D01*
X41003Y-24860D01*
X40989Y-24853D01*
X40982Y-24846D01*
X40975Y-24832D01*
X40967Y-24803D01*
X40967Y-24767D01*
X40975Y-24739D01*
X40982Y-24725D01*
X40989Y-24717D01*
X41003Y-24710D01*
X41117Y-24760D02*
X41117Y-24860D01*
X41117Y-24775D02*
X41125Y-24767D01*
X41139Y-24760D01*
X41160Y-24760D01*
X41175Y-24767D01*
X41182Y-24782D01*
X41182Y-24860D01*
X41303Y-24782D02*
X41253Y-24782D01*
X41253Y-24860D02*
X41253Y-24710D01*
X41325Y-24710D01*
G54D26*
X37684Y-33979D02*
X37624Y-33885D01*
X37581Y-33979D02*
X37581Y-33782D01*
X37650Y-33782D01*
X37667Y-33792D01*
X37675Y-33801D01*
X37684Y-33820D01*
X37684Y-33848D01*
X37675Y-33867D01*
X37667Y-33876D01*
X37650Y-33885D01*
X37581Y-33885D01*
X37744Y-33782D02*
X37855Y-33782D01*
X37795Y-33857D01*
X37821Y-33857D01*
X37838Y-33867D01*
X37847Y-33876D01*
X37855Y-33895D01*
X37855Y-33942D01*
X37847Y-33960D01*
X37838Y-33970D01*
X37821Y-33979D01*
X37770Y-33979D01*
X37752Y-33970D01*
X37744Y-33960D01*
X38018Y-33782D02*
X37932Y-33782D01*
X37924Y-33876D01*
X37932Y-33867D01*
X37950Y-33857D01*
X37992Y-33857D01*
X38010Y-33867D01*
X38018Y-33876D01*
X38027Y-33895D01*
X38027Y-33942D01*
X38018Y-33960D01*
X38010Y-33970D01*
X37992Y-33979D01*
X37950Y-33979D01*
X37932Y-33970D01*
X37924Y-33960D01*
G54D24*
X38460Y-33503D02*
X38460Y-33589D01*
X38460Y-33546D02*
X38310Y-33546D01*
X38332Y-33560D01*
X38346Y-33575D01*
X38353Y-33589D01*
X38310Y-33410D02*
X38310Y-33396D01*
X38317Y-33382D01*
X38325Y-33375D01*
X38339Y-33367D01*
X38367Y-33360D01*
X38403Y-33360D01*
X38432Y-33367D01*
X38446Y-33375D01*
X38453Y-33382D01*
X38460Y-33396D01*
X38460Y-33410D01*
X38453Y-33425D01*
X38446Y-33432D01*
X38432Y-33439D01*
X38403Y-33446D01*
X38367Y-33446D01*
X38339Y-33439D01*
X38325Y-33432D01*
X38317Y-33425D01*
X38310Y-33410D01*
X38460Y-33296D02*
X38310Y-33296D01*
X38460Y-33210D02*
X38375Y-33275D01*
X38310Y-33210D02*
X38396Y-33296D01*
G54D26*
X41770Y-20629D02*
X41710Y-20535D01*
X41667Y-20629D02*
X41667Y-20432D01*
X41735Y-20432D01*
X41752Y-20442D01*
X41761Y-20451D01*
X41770Y-20470D01*
X41770Y-20498D01*
X41761Y-20517D01*
X41752Y-20526D01*
X41735Y-20535D01*
X41667Y-20535D01*
X41838Y-20451D02*
X41847Y-20442D01*
X41864Y-20432D01*
X41907Y-20432D01*
X41924Y-20442D01*
X41932Y-20451D01*
X41941Y-20470D01*
X41941Y-20489D01*
X41932Y-20517D01*
X41830Y-20629D01*
X41941Y-20629D01*
G54D24*
X41771Y-21260D02*
X41685Y-21260D01*
X41728Y-21260D02*
X41728Y-21110D01*
X41714Y-21132D01*
X41700Y-21146D01*
X41685Y-21153D01*
X41864Y-21110D02*
X41878Y-21110D01*
X41892Y-21117D01*
X41900Y-21125D01*
X41907Y-21139D01*
X41914Y-21167D01*
X41914Y-21203D01*
X41907Y-21232D01*
X41900Y-21246D01*
X41892Y-21253D01*
X41878Y-21260D01*
X41864Y-21260D01*
X41850Y-21253D01*
X41842Y-21246D01*
X41835Y-21232D01*
X41828Y-21203D01*
X41828Y-21167D01*
X41835Y-21139D01*
X41842Y-21125D01*
X41850Y-21117D01*
X41864Y-21110D01*
G54D14*
X56447Y-38620D02*
X56561Y-38620D01*
X56504Y-38820D02*
X56504Y-38620D01*
X56628Y-38820D02*
X56628Y-38620D01*
X56704Y-38620D01*
X56723Y-38630D01*
X56733Y-38640D01*
X56742Y-38659D01*
X56742Y-38687D01*
X56733Y-38706D01*
X56723Y-38716D01*
X56704Y-38725D01*
X56628Y-38725D01*
X56933Y-38820D02*
X56819Y-38820D01*
X56876Y-38820D02*
X56876Y-38620D01*
X56857Y-38649D01*
X56838Y-38668D01*
X56819Y-38678D01*
G54D18*
X52771Y-28731D02*
X52771Y-28974D01*
X52785Y-29002D01*
X52800Y-29017D01*
X52828Y-29031D01*
X52885Y-29031D01*
X52914Y-29017D01*
X52928Y-29002D01*
X52942Y-28974D01*
X52942Y-28731D01*
X53057Y-28731D02*
X53257Y-28731D01*
X53128Y-29031D01*
X53736Y-28878D02*
X53736Y-28628D01*
X53820Y-28806D01*
X53903Y-28628D01*
X53903Y-28878D01*
X54022Y-28878D02*
X54022Y-28628D01*
X54284Y-28854D02*
X54272Y-28866D01*
X54236Y-28878D01*
X54213Y-28878D01*
X54177Y-28866D01*
X54153Y-28842D01*
X54141Y-28818D01*
X54129Y-28771D01*
X54129Y-28735D01*
X54141Y-28687D01*
X54153Y-28663D01*
X54177Y-28640D01*
X54213Y-28628D01*
X54236Y-28628D01*
X54272Y-28640D01*
X54284Y-28652D01*
X54498Y-28711D02*
X54498Y-28878D01*
X54439Y-28616D02*
X54379Y-28794D01*
X54534Y-28794D01*
X54736Y-28628D02*
X54689Y-28628D01*
X54665Y-28640D01*
X54653Y-28652D01*
X54629Y-28687D01*
X54617Y-28735D01*
X54617Y-28830D01*
X54629Y-28854D01*
X54641Y-28866D01*
X54665Y-28878D01*
X54713Y-28878D01*
X54736Y-28866D01*
X54748Y-28854D01*
X54760Y-28830D01*
X54760Y-28771D01*
X54748Y-28747D01*
X54736Y-28735D01*
X54713Y-28723D01*
X54665Y-28723D01*
X54641Y-28735D01*
X54629Y-28747D01*
X54617Y-28771D01*
X54915Y-28628D02*
X54939Y-28628D01*
X54963Y-28640D01*
X54975Y-28652D01*
X54986Y-28675D01*
X54998Y-28723D01*
X54998Y-28782D01*
X54986Y-28830D01*
X54975Y-28854D01*
X54963Y-28866D01*
X54939Y-28878D01*
X54915Y-28878D01*
X54891Y-28866D01*
X54879Y-28854D01*
X54867Y-28830D01*
X54856Y-28782D01*
X54856Y-28723D01*
X54867Y-28675D01*
X54879Y-28652D01*
X54891Y-28640D01*
X54915Y-28628D01*
X55213Y-28711D02*
X55213Y-28878D01*
X55153Y-28616D02*
X55094Y-28794D01*
X55248Y-28794D01*
G54D14*
X45747Y-22680D02*
X45747Y-22842D01*
X45757Y-22861D01*
X45766Y-22871D01*
X45785Y-22880D01*
X45823Y-22880D01*
X45842Y-22871D01*
X45852Y-22861D01*
X45861Y-22842D01*
X45861Y-22680D01*
X45947Y-22700D02*
X45957Y-22690D01*
X45976Y-22680D01*
X46023Y-22680D01*
X46042Y-22690D01*
X46052Y-22700D01*
X46061Y-22719D01*
X46061Y-22738D01*
X46052Y-22766D01*
X45938Y-22880D01*
X46061Y-22880D01*
G54D24*
X44382Y-23500D02*
X44382Y-23350D01*
X44454Y-23500D02*
X44454Y-23350D01*
X44540Y-23500D01*
X44540Y-23350D01*
X44604Y-23457D02*
X44675Y-23457D01*
X44590Y-23500D02*
X44640Y-23350D01*
X44690Y-23500D01*
X44732Y-23365D02*
X44740Y-23357D01*
X44754Y-23350D01*
X44790Y-23350D01*
X44804Y-23357D01*
X44811Y-23365D01*
X44818Y-23379D01*
X44818Y-23393D01*
X44811Y-23415D01*
X44725Y-23500D01*
X44818Y-23500D01*
X44904Y-23415D02*
X44890Y-23407D01*
X44882Y-23400D01*
X44875Y-23386D01*
X44875Y-23379D01*
X44882Y-23365D01*
X44890Y-23357D01*
X44904Y-23350D01*
X44932Y-23350D01*
X44947Y-23357D01*
X44954Y-23365D01*
X44961Y-23379D01*
X44961Y-23386D01*
X44954Y-23400D01*
X44947Y-23407D01*
X44932Y-23415D01*
X44904Y-23415D01*
X44890Y-23422D01*
X44882Y-23429D01*
X44875Y-23443D01*
X44875Y-23472D01*
X44882Y-23486D01*
X44890Y-23493D01*
X44904Y-23500D01*
X44932Y-23500D01*
X44947Y-23493D01*
X44954Y-23486D01*
X44961Y-23472D01*
X44961Y-23443D01*
X44954Y-23429D01*
X44947Y-23422D01*
X44932Y-23415D01*
X45018Y-23365D02*
X45025Y-23357D01*
X45040Y-23350D01*
X45075Y-23350D01*
X45090Y-23357D01*
X45097Y-23365D01*
X45104Y-23379D01*
X45104Y-23393D01*
X45097Y-23415D01*
X45011Y-23500D01*
X45104Y-23500D01*
G54D26*
X39984Y-33979D02*
X39924Y-33885D01*
X39881Y-33979D02*
X39881Y-33782D01*
X39950Y-33782D01*
X39967Y-33792D01*
X39975Y-33801D01*
X39984Y-33820D01*
X39984Y-33848D01*
X39975Y-33867D01*
X39967Y-33876D01*
X39950Y-33885D01*
X39881Y-33885D01*
X40044Y-33782D02*
X40155Y-33782D01*
X40095Y-33857D01*
X40121Y-33857D01*
X40138Y-33867D01*
X40147Y-33876D01*
X40155Y-33895D01*
X40155Y-33942D01*
X40147Y-33960D01*
X40138Y-33970D01*
X40121Y-33979D01*
X40070Y-33979D01*
X40052Y-33970D01*
X40044Y-33960D01*
X40215Y-33782D02*
X40335Y-33782D01*
X40258Y-33979D01*
G54D24*
X39660Y-33503D02*
X39660Y-33589D01*
X39660Y-33546D02*
X39510Y-33546D01*
X39532Y-33560D01*
X39546Y-33575D01*
X39553Y-33589D01*
X39510Y-33410D02*
X39510Y-33396D01*
X39517Y-33382D01*
X39525Y-33375D01*
X39539Y-33367D01*
X39567Y-33360D01*
X39603Y-33360D01*
X39632Y-33367D01*
X39646Y-33375D01*
X39653Y-33382D01*
X39660Y-33396D01*
X39660Y-33410D01*
X39653Y-33425D01*
X39646Y-33432D01*
X39632Y-33439D01*
X39603Y-33446D01*
X39567Y-33446D01*
X39539Y-33439D01*
X39525Y-33432D01*
X39517Y-33425D01*
X39510Y-33410D01*
X39660Y-33296D02*
X39510Y-33296D01*
X39660Y-33210D02*
X39575Y-33275D01*
X39510Y-33210D02*
X39596Y-33296D01*
G54D14*
X37957Y-23520D02*
X37957Y-23682D01*
X37967Y-23701D01*
X37976Y-23711D01*
X37995Y-23720D01*
X38033Y-23720D01*
X38052Y-23711D01*
X38062Y-23701D01*
X38071Y-23682D01*
X38071Y-23520D01*
X38148Y-23520D02*
X38271Y-23520D01*
X38205Y-23597D01*
X38233Y-23597D01*
X38252Y-23606D01*
X38262Y-23616D01*
X38271Y-23635D01*
X38271Y-23682D01*
X38262Y-23701D01*
X38252Y-23711D01*
X38233Y-23720D01*
X38176Y-23720D01*
X38157Y-23711D01*
X38148Y-23701D01*
G54D24*
X38792Y-24060D02*
X38792Y-23910D01*
X38864Y-24060D02*
X38864Y-23910D01*
X38950Y-24060D01*
X38950Y-23910D01*
X39014Y-24017D02*
X39085Y-24017D01*
X39000Y-24060D02*
X39050Y-23910D01*
X39100Y-24060D01*
X39142Y-23925D02*
X39150Y-23917D01*
X39164Y-23910D01*
X39200Y-23910D01*
X39214Y-23917D01*
X39221Y-23925D01*
X39228Y-23939D01*
X39228Y-23953D01*
X39221Y-23975D01*
X39135Y-24060D01*
X39228Y-24060D01*
X39285Y-23925D02*
X39292Y-23917D01*
X39307Y-23910D01*
X39342Y-23910D01*
X39357Y-23917D01*
X39364Y-23925D01*
X39371Y-23939D01*
X39371Y-23953D01*
X39364Y-23975D01*
X39278Y-24060D01*
X39371Y-24060D01*
X39500Y-23910D02*
X39471Y-23910D01*
X39457Y-23917D01*
X39450Y-23925D01*
X39435Y-23946D01*
X39428Y-23975D01*
X39428Y-24032D01*
X39435Y-24046D01*
X39442Y-24053D01*
X39457Y-24060D01*
X39485Y-24060D01*
X39500Y-24053D01*
X39507Y-24046D01*
X39514Y-24032D01*
X39514Y-23996D01*
X39507Y-23982D01*
X39500Y-23975D01*
X39485Y-23967D01*
X39457Y-23967D01*
X39442Y-23975D01*
X39435Y-23982D01*
X39428Y-23996D01*
G54D26*
X42134Y-24229D02*
X42074Y-24135D01*
X42031Y-24229D02*
X42031Y-24032D01*
X42100Y-24032D01*
X42117Y-24042D01*
X42125Y-24051D01*
X42134Y-24070D01*
X42134Y-24098D01*
X42125Y-24117D01*
X42117Y-24126D01*
X42100Y-24135D01*
X42031Y-24135D01*
X42305Y-24229D02*
X42202Y-24229D01*
X42254Y-24229D02*
X42254Y-24032D01*
X42237Y-24060D01*
X42220Y-24079D01*
X42202Y-24089D01*
X42477Y-24229D02*
X42374Y-24229D01*
X42425Y-24229D02*
X42425Y-24032D01*
X42408Y-24060D01*
X42391Y-24079D01*
X42374Y-24089D01*
G54D24*
X41989Y-23400D02*
X41996Y-23392D01*
X42010Y-23385D01*
X42046Y-23385D01*
X42060Y-23392D01*
X42067Y-23400D01*
X42075Y-23414D01*
X42075Y-23428D01*
X42067Y-23450D01*
X41982Y-23535D01*
X42075Y-23535D01*
X42132Y-23400D02*
X42139Y-23392D01*
X42153Y-23385D01*
X42189Y-23385D01*
X42203Y-23392D01*
X42210Y-23400D01*
X42217Y-23414D01*
X42217Y-23428D01*
X42210Y-23450D01*
X42125Y-23535D01*
X42217Y-23535D01*
X42360Y-23535D02*
X42275Y-23535D01*
X42317Y-23535D02*
X42317Y-23385D01*
X42303Y-23407D01*
X42289Y-23421D01*
X42275Y-23428D01*
G54D26*
X42594Y-25189D02*
X42534Y-25095D01*
X42491Y-25189D02*
X42491Y-24992D01*
X42560Y-24992D01*
X42577Y-25002D01*
X42585Y-25011D01*
X42594Y-25030D01*
X42594Y-25058D01*
X42585Y-25077D01*
X42577Y-25086D01*
X42560Y-25095D01*
X42491Y-25095D01*
X42765Y-25189D02*
X42662Y-25189D01*
X42714Y-25189D02*
X42714Y-24992D01*
X42697Y-25020D01*
X42680Y-25039D01*
X42662Y-25049D01*
X42928Y-24992D02*
X42842Y-24992D01*
X42834Y-25086D01*
X42842Y-25077D01*
X42860Y-25067D01*
X42902Y-25067D01*
X42920Y-25077D01*
X42928Y-25086D01*
X42937Y-25105D01*
X42937Y-25152D01*
X42928Y-25170D01*
X42920Y-25180D01*
X42902Y-25189D01*
X42860Y-25189D01*
X42842Y-25180D01*
X42834Y-25170D01*
G54D24*
X42660Y-24825D02*
X42760Y-24825D01*
X42603Y-24860D02*
X42710Y-24896D01*
X42710Y-24803D01*
X42746Y-24746D02*
X42753Y-24739D01*
X42760Y-24746D01*
X42753Y-24753D01*
X42746Y-24746D01*
X42760Y-24746D01*
X42760Y-24667D02*
X42760Y-24639D01*
X42753Y-24625D01*
X42746Y-24617D01*
X42725Y-24603D01*
X42696Y-24596D01*
X42639Y-24596D01*
X42625Y-24603D01*
X42617Y-24610D01*
X42610Y-24625D01*
X42610Y-24653D01*
X42617Y-24667D01*
X42625Y-24675D01*
X42639Y-24682D01*
X42675Y-24682D01*
X42689Y-24675D01*
X42696Y-24667D01*
X42703Y-24653D01*
X42703Y-24625D01*
X42696Y-24610D01*
X42689Y-24603D01*
X42675Y-24596D01*
X42760Y-24525D02*
X42760Y-24496D01*
X42753Y-24482D01*
X42746Y-24475D01*
X42725Y-24460D01*
X42696Y-24453D01*
X42639Y-24453D01*
X42625Y-24460D01*
X42617Y-24467D01*
X42610Y-24482D01*
X42610Y-24510D01*
X42617Y-24525D01*
X42625Y-24532D01*
X42639Y-24539D01*
X42675Y-24539D01*
X42689Y-24532D01*
X42696Y-24525D01*
X42703Y-24510D01*
X42703Y-24482D01*
X42696Y-24467D01*
X42689Y-24460D01*
X42675Y-24453D01*
X42760Y-24389D02*
X42610Y-24389D01*
X42760Y-24303D02*
X42675Y-24367D01*
X42610Y-24303D02*
X42696Y-24389D01*
G54D26*
X41674Y-25499D02*
X41614Y-25405D01*
X41571Y-25499D02*
X41571Y-25302D01*
X41640Y-25302D01*
X41657Y-25312D01*
X41665Y-25321D01*
X41674Y-25340D01*
X41674Y-25368D01*
X41665Y-25387D01*
X41657Y-25396D01*
X41640Y-25405D01*
X41571Y-25405D01*
X41845Y-25499D02*
X41742Y-25499D01*
X41794Y-25499D02*
X41794Y-25302D01*
X41777Y-25330D01*
X41760Y-25349D01*
X41742Y-25359D01*
X42000Y-25368D02*
X42000Y-25499D01*
X41957Y-25293D02*
X41914Y-25434D01*
X42025Y-25434D01*
G54D24*
X41575Y-24760D02*
X41575Y-24860D01*
X41539Y-24703D02*
X41503Y-24810D01*
X41596Y-24810D01*
X41653Y-24846D02*
X41660Y-24853D01*
X41653Y-24860D01*
X41646Y-24853D01*
X41653Y-24846D01*
X41653Y-24860D01*
X41732Y-24860D02*
X41760Y-24860D01*
X41775Y-24853D01*
X41782Y-24846D01*
X41796Y-24825D01*
X41803Y-24796D01*
X41803Y-24739D01*
X41796Y-24725D01*
X41789Y-24717D01*
X41775Y-24710D01*
X41746Y-24710D01*
X41732Y-24717D01*
X41725Y-24725D01*
X41717Y-24739D01*
X41717Y-24775D01*
X41725Y-24789D01*
X41732Y-24796D01*
X41746Y-24803D01*
X41775Y-24803D01*
X41789Y-24796D01*
X41796Y-24789D01*
X41803Y-24775D01*
X41875Y-24860D02*
X41903Y-24860D01*
X41917Y-24853D01*
X41925Y-24846D01*
X41939Y-24825D01*
X41946Y-24796D01*
X41946Y-24739D01*
X41939Y-24725D01*
X41932Y-24717D01*
X41917Y-24710D01*
X41889Y-24710D01*
X41875Y-24717D01*
X41867Y-24725D01*
X41860Y-24739D01*
X41860Y-24775D01*
X41867Y-24789D01*
X41875Y-24796D01*
X41889Y-24803D01*
X41917Y-24803D01*
X41932Y-24796D01*
X41939Y-24789D01*
X41946Y-24775D01*
X42010Y-24860D02*
X42010Y-24710D01*
X42096Y-24860D02*
X42032Y-24775D01*
X42096Y-24710D02*
X42010Y-24796D01*
G54D25*
X36367Y-20779D02*
X36301Y-20685D01*
X36254Y-20779D02*
X36254Y-20582D01*
X36329Y-20582D01*
X36348Y-20592D01*
X36357Y-20601D01*
X36367Y-20620D01*
X36367Y-20648D01*
X36357Y-20667D01*
X36348Y-20676D01*
X36329Y-20685D01*
X36254Y-20685D01*
X36554Y-20779D02*
X36442Y-20779D01*
X36498Y-20779D02*
X36498Y-20582D01*
X36479Y-20610D01*
X36460Y-20629D01*
X36442Y-20639D01*
G54D24*
X35032Y-20410D02*
X35125Y-20410D01*
X35075Y-20467D01*
X35096Y-20467D01*
X35110Y-20475D01*
X35117Y-20482D01*
X35125Y-20496D01*
X35125Y-20532D01*
X35117Y-20546D01*
X35110Y-20553D01*
X35096Y-20560D01*
X35053Y-20560D01*
X35039Y-20553D01*
X35032Y-20546D01*
X35217Y-20410D02*
X35232Y-20410D01*
X35246Y-20417D01*
X35253Y-20425D01*
X35260Y-20439D01*
X35267Y-20467D01*
X35267Y-20503D01*
X35260Y-20532D01*
X35253Y-20546D01*
X35246Y-20553D01*
X35232Y-20560D01*
X35217Y-20560D01*
X35203Y-20553D01*
X35196Y-20546D01*
X35189Y-20532D01*
X35182Y-20503D01*
X35182Y-20467D01*
X35189Y-20439D01*
X35196Y-20425D01*
X35203Y-20417D01*
X35217Y-20410D01*
X35332Y-20560D02*
X35332Y-20410D01*
X35417Y-20560D02*
X35353Y-20475D01*
X35417Y-20410D02*
X35332Y-20496D01*
X35625Y-20410D02*
X35639Y-20410D01*
X35653Y-20417D01*
X35660Y-20425D01*
X35667Y-20439D01*
X35675Y-20467D01*
X35675Y-20503D01*
X35667Y-20532D01*
X35660Y-20546D01*
X35653Y-20553D01*
X35639Y-20560D01*
X35625Y-20560D01*
X35610Y-20553D01*
X35603Y-20546D01*
X35596Y-20532D01*
X35589Y-20503D01*
X35589Y-20467D01*
X35596Y-20439D01*
X35603Y-20425D01*
X35610Y-20417D01*
X35625Y-20410D01*
X35739Y-20546D02*
X35746Y-20553D01*
X35739Y-20560D01*
X35732Y-20553D01*
X35739Y-20546D01*
X35739Y-20560D01*
X35889Y-20560D02*
X35803Y-20560D01*
X35846Y-20560D02*
X35846Y-20410D01*
X35832Y-20432D01*
X35817Y-20446D01*
X35803Y-20453D01*
X35946Y-20560D02*
X36060Y-20410D01*
X35967Y-20410D02*
X35982Y-20417D01*
X35989Y-20432D01*
X35982Y-20446D01*
X35967Y-20453D01*
X35953Y-20446D01*
X35946Y-20432D01*
X35953Y-20417D01*
X35967Y-20410D01*
X36053Y-20553D02*
X36060Y-20539D01*
X36053Y-20525D01*
X36039Y-20517D01*
X36025Y-20525D01*
X36017Y-20539D01*
X36025Y-20553D01*
X36039Y-20560D01*
X36053Y-20553D01*
G54D25*
X36267Y-22079D02*
X36201Y-21985D01*
X36154Y-22079D02*
X36154Y-21882D01*
X36229Y-21882D01*
X36248Y-21892D01*
X36257Y-21901D01*
X36267Y-21920D01*
X36267Y-21948D01*
X36257Y-21967D01*
X36248Y-21976D01*
X36229Y-21985D01*
X36154Y-21985D01*
X36445Y-21882D02*
X36351Y-21882D01*
X36342Y-21976D01*
X36351Y-21967D01*
X36370Y-21957D01*
X36417Y-21957D01*
X36436Y-21967D01*
X36445Y-21976D01*
X36454Y-21995D01*
X36454Y-22042D01*
X36445Y-22060D01*
X36436Y-22070D01*
X36417Y-22079D01*
X36370Y-22079D01*
X36351Y-22070D01*
X36342Y-22060D01*
G54D24*
X35325Y-22260D02*
X35317Y-22253D01*
X35310Y-22239D01*
X35310Y-22203D01*
X35317Y-22189D01*
X35325Y-22182D01*
X35339Y-22175D01*
X35353Y-22175D01*
X35375Y-22182D01*
X35460Y-22267D01*
X35460Y-22175D01*
X35310Y-22082D02*
X35310Y-22067D01*
X35317Y-22053D01*
X35325Y-22046D01*
X35339Y-22039D01*
X35367Y-22032D01*
X35403Y-22032D01*
X35432Y-22039D01*
X35446Y-22046D01*
X35453Y-22053D01*
X35460Y-22067D01*
X35460Y-22082D01*
X35453Y-22096D01*
X35446Y-22103D01*
X35432Y-22110D01*
X35403Y-22117D01*
X35367Y-22117D01*
X35339Y-22110D01*
X35325Y-22103D01*
X35317Y-22096D01*
X35310Y-22082D01*
X35460Y-21967D02*
X35310Y-21967D01*
X35460Y-21882D02*
X35375Y-21946D01*
X35310Y-21882D02*
X35396Y-21967D01*
X35310Y-21675D02*
X35310Y-21660D01*
X35317Y-21646D01*
X35325Y-21639D01*
X35339Y-21632D01*
X35367Y-21625D01*
X35403Y-21625D01*
X35432Y-21632D01*
X35446Y-21639D01*
X35453Y-21646D01*
X35460Y-21660D01*
X35460Y-21675D01*
X35453Y-21689D01*
X35446Y-21696D01*
X35432Y-21703D01*
X35403Y-21710D01*
X35367Y-21710D01*
X35339Y-21703D01*
X35325Y-21696D01*
X35317Y-21689D01*
X35310Y-21675D01*
X35446Y-21560D02*
X35453Y-21553D01*
X35460Y-21560D01*
X35453Y-21567D01*
X35446Y-21560D01*
X35460Y-21560D01*
X35460Y-21410D02*
X35460Y-21496D01*
X35460Y-21453D02*
X35310Y-21453D01*
X35332Y-21467D01*
X35346Y-21482D01*
X35353Y-21496D01*
X35460Y-21353D02*
X35310Y-21239D01*
X35310Y-21332D02*
X35317Y-21317D01*
X35332Y-21310D01*
X35346Y-21317D01*
X35353Y-21332D01*
X35346Y-21346D01*
X35332Y-21353D01*
X35317Y-21346D01*
X35310Y-21332D01*
X35453Y-21246D02*
X35439Y-21239D01*
X35425Y-21246D01*
X35417Y-21260D01*
X35425Y-21275D01*
X35439Y-21282D01*
X35453Y-21275D01*
X35460Y-21260D01*
X35453Y-21246D01*
G54D18*
X38607Y-31821D02*
X38607Y-31521D01*
X38735Y-31550D02*
X38750Y-31535D01*
X38778Y-31521D01*
X38850Y-31521D01*
X38878Y-31535D01*
X38892Y-31550D01*
X38907Y-31578D01*
X38907Y-31607D01*
X38892Y-31650D01*
X38721Y-31821D01*
X38907Y-31821D01*
X39207Y-31792D02*
X39192Y-31807D01*
X39150Y-31821D01*
X39121Y-31821D01*
X39078Y-31807D01*
X39050Y-31778D01*
X39035Y-31750D01*
X39021Y-31692D01*
X39021Y-31650D01*
X39035Y-31592D01*
X39050Y-31564D01*
X39078Y-31535D01*
X39121Y-31521D01*
X39150Y-31521D01*
X39192Y-31535D01*
X39207Y-31550D01*
G54D25*
X51473Y-33010D02*
X51463Y-33020D01*
X51435Y-33029D01*
X51417Y-33029D01*
X51388Y-33020D01*
X51370Y-33001D01*
X51360Y-32982D01*
X51351Y-32945D01*
X51351Y-32917D01*
X51360Y-32879D01*
X51370Y-32860D01*
X51388Y-32842D01*
X51417Y-32832D01*
X51435Y-32832D01*
X51463Y-32842D01*
X51473Y-32851D01*
X51548Y-32851D02*
X51557Y-32842D01*
X51576Y-32832D01*
X51623Y-32832D01*
X51642Y-32842D01*
X51651Y-32851D01*
X51660Y-32870D01*
X51660Y-32889D01*
X51651Y-32917D01*
X51539Y-33029D01*
X51660Y-33029D01*
X51848Y-33029D02*
X51736Y-33029D01*
X51792Y-33029D02*
X51792Y-32832D01*
X51773Y-32860D01*
X51754Y-32879D01*
X51736Y-32889D01*
G54D24*
X50510Y-33417D02*
X50510Y-33403D01*
X50517Y-33389D01*
X50525Y-33382D01*
X50539Y-33374D01*
X50567Y-33367D01*
X50603Y-33367D01*
X50632Y-33374D01*
X50646Y-33382D01*
X50653Y-33389D01*
X50660Y-33403D01*
X50660Y-33417D01*
X50653Y-33432D01*
X50646Y-33439D01*
X50632Y-33446D01*
X50603Y-33453D01*
X50567Y-33453D01*
X50539Y-33446D01*
X50525Y-33439D01*
X50517Y-33432D01*
X50510Y-33417D01*
X50646Y-33303D02*
X50653Y-33296D01*
X50660Y-33303D01*
X50653Y-33310D01*
X50646Y-33303D01*
X50660Y-33303D01*
X50560Y-33167D02*
X50660Y-33167D01*
X50503Y-33203D02*
X50610Y-33239D01*
X50610Y-33146D01*
X50510Y-33103D02*
X50510Y-33003D01*
X50660Y-33067D01*
X50560Y-32882D02*
X50660Y-32882D01*
X50560Y-32946D02*
X50639Y-32946D01*
X50653Y-32939D01*
X50660Y-32924D01*
X50660Y-32903D01*
X50653Y-32889D01*
X50646Y-32882D01*
X50582Y-32760D02*
X50582Y-32810D01*
X50660Y-32810D02*
X50510Y-32810D01*
X50510Y-32739D01*
G54D26*
X50854Y-34439D02*
X50794Y-34345D01*
X50751Y-34439D02*
X50751Y-34242D01*
X50820Y-34242D01*
X50837Y-34252D01*
X50845Y-34261D01*
X50854Y-34280D01*
X50854Y-34308D01*
X50845Y-34327D01*
X50837Y-34336D01*
X50820Y-34345D01*
X50751Y-34345D01*
X50914Y-34242D02*
X51025Y-34242D01*
X50965Y-34317D01*
X50991Y-34317D01*
X51008Y-34327D01*
X51017Y-34336D01*
X51025Y-34355D01*
X51025Y-34402D01*
X51017Y-34420D01*
X51008Y-34430D01*
X50991Y-34439D01*
X50940Y-34439D01*
X50922Y-34430D01*
X50914Y-34420D01*
X51128Y-34327D02*
X51111Y-34317D01*
X51102Y-34308D01*
X51094Y-34289D01*
X51094Y-34280D01*
X51102Y-34261D01*
X51111Y-34252D01*
X51128Y-34242D01*
X51162Y-34242D01*
X51180Y-34252D01*
X51188Y-34261D01*
X51197Y-34280D01*
X51197Y-34289D01*
X51188Y-34308D01*
X51180Y-34317D01*
X51162Y-34327D01*
X51128Y-34327D01*
X51111Y-34336D01*
X51102Y-34345D01*
X51094Y-34364D01*
X51094Y-34402D01*
X51102Y-34420D01*
X51111Y-34430D01*
X51128Y-34439D01*
X51162Y-34439D01*
X51180Y-34430D01*
X51188Y-34420D01*
X51197Y-34402D01*
X51197Y-34364D01*
X51188Y-34345D01*
X51180Y-34336D01*
X51162Y-34327D01*
G54D24*
X50660Y-34003D02*
X50660Y-34089D01*
X50660Y-34046D02*
X50510Y-34046D01*
X50532Y-34060D01*
X50546Y-34075D01*
X50553Y-34089D01*
X50510Y-33910D02*
X50510Y-33896D01*
X50517Y-33882D01*
X50525Y-33875D01*
X50539Y-33867D01*
X50567Y-33860D01*
X50603Y-33860D01*
X50632Y-33867D01*
X50646Y-33875D01*
X50653Y-33882D01*
X50660Y-33896D01*
X50660Y-33910D01*
X50653Y-33925D01*
X50646Y-33932D01*
X50632Y-33939D01*
X50603Y-33946D01*
X50567Y-33946D01*
X50539Y-33939D01*
X50525Y-33932D01*
X50517Y-33925D01*
X50510Y-33910D01*
X50660Y-33796D02*
X50510Y-33796D01*
X50660Y-33710D02*
X50575Y-33775D01*
X50510Y-33710D02*
X50596Y-33796D01*
X50717Y-31209D02*
X50667Y-31138D01*
X50631Y-31209D02*
X50631Y-31059D01*
X50689Y-31059D01*
X50703Y-31066D01*
X50710Y-31074D01*
X50717Y-31088D01*
X50717Y-31109D01*
X50710Y-31124D01*
X50703Y-31131D01*
X50689Y-31138D01*
X50631Y-31138D01*
X50767Y-31059D02*
X50860Y-31059D01*
X50810Y-31116D01*
X50831Y-31116D01*
X50846Y-31124D01*
X50853Y-31131D01*
X50860Y-31145D01*
X50860Y-31181D01*
X50853Y-31195D01*
X50846Y-31202D01*
X50831Y-31209D01*
X50789Y-31209D01*
X50774Y-31202D01*
X50767Y-31195D01*
X50989Y-31109D02*
X50989Y-31209D01*
X50953Y-31052D02*
X50917Y-31159D01*
X51010Y-31159D01*
X50760Y-31699D02*
X50760Y-31785D01*
X50760Y-31742D02*
X50610Y-31742D01*
X50632Y-31757D01*
X50646Y-31771D01*
X50653Y-31785D01*
X50610Y-31607D02*
X50610Y-31592D01*
X50617Y-31578D01*
X50625Y-31571D01*
X50639Y-31564D01*
X50667Y-31557D01*
X50703Y-31557D01*
X50732Y-31564D01*
X50746Y-31571D01*
X50753Y-31578D01*
X50760Y-31592D01*
X50760Y-31607D01*
X50753Y-31621D01*
X50746Y-31628D01*
X50732Y-31635D01*
X50703Y-31642D01*
X50667Y-31642D01*
X50639Y-31635D01*
X50625Y-31628D01*
X50617Y-31621D01*
X50610Y-31607D01*
X50610Y-31464D02*
X50610Y-31450D01*
X50617Y-31435D01*
X50625Y-31428D01*
X50639Y-31421D01*
X50667Y-31414D01*
X50703Y-31414D01*
X50732Y-31421D01*
X50746Y-31428D01*
X50753Y-31435D01*
X50760Y-31450D01*
X50760Y-31464D01*
X50753Y-31478D01*
X50746Y-31485D01*
X50732Y-31492D01*
X50703Y-31500D01*
X50667Y-31500D01*
X50639Y-31492D01*
X50625Y-31485D01*
X50617Y-31478D01*
X50610Y-31464D01*
G54D26*
X37179Y-36315D02*
X37085Y-36375D01*
X37179Y-36418D02*
X36982Y-36418D01*
X36982Y-36350D01*
X36992Y-36332D01*
X37001Y-36324D01*
X37020Y-36315D01*
X37048Y-36315D01*
X37067Y-36324D01*
X37076Y-36332D01*
X37085Y-36350D01*
X37085Y-36418D01*
X37048Y-36161D02*
X37179Y-36161D01*
X36973Y-36204D02*
X37114Y-36247D01*
X37114Y-36135D01*
X36982Y-36032D02*
X36982Y-36015D01*
X36992Y-35998D01*
X37001Y-35990D01*
X37020Y-35981D01*
X37057Y-35972D01*
X37104Y-35972D01*
X37142Y-35981D01*
X37160Y-35990D01*
X37170Y-35998D01*
X37179Y-36015D01*
X37179Y-36032D01*
X37170Y-36050D01*
X37160Y-36058D01*
X37142Y-36067D01*
X37104Y-36075D01*
X37057Y-36075D01*
X37020Y-36067D01*
X37001Y-36058D01*
X36992Y-36050D01*
X36982Y-36032D01*
G54D24*
X37860Y-36232D02*
X37860Y-36317D01*
X37860Y-36274D02*
X37710Y-36274D01*
X37732Y-36289D01*
X37746Y-36303D01*
X37753Y-36317D01*
X37860Y-36167D02*
X37710Y-36167D01*
X37860Y-36082D02*
X37775Y-36146D01*
X37710Y-36082D02*
X37796Y-36167D01*
G54D26*
X52279Y-31015D02*
X52185Y-31075D01*
X52279Y-31118D02*
X52082Y-31118D01*
X52082Y-31050D01*
X52092Y-31032D01*
X52101Y-31024D01*
X52120Y-31015D01*
X52148Y-31015D01*
X52167Y-31024D01*
X52176Y-31032D01*
X52185Y-31050D01*
X52185Y-31118D01*
X52082Y-30955D02*
X52082Y-30844D01*
X52157Y-30904D01*
X52157Y-30878D01*
X52167Y-30861D01*
X52176Y-30852D01*
X52195Y-30844D01*
X52242Y-30844D01*
X52260Y-30852D01*
X52270Y-30861D01*
X52279Y-30878D01*
X52279Y-30930D01*
X52270Y-30947D01*
X52260Y-30955D01*
X52082Y-30784D02*
X52082Y-30672D01*
X52157Y-30732D01*
X52157Y-30707D01*
X52167Y-30690D01*
X52176Y-30681D01*
X52195Y-30672D01*
X52242Y-30672D01*
X52260Y-30681D01*
X52270Y-30690D01*
X52279Y-30707D01*
X52279Y-30758D01*
X52270Y-30775D01*
X52260Y-30784D01*
G54D24*
X51600Y-30960D02*
X51514Y-30960D01*
X51557Y-30960D02*
X51557Y-30810D01*
X51542Y-30832D01*
X51528Y-30846D01*
X51514Y-30853D01*
X51692Y-30810D02*
X51707Y-30810D01*
X51721Y-30817D01*
X51728Y-30825D01*
X51735Y-30839D01*
X51742Y-30867D01*
X51742Y-30903D01*
X51735Y-30932D01*
X51728Y-30946D01*
X51721Y-30953D01*
X51707Y-30960D01*
X51692Y-30960D01*
X51678Y-30953D01*
X51671Y-30946D01*
X51664Y-30932D01*
X51657Y-30903D01*
X51657Y-30867D01*
X51664Y-30839D01*
X51671Y-30825D01*
X51678Y-30817D01*
X51692Y-30810D01*
X51835Y-30810D02*
X51850Y-30810D01*
X51864Y-30817D01*
X51871Y-30825D01*
X51878Y-30839D01*
X51885Y-30867D01*
X51885Y-30903D01*
X51878Y-30932D01*
X51871Y-30946D01*
X51864Y-30953D01*
X51850Y-30960D01*
X51835Y-30960D01*
X51821Y-30953D01*
X51814Y-30946D01*
X51807Y-30932D01*
X51800Y-30903D01*
X51800Y-30867D01*
X51807Y-30839D01*
X51814Y-30825D01*
X51821Y-30817D01*
X51835Y-30810D01*
G54D14*
X40733Y-19880D02*
X40733Y-20023D01*
X40723Y-20052D01*
X40704Y-20071D01*
X40676Y-20080D01*
X40657Y-20080D01*
X40933Y-20080D02*
X40819Y-20080D01*
X40876Y-20080D02*
X40876Y-19880D01*
X40857Y-19909D01*
X40838Y-19928D01*
X40819Y-19938D01*
G54D25*
X43167Y-22760D02*
X43157Y-22770D01*
X43129Y-22779D01*
X43110Y-22779D01*
X43082Y-22770D01*
X43063Y-22751D01*
X43054Y-22732D01*
X43045Y-22695D01*
X43045Y-22667D01*
X43054Y-22629D01*
X43063Y-22610D01*
X43082Y-22592D01*
X43110Y-22582D01*
X43129Y-22582D01*
X43157Y-22592D01*
X43167Y-22601D01*
X43345Y-22582D02*
X43251Y-22582D01*
X43242Y-22676D01*
X43251Y-22667D01*
X43270Y-22657D01*
X43317Y-22657D01*
X43336Y-22667D01*
X43345Y-22676D01*
X43354Y-22695D01*
X43354Y-22742D01*
X43345Y-22760D01*
X43336Y-22770D01*
X43317Y-22779D01*
X43270Y-22779D01*
X43251Y-22770D01*
X43242Y-22760D01*
G54D24*
X42817Y-23560D02*
X42732Y-23560D01*
X42775Y-23560D02*
X42775Y-23410D01*
X42760Y-23432D01*
X42746Y-23446D01*
X42732Y-23453D01*
X42910Y-23410D02*
X42925Y-23410D01*
X42939Y-23417D01*
X42946Y-23425D01*
X42953Y-23439D01*
X42960Y-23467D01*
X42960Y-23503D01*
X42953Y-23532D01*
X42946Y-23546D01*
X42939Y-23553D01*
X42925Y-23560D01*
X42910Y-23560D01*
X42896Y-23553D01*
X42889Y-23546D01*
X42882Y-23532D01*
X42875Y-23503D01*
X42875Y-23467D01*
X42882Y-23439D01*
X42889Y-23425D01*
X42896Y-23417D01*
X42910Y-23410D01*
X43053Y-23410D02*
X43067Y-23410D01*
X43082Y-23417D01*
X43089Y-23425D01*
X43096Y-23439D01*
X43103Y-23467D01*
X43103Y-23503D01*
X43096Y-23532D01*
X43089Y-23546D01*
X43082Y-23553D01*
X43067Y-23560D01*
X43053Y-23560D01*
X43039Y-23553D01*
X43032Y-23546D01*
X43025Y-23532D01*
X43017Y-23503D01*
X43017Y-23467D01*
X43025Y-23439D01*
X43032Y-23425D01*
X43039Y-23417D01*
X43053Y-23410D01*
X43167Y-23460D02*
X43167Y-23560D01*
X43167Y-23475D02*
X43175Y-23467D01*
X43189Y-23460D01*
X43210Y-23460D01*
X43225Y-23467D01*
X43232Y-23482D01*
X43232Y-23560D01*
X43353Y-23482D02*
X43303Y-23482D01*
X43303Y-23560D02*
X43303Y-23410D01*
X43375Y-23410D01*
G54D26*
X51235Y-30351D02*
X51141Y-30411D01*
X51235Y-30454D02*
X51038Y-30454D01*
X51038Y-30386D01*
X51048Y-30368D01*
X51057Y-30360D01*
X51076Y-30351D01*
X51104Y-30351D01*
X51123Y-30360D01*
X51132Y-30368D01*
X51141Y-30386D01*
X51141Y-30454D01*
X51038Y-30291D02*
X51038Y-30180D01*
X51113Y-30240D01*
X51113Y-30214D01*
X51123Y-30197D01*
X51132Y-30188D01*
X51151Y-30180D01*
X51198Y-30180D01*
X51216Y-30188D01*
X51226Y-30197D01*
X51235Y-30214D01*
X51235Y-30266D01*
X51226Y-30283D01*
X51216Y-30291D01*
X51235Y-30008D02*
X51235Y-30111D01*
X51235Y-30060D02*
X51038Y-30060D01*
X51066Y-30077D01*
X51085Y-30094D01*
X51095Y-30111D01*
G54D24*
X50410Y-30703D02*
X50410Y-30610D01*
X50467Y-30660D01*
X50467Y-30639D01*
X50475Y-30625D01*
X50482Y-30617D01*
X50496Y-30610D01*
X50532Y-30610D01*
X50546Y-30617D01*
X50553Y-30625D01*
X50560Y-30639D01*
X50560Y-30682D01*
X50553Y-30696D01*
X50546Y-30703D01*
X50410Y-30560D02*
X50410Y-30460D01*
X50560Y-30525D01*
X50546Y-30403D02*
X50553Y-30396D01*
X50560Y-30403D01*
X50553Y-30410D01*
X50546Y-30403D01*
X50560Y-30403D01*
X50475Y-30310D02*
X50467Y-30325D01*
X50460Y-30332D01*
X50446Y-30339D01*
X50439Y-30339D01*
X50425Y-30332D01*
X50417Y-30325D01*
X50410Y-30310D01*
X50410Y-30282D01*
X50417Y-30267D01*
X50425Y-30260D01*
X50439Y-30253D01*
X50446Y-30253D01*
X50460Y-30260D01*
X50467Y-30267D01*
X50475Y-30282D01*
X50475Y-30310D01*
X50482Y-30325D01*
X50489Y-30332D01*
X50503Y-30339D01*
X50532Y-30339D01*
X50546Y-30332D01*
X50553Y-30325D01*
X50560Y-30310D01*
X50560Y-30282D01*
X50553Y-30267D01*
X50546Y-30260D01*
X50532Y-30253D01*
X50503Y-30253D01*
X50489Y-30260D01*
X50482Y-30267D01*
X50475Y-30282D01*
X50560Y-30189D02*
X50410Y-30189D01*
X50560Y-30103D02*
X50475Y-30167D01*
X50410Y-30103D02*
X50496Y-30189D01*
G54D30*
X49009Y-30051D02*
X49009Y-30253D01*
X49021Y-30277D01*
X49033Y-30289D01*
X49057Y-30301D01*
X49104Y-30301D01*
X49128Y-30289D01*
X49140Y-30277D01*
X49152Y-30253D01*
X49152Y-30051D01*
X49390Y-30051D02*
X49271Y-30051D01*
X49259Y-30170D01*
X49271Y-30158D01*
X49295Y-30146D01*
X49354Y-30146D01*
X49378Y-30158D01*
X49390Y-30170D01*
X49402Y-30194D01*
X49402Y-30253D01*
X49390Y-30277D01*
X49378Y-30289D01*
X49354Y-30301D01*
X49295Y-30301D01*
X49271Y-30289D01*
X49259Y-30277D01*
G54D14*
X49780Y-29623D02*
X49580Y-29623D01*
X49780Y-29509D01*
X49580Y-29509D01*
X49761Y-29300D02*
X49771Y-29309D01*
X49780Y-29338D01*
X49780Y-29357D01*
X49771Y-29385D01*
X49752Y-29404D01*
X49733Y-29414D01*
X49695Y-29423D01*
X49666Y-29423D01*
X49628Y-29414D01*
X49609Y-29404D01*
X49590Y-29385D01*
X49580Y-29357D01*
X49580Y-29338D01*
X49590Y-29309D01*
X49600Y-29300D01*
X49580Y-29242D02*
X49780Y-29176D01*
X49580Y-29109D01*
X49780Y-28938D02*
X49780Y-29052D01*
X49780Y-28995D02*
X49580Y-28995D01*
X49609Y-29014D01*
X49628Y-29033D01*
X49638Y-29052D01*
X49780Y-28747D02*
X49780Y-28861D01*
X49780Y-28804D02*
X49580Y-28804D01*
X49609Y-28823D01*
X49628Y-28842D01*
X49638Y-28861D01*
X49600Y-28671D02*
X49590Y-28661D01*
X49580Y-28642D01*
X49580Y-28595D01*
X49590Y-28576D01*
X49600Y-28566D01*
X49619Y-28557D01*
X49638Y-28557D01*
X49666Y-28566D01*
X49780Y-28680D01*
X49780Y-28557D01*
X49647Y-28385D02*
X49780Y-28385D01*
X49571Y-28433D02*
X49714Y-28480D01*
X49714Y-28357D01*
G54D26*
X53449Y-22540D02*
X53355Y-22600D01*
X53449Y-22642D02*
X53252Y-22642D01*
X53252Y-22574D01*
X53262Y-22557D01*
X53271Y-22548D01*
X53290Y-22540D01*
X53318Y-22540D01*
X53337Y-22548D01*
X53346Y-22557D01*
X53355Y-22574D01*
X53355Y-22642D01*
X53252Y-22480D02*
X53252Y-22360D01*
X53449Y-22437D01*
G54D24*
X52510Y-22803D02*
X52510Y-22710D01*
X52567Y-22760D01*
X52567Y-22739D01*
X52575Y-22725D01*
X52582Y-22717D01*
X52596Y-22710D01*
X52632Y-22710D01*
X52646Y-22717D01*
X52653Y-22725D01*
X52660Y-22739D01*
X52660Y-22782D01*
X52653Y-22796D01*
X52646Y-22803D01*
X52510Y-22660D02*
X52510Y-22560D01*
X52660Y-22625D01*
X52646Y-22503D02*
X52653Y-22496D01*
X52660Y-22503D01*
X52653Y-22510D01*
X52646Y-22503D01*
X52660Y-22503D01*
X52575Y-22410D02*
X52567Y-22425D01*
X52560Y-22432D01*
X52546Y-22439D01*
X52539Y-22439D01*
X52525Y-22432D01*
X52517Y-22425D01*
X52510Y-22410D01*
X52510Y-22382D01*
X52517Y-22367D01*
X52525Y-22360D01*
X52539Y-22353D01*
X52546Y-22353D01*
X52560Y-22360D01*
X52567Y-22367D01*
X52575Y-22382D01*
X52575Y-22410D01*
X52582Y-22425D01*
X52589Y-22432D01*
X52603Y-22439D01*
X52632Y-22439D01*
X52646Y-22432D01*
X52653Y-22425D01*
X52660Y-22410D01*
X52660Y-22382D01*
X52653Y-22367D01*
X52646Y-22360D01*
X52632Y-22353D01*
X52603Y-22353D01*
X52589Y-22360D01*
X52582Y-22367D01*
X52575Y-22382D01*
X52660Y-22289D02*
X52510Y-22289D01*
X52660Y-22203D02*
X52575Y-22267D01*
X52510Y-22203D02*
X52596Y-22289D01*
G54D17*
X45054Y-21829D02*
X45054Y-21632D01*
X45101Y-21632D01*
X45129Y-21642D01*
X45148Y-21660D01*
X45157Y-21679D01*
X45167Y-21717D01*
X45167Y-21745D01*
X45157Y-21782D01*
X45148Y-21801D01*
X45129Y-21820D01*
X45101Y-21829D01*
X45054Y-21829D01*
X45354Y-21829D02*
X45242Y-21829D01*
X45298Y-21829D02*
X45298Y-21632D01*
X45279Y-21660D01*
X45260Y-21679D01*
X45242Y-21689D01*
X38064Y-22229D02*
X38064Y-22032D01*
X38111Y-22032D01*
X38139Y-22042D01*
X38158Y-22060D01*
X38167Y-22079D01*
X38177Y-22117D01*
X38177Y-22145D01*
X38167Y-22182D01*
X38158Y-22201D01*
X38139Y-22220D01*
X38111Y-22229D01*
X38064Y-22229D01*
X38252Y-22051D02*
X38261Y-22042D01*
X38280Y-22032D01*
X38327Y-22032D01*
X38346Y-22042D01*
X38355Y-22051D01*
X38364Y-22070D01*
X38364Y-22089D01*
X38355Y-22117D01*
X38242Y-22229D01*
X38364Y-22229D01*
G54D24*
X38902Y-22253D02*
X38924Y-22260D01*
X38960Y-22260D01*
X38974Y-22253D01*
X38981Y-22246D01*
X38988Y-22232D01*
X38988Y-22217D01*
X38981Y-22203D01*
X38974Y-22196D01*
X38960Y-22189D01*
X38931Y-22182D01*
X38917Y-22175D01*
X38910Y-22167D01*
X38902Y-22153D01*
X38902Y-22139D01*
X38910Y-22125D01*
X38917Y-22117D01*
X38931Y-22110D01*
X38967Y-22110D01*
X38988Y-22117D01*
X39052Y-22260D02*
X39052Y-22110D01*
X39102Y-22217D01*
X39152Y-22110D01*
X39152Y-22260D01*
X39217Y-22217D02*
X39288Y-22217D01*
X39202Y-22260D02*
X39252Y-22110D01*
X39302Y-22260D01*
X39395Y-22110D02*
X39395Y-22217D01*
X39388Y-22239D01*
X39374Y-22253D01*
X39352Y-22260D01*
X39338Y-22260D01*
X39531Y-22110D02*
X39502Y-22110D01*
X39488Y-22117D01*
X39481Y-22125D01*
X39467Y-22146D01*
X39460Y-22175D01*
X39460Y-22232D01*
X39467Y-22246D01*
X39474Y-22253D01*
X39488Y-22260D01*
X39517Y-22260D01*
X39531Y-22253D01*
X39538Y-22246D01*
X39545Y-22232D01*
X39545Y-22196D01*
X39538Y-22182D01*
X39531Y-22175D01*
X39517Y-22167D01*
X39488Y-22167D01*
X39474Y-22175D01*
X39467Y-22182D01*
X39460Y-22196D01*
X39674Y-22160D02*
X39674Y-22260D01*
X39638Y-22103D02*
X39602Y-22210D01*
X39695Y-22210D01*
X39745Y-22217D02*
X39817Y-22217D01*
X39731Y-22260D02*
X39781Y-22110D01*
X39831Y-22260D01*
G54D17*
X55631Y-33846D02*
X55434Y-33846D01*
X55434Y-33799D01*
X55444Y-33771D01*
X55462Y-33752D01*
X55481Y-33743D01*
X55519Y-33733D01*
X55547Y-33733D01*
X55584Y-33743D01*
X55603Y-33752D01*
X55622Y-33771D01*
X55631Y-33799D01*
X55631Y-33846D01*
X55631Y-33546D02*
X55631Y-33658D01*
X55631Y-33602D02*
X55434Y-33602D01*
X55462Y-33621D01*
X55481Y-33639D01*
X55491Y-33658D01*
X55519Y-33433D02*
X55509Y-33452D01*
X55500Y-33461D01*
X55481Y-33470D01*
X55472Y-33470D01*
X55453Y-33461D01*
X55444Y-33452D01*
X55434Y-33433D01*
X55434Y-33395D01*
X55444Y-33377D01*
X55453Y-33367D01*
X55472Y-33358D01*
X55481Y-33358D01*
X55500Y-33367D01*
X55509Y-33377D01*
X55519Y-33395D01*
X55519Y-33433D01*
X55528Y-33452D01*
X55537Y-33461D01*
X55556Y-33470D01*
X55594Y-33470D01*
X55612Y-33461D01*
X55622Y-33452D01*
X55631Y-33433D01*
X55631Y-33395D01*
X55622Y-33377D01*
X55612Y-33367D01*
X55594Y-33358D01*
X55556Y-33358D01*
X55537Y-33367D01*
X55528Y-33377D01*
X55519Y-33395D01*
G54D24*
X54625Y-32909D02*
X54632Y-32887D01*
X54632Y-32852D01*
X54625Y-32837D01*
X54618Y-32830D01*
X54604Y-32823D01*
X54589Y-32823D01*
X54575Y-32830D01*
X54568Y-32837D01*
X54561Y-32852D01*
X54554Y-32880D01*
X54547Y-32894D01*
X54539Y-32902D01*
X54525Y-32909D01*
X54511Y-32909D01*
X54497Y-32902D01*
X54489Y-32894D01*
X54482Y-32880D01*
X54482Y-32844D01*
X54489Y-32823D01*
X54632Y-32759D02*
X54482Y-32759D01*
X54589Y-32709D01*
X54482Y-32659D01*
X54632Y-32659D01*
X54589Y-32594D02*
X54589Y-32523D01*
X54632Y-32609D02*
X54482Y-32559D01*
X54632Y-32509D01*
X54482Y-32416D02*
X54589Y-32416D01*
X54611Y-32423D01*
X54625Y-32437D01*
X54632Y-32459D01*
X54632Y-32473D01*
X54482Y-32280D02*
X54482Y-32309D01*
X54489Y-32323D01*
X54497Y-32330D01*
X54518Y-32344D01*
X54547Y-32352D01*
X54604Y-32352D01*
X54618Y-32344D01*
X54625Y-32337D01*
X54632Y-32323D01*
X54632Y-32294D01*
X54625Y-32280D01*
X54618Y-32273D01*
X54604Y-32266D01*
X54568Y-32266D01*
X54554Y-32273D01*
X54547Y-32280D01*
X54539Y-32294D01*
X54539Y-32323D01*
X54547Y-32337D01*
X54554Y-32344D01*
X54568Y-32352D01*
X54532Y-32137D02*
X54632Y-32137D01*
X54475Y-32173D02*
X54582Y-32209D01*
X54582Y-32116D01*
X54589Y-32066D02*
X54589Y-31994D01*
X54632Y-32080D02*
X54482Y-32030D01*
X54632Y-31980D01*
G54D17*
X37004Y-22269D02*
X37004Y-22072D01*
X37051Y-22072D01*
X37079Y-22082D01*
X37098Y-22100D01*
X37107Y-22119D01*
X37117Y-22157D01*
X37117Y-22185D01*
X37107Y-22222D01*
X37098Y-22241D01*
X37079Y-22260D01*
X37051Y-22269D01*
X37004Y-22269D01*
X37295Y-22072D02*
X37201Y-22072D01*
X37192Y-22166D01*
X37201Y-22157D01*
X37220Y-22147D01*
X37267Y-22147D01*
X37286Y-22157D01*
X37295Y-22166D01*
X37304Y-22185D01*
X37304Y-22232D01*
X37295Y-22250D01*
X37286Y-22260D01*
X37267Y-22269D01*
X37220Y-22269D01*
X37201Y-22260D01*
X37192Y-22250D01*
G54D24*
X35892Y-23683D02*
X35914Y-23690D01*
X35950Y-23690D01*
X35964Y-23683D01*
X35971Y-23676D01*
X35978Y-23662D01*
X35978Y-23647D01*
X35971Y-23633D01*
X35964Y-23626D01*
X35950Y-23619D01*
X35921Y-23612D01*
X35907Y-23605D01*
X35900Y-23597D01*
X35892Y-23583D01*
X35892Y-23569D01*
X35900Y-23555D01*
X35907Y-23547D01*
X35921Y-23540D01*
X35957Y-23540D01*
X35978Y-23547D01*
X36042Y-23690D02*
X36042Y-23540D01*
X36092Y-23647D01*
X36142Y-23540D01*
X36142Y-23690D01*
X36207Y-23647D02*
X36278Y-23647D01*
X36192Y-23690D02*
X36242Y-23540D01*
X36292Y-23690D01*
X36385Y-23540D02*
X36385Y-23647D01*
X36378Y-23669D01*
X36364Y-23683D01*
X36342Y-23690D01*
X36328Y-23690D01*
X36442Y-23540D02*
X36535Y-23540D01*
X36485Y-23597D01*
X36507Y-23597D01*
X36521Y-23605D01*
X36528Y-23612D01*
X36535Y-23626D01*
X36535Y-23662D01*
X36528Y-23676D01*
X36521Y-23683D01*
X36507Y-23690D01*
X36464Y-23690D01*
X36450Y-23683D01*
X36442Y-23676D01*
X36628Y-23540D02*
X36642Y-23540D01*
X36657Y-23547D01*
X36664Y-23555D01*
X36671Y-23569D01*
X36678Y-23597D01*
X36678Y-23633D01*
X36671Y-23662D01*
X36664Y-23676D01*
X36657Y-23683D01*
X36642Y-23690D01*
X36628Y-23690D01*
X36614Y-23683D01*
X36607Y-23676D01*
X36600Y-23662D01*
X36592Y-23633D01*
X36592Y-23597D01*
X36600Y-23569D01*
X36607Y-23555D01*
X36614Y-23547D01*
X36628Y-23540D01*
X36735Y-23647D02*
X36807Y-23647D01*
X36721Y-23690D02*
X36771Y-23540D01*
X36821Y-23690D01*
G54D14*
X36721Y-29522D02*
X36578Y-29622D01*
X36721Y-29694D02*
X36421Y-29694D01*
X36421Y-29580D01*
X36435Y-29551D01*
X36450Y-29537D01*
X36478Y-29522D01*
X36521Y-29522D01*
X36550Y-29537D01*
X36564Y-29551D01*
X36578Y-29580D01*
X36578Y-29694D01*
X36450Y-29408D02*
X36435Y-29394D01*
X36421Y-29365D01*
X36421Y-29294D01*
X36435Y-29265D01*
X36450Y-29251D01*
X36478Y-29237D01*
X36507Y-29237D01*
X36550Y-29251D01*
X36721Y-29422D01*
X36721Y-29237D01*
X36550Y-29065D02*
X36535Y-29094D01*
X36521Y-29108D01*
X36492Y-29122D01*
X36478Y-29122D01*
X36450Y-29108D01*
X36435Y-29094D01*
X36421Y-29065D01*
X36421Y-29008D01*
X36435Y-28980D01*
X36450Y-28965D01*
X36478Y-28951D01*
X36492Y-28951D01*
X36521Y-28965D01*
X36535Y-28980D01*
X36550Y-29008D01*
X36550Y-29065D01*
X36564Y-29094D01*
X36578Y-29108D01*
X36607Y-29122D01*
X36664Y-29122D01*
X36692Y-29108D01*
X36707Y-29094D01*
X36721Y-29065D01*
X36721Y-29008D01*
X36707Y-28980D01*
X36692Y-28965D01*
X36664Y-28951D01*
X36607Y-28951D01*
X36578Y-28965D01*
X36564Y-28980D01*
X36550Y-29008D01*
X37290Y-29511D02*
X37118Y-29511D01*
X37204Y-29511D02*
X37204Y-29211D01*
X37175Y-29254D01*
X37147Y-29282D01*
X37118Y-29297D01*
X37404Y-29240D02*
X37418Y-29225D01*
X37447Y-29211D01*
X37518Y-29211D01*
X37547Y-29225D01*
X37561Y-29240D01*
X37575Y-29268D01*
X37575Y-29297D01*
X37561Y-29340D01*
X37390Y-29511D01*
X37575Y-29511D01*
X37761Y-29211D02*
X37790Y-29211D01*
X37818Y-29225D01*
X37832Y-29240D01*
X37847Y-29268D01*
X37861Y-29325D01*
X37861Y-29397D01*
X37847Y-29454D01*
X37832Y-29482D01*
X37818Y-29497D01*
X37790Y-29511D01*
X37761Y-29511D01*
X37732Y-29497D01*
X37718Y-29482D01*
X37704Y-29454D01*
X37690Y-29397D01*
X37690Y-29325D01*
X37704Y-29268D01*
X37718Y-29240D01*
X37732Y-29225D01*
X37761Y-29211D01*
G54D25*
X34660Y-34456D02*
X34670Y-34466D01*
X34679Y-34494D01*
X34679Y-34512D01*
X34670Y-34541D01*
X34651Y-34559D01*
X34632Y-34569D01*
X34595Y-34578D01*
X34567Y-34578D01*
X34529Y-34569D01*
X34510Y-34559D01*
X34492Y-34541D01*
X34482Y-34512D01*
X34482Y-34494D01*
X34492Y-34466D01*
X34501Y-34456D01*
X34501Y-34381D02*
X34492Y-34372D01*
X34482Y-34353D01*
X34482Y-34306D01*
X34492Y-34287D01*
X34501Y-34278D01*
X34520Y-34269D01*
X34539Y-34269D01*
X34567Y-34278D01*
X34679Y-34390D01*
X34679Y-34269D01*
X34482Y-34100D02*
X34482Y-34137D01*
X34492Y-34156D01*
X34501Y-34165D01*
X34529Y-34184D01*
X34567Y-34193D01*
X34642Y-34193D01*
X34660Y-34184D01*
X34670Y-34175D01*
X34679Y-34156D01*
X34679Y-34118D01*
X34670Y-34100D01*
X34660Y-34090D01*
X34642Y-34081D01*
X34595Y-34081D01*
X34576Y-34090D01*
X34567Y-34100D01*
X34557Y-34118D01*
X34557Y-34156D01*
X34567Y-34175D01*
X34576Y-34184D01*
X34595Y-34193D01*
G54D24*
X34967Y-34760D02*
X34882Y-34760D01*
X34925Y-34760D02*
X34925Y-34610D01*
X34910Y-34632D01*
X34896Y-34646D01*
X34882Y-34653D01*
X35060Y-34610D02*
X35075Y-34610D01*
X35089Y-34617D01*
X35096Y-34625D01*
X35103Y-34639D01*
X35110Y-34667D01*
X35110Y-34703D01*
X35103Y-34732D01*
X35096Y-34746D01*
X35089Y-34753D01*
X35075Y-34760D01*
X35060Y-34760D01*
X35046Y-34753D01*
X35039Y-34746D01*
X35032Y-34732D01*
X35025Y-34703D01*
X35025Y-34667D01*
X35032Y-34639D01*
X35039Y-34625D01*
X35046Y-34617D01*
X35060Y-34610D01*
X35203Y-34610D02*
X35217Y-34610D01*
X35232Y-34617D01*
X35239Y-34625D01*
X35246Y-34639D01*
X35253Y-34667D01*
X35253Y-34703D01*
X35246Y-34732D01*
X35239Y-34746D01*
X35232Y-34753D01*
X35217Y-34760D01*
X35203Y-34760D01*
X35189Y-34753D01*
X35182Y-34746D01*
X35175Y-34732D01*
X35167Y-34703D01*
X35167Y-34667D01*
X35175Y-34639D01*
X35182Y-34625D01*
X35189Y-34617D01*
X35203Y-34610D01*
X35317Y-34660D02*
X35317Y-34760D01*
X35317Y-34675D02*
X35325Y-34667D01*
X35339Y-34660D01*
X35360Y-34660D01*
X35375Y-34667D01*
X35382Y-34682D01*
X35382Y-34760D01*
X35503Y-34682D02*
X35453Y-34682D01*
X35453Y-34760D02*
X35453Y-34610D01*
X35525Y-34610D01*
G54D25*
X51973Y-38960D02*
X51963Y-38970D01*
X51935Y-38979D01*
X51917Y-38979D01*
X51888Y-38970D01*
X51870Y-38951D01*
X51860Y-38932D01*
X51851Y-38895D01*
X51851Y-38867D01*
X51860Y-38829D01*
X51870Y-38810D01*
X51888Y-38792D01*
X51917Y-38782D01*
X51935Y-38782D01*
X51963Y-38792D01*
X51973Y-38801D01*
X52039Y-38782D02*
X52160Y-38782D01*
X52095Y-38857D01*
X52123Y-38857D01*
X52142Y-38867D01*
X52151Y-38876D01*
X52160Y-38895D01*
X52160Y-38942D01*
X52151Y-38960D01*
X52142Y-38970D01*
X52123Y-38979D01*
X52067Y-38979D01*
X52048Y-38970D01*
X52039Y-38960D01*
X52282Y-38782D02*
X52301Y-38782D01*
X52320Y-38792D01*
X52329Y-38801D01*
X52339Y-38820D01*
X52348Y-38857D01*
X52348Y-38904D01*
X52339Y-38942D01*
X52329Y-38960D01*
X52320Y-38970D01*
X52301Y-38979D01*
X52282Y-38979D01*
X52264Y-38970D01*
X52254Y-38960D01*
X52245Y-38942D01*
X52236Y-38904D01*
X52236Y-38857D01*
X52245Y-38820D01*
X52254Y-38801D01*
X52264Y-38792D01*
X52282Y-38782D01*
G54D24*
X51782Y-37910D02*
X51796Y-37910D01*
X51810Y-37917D01*
X51817Y-37925D01*
X51825Y-37939D01*
X51832Y-37967D01*
X51832Y-38003D01*
X51825Y-38032D01*
X51817Y-38046D01*
X51810Y-38053D01*
X51796Y-38060D01*
X51782Y-38060D01*
X51767Y-38053D01*
X51760Y-38046D01*
X51753Y-38032D01*
X51746Y-38003D01*
X51746Y-37967D01*
X51753Y-37939D01*
X51760Y-37925D01*
X51767Y-37917D01*
X51782Y-37910D01*
X51896Y-38046D02*
X51903Y-38053D01*
X51896Y-38060D01*
X51889Y-38053D01*
X51896Y-38046D01*
X51896Y-38060D01*
X52032Y-37960D02*
X52032Y-38060D01*
X51996Y-37903D02*
X51960Y-38010D01*
X52053Y-38010D01*
X52096Y-37910D02*
X52196Y-37910D01*
X52132Y-38060D01*
X52317Y-37960D02*
X52317Y-38060D01*
X52253Y-37960D02*
X52253Y-38039D01*
X52260Y-38053D01*
X52275Y-38060D01*
X52296Y-38060D01*
X52310Y-38053D01*
X52317Y-38046D01*
X52439Y-37982D02*
X52389Y-37982D01*
X52389Y-38060D02*
X52389Y-37910D01*
X52460Y-37910D01*
G54D14*
X50181Y-34741D02*
X50171Y-34751D01*
X50143Y-34760D01*
X50124Y-34760D01*
X50095Y-34751D01*
X50076Y-34732D01*
X50067Y-34713D01*
X50057Y-34675D01*
X50057Y-34646D01*
X50067Y-34608D01*
X50076Y-34589D01*
X50095Y-34570D01*
X50124Y-34560D01*
X50143Y-34560D01*
X50171Y-34570D01*
X50181Y-34580D01*
X50257Y-34580D02*
X50267Y-34570D01*
X50286Y-34560D01*
X50333Y-34560D01*
X50352Y-34570D01*
X50362Y-34580D01*
X50371Y-34599D01*
X50371Y-34618D01*
X50362Y-34646D01*
X50248Y-34760D01*
X50371Y-34760D01*
X50543Y-34627D02*
X50543Y-34760D01*
X50495Y-34551D02*
X50448Y-34694D01*
X50571Y-34694D01*
G54D24*
X50260Y-35510D02*
X50360Y-35510D01*
X50203Y-35546D02*
X50310Y-35582D01*
X50310Y-35489D01*
X50346Y-35432D02*
X50353Y-35425D01*
X50360Y-35432D01*
X50353Y-35439D01*
X50346Y-35432D01*
X50360Y-35432D01*
X50210Y-35374D02*
X50210Y-35274D01*
X50360Y-35339D01*
X50260Y-35153D02*
X50360Y-35153D01*
X50260Y-35217D02*
X50339Y-35217D01*
X50353Y-35210D01*
X50360Y-35196D01*
X50360Y-35175D01*
X50353Y-35160D01*
X50346Y-35153D01*
X50282Y-35032D02*
X50282Y-35082D01*
X50360Y-35082D02*
X50210Y-35082D01*
X50210Y-35010D01*
G54D27*
X46971Y-35621D02*
X46971Y-35864D01*
X46985Y-35892D01*
X47000Y-35907D01*
X47028Y-35921D01*
X47085Y-35921D01*
X47114Y-35907D01*
X47128Y-35892D01*
X47142Y-35864D01*
X47142Y-35621D01*
X47300Y-35921D02*
X47357Y-35921D01*
X47385Y-35907D01*
X47400Y-35892D01*
X47428Y-35850D01*
X47442Y-35792D01*
X47442Y-35678D01*
X47428Y-35650D01*
X47414Y-35635D01*
X47385Y-35621D01*
X47328Y-35621D01*
X47300Y-35635D01*
X47285Y-35650D01*
X47271Y-35678D01*
X47271Y-35750D01*
X47285Y-35778D01*
X47300Y-35792D01*
X47328Y-35807D01*
X47385Y-35807D01*
X47414Y-35792D01*
X47428Y-35778D01*
X47442Y-35750D01*
G54D14*
X49980Y-38338D02*
X49780Y-38338D01*
X49923Y-38271D01*
X49780Y-38204D01*
X49980Y-38204D01*
X49961Y-37995D02*
X49971Y-38004D01*
X49980Y-38033D01*
X49980Y-38052D01*
X49971Y-38080D01*
X49952Y-38100D01*
X49933Y-38109D01*
X49895Y-38119D01*
X49866Y-38119D01*
X49828Y-38109D01*
X49809Y-38100D01*
X49790Y-38080D01*
X49780Y-38052D01*
X49780Y-38033D01*
X49790Y-38004D01*
X49800Y-37995D01*
X49780Y-37928D02*
X49780Y-37795D01*
X49980Y-37880D01*
X49866Y-37690D02*
X49857Y-37709D01*
X49847Y-37719D01*
X49828Y-37728D01*
X49819Y-37728D01*
X49800Y-37719D01*
X49790Y-37709D01*
X49780Y-37690D01*
X49780Y-37652D01*
X49790Y-37633D01*
X49800Y-37623D01*
X49819Y-37614D01*
X49828Y-37614D01*
X49847Y-37623D01*
X49857Y-37633D01*
X49866Y-37652D01*
X49866Y-37690D01*
X49876Y-37709D01*
X49885Y-37719D01*
X49904Y-37728D01*
X49942Y-37728D01*
X49961Y-37719D01*
X49971Y-37709D01*
X49980Y-37690D01*
X49980Y-37652D01*
X49971Y-37633D01*
X49961Y-37623D01*
X49942Y-37614D01*
X49904Y-37614D01*
X49885Y-37623D01*
X49876Y-37633D01*
X49866Y-37652D01*
X49980Y-37528D02*
X49780Y-37528D01*
X49923Y-37461D01*
X49780Y-37395D01*
X49980Y-37395D01*
X49780Y-37261D02*
X49780Y-37242D01*
X49790Y-37223D01*
X49800Y-37214D01*
X49819Y-37204D01*
X49857Y-37195D01*
X49904Y-37195D01*
X49942Y-37204D01*
X49961Y-37214D01*
X49971Y-37223D01*
X49980Y-37242D01*
X49980Y-37261D01*
X49971Y-37280D01*
X49961Y-37290D01*
X49942Y-37300D01*
X49904Y-37309D01*
X49857Y-37309D01*
X49819Y-37300D01*
X49800Y-37290D01*
X49790Y-37280D01*
X49780Y-37261D01*
X49780Y-37014D02*
X49780Y-37109D01*
X49876Y-37119D01*
X49866Y-37109D01*
X49857Y-37090D01*
X49857Y-37042D01*
X49866Y-37023D01*
X49876Y-37014D01*
X49895Y-37004D01*
X49942Y-37004D01*
X49961Y-37014D01*
X49971Y-37023D01*
X49980Y-37042D01*
X49980Y-37090D01*
X49971Y-37109D01*
X49961Y-37119D01*
X49961Y-36804D02*
X49971Y-36814D01*
X49980Y-36842D01*
X49980Y-36861D01*
X49971Y-36890D01*
X49952Y-36909D01*
X49933Y-36919D01*
X49895Y-36928D01*
X49866Y-36928D01*
X49828Y-36919D01*
X49809Y-36909D01*
X49790Y-36890D01*
X49780Y-36861D01*
X49780Y-36842D01*
X49790Y-36814D01*
X49800Y-36804D01*
X49980Y-36719D02*
X49780Y-36719D01*
X49780Y-36671D01*
X49790Y-36642D01*
X49809Y-36623D01*
X49828Y-36614D01*
X49866Y-36604D01*
X49895Y-36604D01*
X49933Y-36614D01*
X49952Y-36623D01*
X49971Y-36642D01*
X49980Y-36671D01*
X49980Y-36719D01*
X49780Y-36547D02*
X49780Y-36433D01*
X49980Y-36490D02*
X49780Y-36490D01*
G54D30*
X67171Y-27747D02*
X67143Y-27733D01*
X67115Y-27705D01*
X67073Y-27663D01*
X67045Y-27649D01*
X67017Y-27649D01*
X67031Y-27719D02*
X67003Y-27705D01*
X66975Y-27677D01*
X66961Y-27621D01*
X66961Y-27522D01*
X66975Y-27466D01*
X67003Y-27438D01*
X67031Y-27424D01*
X67087Y-27424D01*
X67115Y-27438D01*
X67143Y-27466D01*
X67157Y-27522D01*
X67157Y-27621D01*
X67143Y-27677D01*
X67115Y-27705D01*
X67087Y-27719D01*
X67031Y-27719D01*
X67410Y-27522D02*
X67410Y-27719D01*
X67340Y-27410D02*
X67270Y-27621D01*
X67452Y-27621D01*
G54D24*
X65985Y-30710D02*
X66071Y-30710D01*
X66028Y-30860D02*
X66028Y-30710D01*
X66121Y-30860D02*
X66121Y-30710D01*
X66178Y-30710D01*
X66192Y-30717D01*
X66200Y-30725D01*
X66207Y-30739D01*
X66207Y-30760D01*
X66200Y-30775D01*
X66192Y-30782D01*
X66178Y-30789D01*
X66121Y-30789D01*
X66257Y-30710D02*
X66292Y-30860D01*
X66321Y-30753D01*
X66350Y-30860D01*
X66385Y-30710D01*
X66507Y-30760D02*
X66507Y-30860D01*
X66471Y-30703D02*
X66435Y-30810D01*
X66528Y-30810D01*
X66671Y-30860D02*
X66621Y-30789D01*
X66585Y-30860D02*
X66585Y-30710D01*
X66642Y-30710D01*
X66657Y-30717D01*
X66664Y-30725D01*
X66671Y-30739D01*
X66671Y-30760D01*
X66664Y-30775D01*
X66657Y-30782D01*
X66642Y-30789D01*
X66585Y-30789D01*
X66807Y-30710D02*
X66735Y-30710D01*
X66728Y-30782D01*
X66735Y-30775D01*
X66750Y-30767D01*
X66785Y-30767D01*
X66800Y-30775D01*
X66807Y-30782D01*
X66814Y-30796D01*
X66814Y-30832D01*
X66807Y-30846D01*
X66800Y-30853D01*
X66785Y-30860D01*
X66750Y-30860D01*
X66735Y-30853D01*
X66728Y-30846D01*
X66907Y-30710D02*
X66921Y-30710D01*
X66935Y-30717D01*
X66942Y-30725D01*
X66950Y-30739D01*
X66957Y-30767D01*
X66957Y-30803D01*
X66950Y-30832D01*
X66942Y-30846D01*
X66935Y-30853D01*
X66921Y-30860D01*
X66907Y-30860D01*
X66892Y-30853D01*
X66885Y-30846D01*
X66878Y-30832D01*
X66871Y-30803D01*
X66871Y-30767D01*
X66878Y-30739D01*
X66885Y-30725D01*
X66892Y-30717D01*
X66907Y-30710D01*
X67014Y-30817D02*
X67085Y-30817D01*
X67000Y-30860D02*
X67050Y-30710D01*
X67100Y-30860D01*
X67150Y-30860D02*
X67150Y-30710D01*
X67235Y-30860D01*
X67235Y-30710D01*
X67307Y-30860D02*
X67307Y-30710D01*
X67307Y-30782D02*
X67392Y-30782D01*
X67392Y-30860D02*
X67392Y-30710D01*
G54D30*
X63771Y-27847D02*
X63743Y-27833D01*
X63715Y-27805D01*
X63673Y-27763D01*
X63645Y-27749D01*
X63617Y-27749D01*
X63631Y-27819D02*
X63603Y-27805D01*
X63575Y-27777D01*
X63561Y-27721D01*
X63561Y-27622D01*
X63575Y-27566D01*
X63603Y-27538D01*
X63631Y-27524D01*
X63687Y-27524D01*
X63715Y-27538D01*
X63743Y-27566D01*
X63757Y-27622D01*
X63757Y-27721D01*
X63743Y-27777D01*
X63715Y-27805D01*
X63687Y-27819D01*
X63631Y-27819D01*
X63856Y-27524D02*
X64038Y-27524D01*
X63940Y-27636D01*
X63982Y-27636D01*
X64010Y-27650D01*
X64024Y-27664D01*
X64038Y-27692D01*
X64038Y-27763D01*
X64024Y-27791D01*
X64010Y-27805D01*
X63982Y-27819D01*
X63898Y-27819D01*
X63870Y-27805D01*
X63856Y-27791D01*
G54D24*
X62885Y-30810D02*
X62971Y-30810D01*
X62928Y-30960D02*
X62928Y-30810D01*
X63021Y-30960D02*
X63021Y-30810D01*
X63078Y-30810D01*
X63092Y-30817D01*
X63100Y-30825D01*
X63107Y-30839D01*
X63107Y-30860D01*
X63100Y-30875D01*
X63092Y-30882D01*
X63078Y-30889D01*
X63021Y-30889D01*
X63157Y-30810D02*
X63192Y-30960D01*
X63221Y-30853D01*
X63250Y-30960D01*
X63285Y-30810D01*
X63407Y-30860D02*
X63407Y-30960D01*
X63371Y-30803D02*
X63335Y-30910D01*
X63428Y-30910D01*
X63571Y-30960D02*
X63521Y-30889D01*
X63485Y-30960D02*
X63485Y-30810D01*
X63542Y-30810D01*
X63557Y-30817D01*
X63564Y-30825D01*
X63571Y-30839D01*
X63571Y-30860D01*
X63564Y-30875D01*
X63557Y-30882D01*
X63542Y-30889D01*
X63485Y-30889D01*
X63707Y-30810D02*
X63635Y-30810D01*
X63628Y-30882D01*
X63635Y-30875D01*
X63650Y-30867D01*
X63685Y-30867D01*
X63700Y-30875D01*
X63707Y-30882D01*
X63714Y-30896D01*
X63714Y-30932D01*
X63707Y-30946D01*
X63700Y-30953D01*
X63685Y-30960D01*
X63650Y-30960D01*
X63635Y-30953D01*
X63628Y-30946D01*
X63807Y-30810D02*
X63821Y-30810D01*
X63835Y-30817D01*
X63842Y-30825D01*
X63850Y-30839D01*
X63857Y-30867D01*
X63857Y-30903D01*
X63850Y-30932D01*
X63842Y-30946D01*
X63835Y-30953D01*
X63821Y-30960D01*
X63807Y-30960D01*
X63792Y-30953D01*
X63785Y-30946D01*
X63778Y-30932D01*
X63771Y-30903D01*
X63771Y-30867D01*
X63778Y-30839D01*
X63785Y-30825D01*
X63792Y-30817D01*
X63807Y-30810D01*
X63914Y-30917D02*
X63985Y-30917D01*
X63900Y-30960D02*
X63950Y-30810D01*
X64000Y-30960D01*
X64050Y-30960D02*
X64050Y-30810D01*
X64135Y-30960D01*
X64135Y-30810D01*
X64207Y-30960D02*
X64207Y-30810D01*
X64207Y-30882D02*
X64292Y-30882D01*
X64292Y-30960D02*
X64292Y-30810D01*
G54D26*
X50470Y-20679D02*
X50410Y-20585D01*
X50367Y-20679D02*
X50367Y-20482D01*
X50435Y-20482D01*
X50452Y-20492D01*
X50461Y-20501D01*
X50470Y-20520D01*
X50470Y-20548D01*
X50461Y-20567D01*
X50452Y-20576D01*
X50435Y-20585D01*
X50367Y-20585D01*
X50624Y-20482D02*
X50590Y-20482D01*
X50572Y-20492D01*
X50564Y-20501D01*
X50547Y-20529D01*
X50538Y-20567D01*
X50538Y-20642D01*
X50547Y-20660D01*
X50555Y-20670D01*
X50572Y-20679D01*
X50607Y-20679D01*
X50624Y-20670D01*
X50632Y-20660D01*
X50641Y-20642D01*
X50641Y-20595D01*
X50632Y-20576D01*
X50624Y-20567D01*
X50607Y-20557D01*
X50572Y-20557D01*
X50555Y-20567D01*
X50547Y-20576D01*
X50538Y-20595D01*
G54D24*
X50457Y-21660D02*
X50371Y-21660D01*
X50414Y-21660D02*
X50414Y-21510D01*
X50400Y-21532D01*
X50385Y-21546D01*
X50371Y-21553D01*
X50521Y-21660D02*
X50521Y-21510D01*
X50571Y-21617D01*
X50621Y-21510D01*
X50621Y-21660D01*
G54D26*
X51170Y-20661D02*
X51161Y-20671D01*
X51135Y-20680D01*
X51118Y-20680D01*
X51092Y-20671D01*
X51075Y-20652D01*
X51067Y-20633D01*
X51058Y-20595D01*
X51058Y-20566D01*
X51067Y-20528D01*
X51075Y-20509D01*
X51092Y-20490D01*
X51118Y-20480D01*
X51135Y-20480D01*
X51161Y-20490D01*
X51170Y-20500D01*
X51341Y-20680D02*
X51238Y-20680D01*
X51290Y-20680D02*
X51290Y-20480D01*
X51272Y-20509D01*
X51255Y-20528D01*
X51238Y-20538D01*
G54D24*
X50989Y-21560D02*
X50989Y-21660D01*
X50953Y-21503D02*
X50917Y-21610D01*
X51010Y-21610D01*
X51067Y-21646D02*
X51075Y-21653D01*
X51067Y-21660D01*
X51060Y-21653D01*
X51067Y-21646D01*
X51067Y-21660D01*
X51125Y-21510D02*
X51225Y-21510D01*
X51160Y-21660D01*
X51282Y-21560D02*
X51282Y-21660D01*
X51282Y-21575D02*
X51289Y-21567D01*
X51303Y-21560D01*
X51325Y-21560D01*
X51339Y-21567D01*
X51346Y-21582D01*
X51346Y-21660D01*
X51467Y-21582D02*
X51417Y-21582D01*
X51417Y-21660D02*
X51417Y-21510D01*
X51489Y-21510D01*
G54D25*
X56673Y-37660D02*
X56663Y-37670D01*
X56635Y-37679D01*
X56617Y-37679D01*
X56588Y-37670D01*
X56570Y-37651D01*
X56560Y-37632D01*
X56551Y-37595D01*
X56551Y-37567D01*
X56560Y-37529D01*
X56570Y-37510D01*
X56588Y-37492D01*
X56617Y-37482D01*
X56635Y-37482D01*
X56663Y-37492D01*
X56673Y-37501D01*
X56748Y-37501D02*
X56757Y-37492D01*
X56776Y-37482D01*
X56823Y-37482D01*
X56842Y-37492D01*
X56851Y-37501D01*
X56860Y-37520D01*
X56860Y-37539D01*
X56851Y-37567D01*
X56739Y-37679D01*
X56860Y-37679D01*
X56954Y-37679D02*
X56992Y-37679D01*
X57011Y-37670D01*
X57020Y-37660D01*
X57039Y-37632D01*
X57048Y-37595D01*
X57048Y-37520D01*
X57039Y-37501D01*
X57029Y-37492D01*
X57011Y-37482D01*
X56973Y-37482D01*
X56954Y-37492D01*
X56945Y-37501D01*
X56936Y-37520D01*
X56936Y-37567D01*
X56945Y-37585D01*
X56954Y-37595D01*
X56973Y-37604D01*
X57011Y-37604D01*
X57029Y-37595D01*
X57039Y-37585D01*
X57048Y-37567D01*
G54D24*
X56960Y-37332D02*
X56960Y-37417D01*
X56960Y-37374D02*
X56810Y-37374D01*
X56832Y-37389D01*
X56846Y-37403D01*
X56853Y-37417D01*
X56810Y-37196D02*
X56810Y-37267D01*
X56882Y-37275D01*
X56875Y-37267D01*
X56867Y-37253D01*
X56867Y-37217D01*
X56875Y-37203D01*
X56882Y-37196D01*
X56896Y-37189D01*
X56932Y-37189D01*
X56946Y-37196D01*
X56953Y-37203D01*
X56960Y-37217D01*
X56960Y-37253D01*
X56953Y-37267D01*
X56946Y-37275D01*
X56810Y-37096D02*
X56810Y-37082D01*
X56817Y-37067D01*
X56825Y-37060D01*
X56839Y-37053D01*
X56867Y-37046D01*
X56903Y-37046D01*
X56932Y-37053D01*
X56946Y-37060D01*
X56953Y-37067D01*
X56960Y-37082D01*
X56960Y-37096D01*
X56953Y-37110D01*
X56946Y-37117D01*
X56932Y-37125D01*
X56903Y-37132D01*
X56867Y-37132D01*
X56839Y-37125D01*
X56825Y-37117D01*
X56817Y-37110D01*
X56810Y-37096D01*
X56860Y-36982D02*
X57010Y-36982D01*
X56867Y-36982D02*
X56860Y-36967D01*
X56860Y-36939D01*
X56867Y-36925D01*
X56875Y-36917D01*
X56889Y-36910D01*
X56932Y-36910D01*
X56946Y-36917D01*
X56953Y-36925D01*
X56960Y-36939D01*
X56960Y-36967D01*
X56953Y-36982D01*
X56882Y-36796D02*
X56882Y-36846D01*
X56960Y-36846D02*
X56810Y-36846D01*
X56810Y-36775D01*
G54D26*
X55484Y-37679D02*
X55424Y-37585D01*
X55381Y-37679D02*
X55381Y-37482D01*
X55450Y-37482D01*
X55467Y-37492D01*
X55475Y-37501D01*
X55484Y-37520D01*
X55484Y-37548D01*
X55475Y-37567D01*
X55467Y-37576D01*
X55450Y-37585D01*
X55381Y-37585D01*
X55638Y-37548D02*
X55638Y-37679D01*
X55595Y-37473D02*
X55552Y-37614D01*
X55664Y-37614D01*
X55827Y-37679D02*
X55724Y-37679D01*
X55775Y-37679D02*
X55775Y-37482D01*
X55758Y-37510D01*
X55741Y-37529D01*
X55724Y-37539D01*
G54D24*
X55660Y-37199D02*
X55660Y-37285D01*
X55660Y-37242D02*
X55510Y-37242D01*
X55532Y-37257D01*
X55546Y-37271D01*
X55553Y-37285D01*
X55510Y-37107D02*
X55510Y-37092D01*
X55517Y-37078D01*
X55525Y-37071D01*
X55539Y-37064D01*
X55567Y-37057D01*
X55603Y-37057D01*
X55632Y-37064D01*
X55646Y-37071D01*
X55653Y-37078D01*
X55660Y-37092D01*
X55660Y-37107D01*
X55653Y-37121D01*
X55646Y-37128D01*
X55632Y-37135D01*
X55603Y-37142D01*
X55567Y-37142D01*
X55539Y-37135D01*
X55525Y-37128D01*
X55517Y-37121D01*
X55510Y-37107D01*
X55510Y-36964D02*
X55510Y-36950D01*
X55517Y-36935D01*
X55525Y-36928D01*
X55539Y-36921D01*
X55567Y-36914D01*
X55603Y-36914D01*
X55632Y-36921D01*
X55646Y-36928D01*
X55653Y-36935D01*
X55660Y-36950D01*
X55660Y-36964D01*
X55653Y-36978D01*
X55646Y-36985D01*
X55632Y-36992D01*
X55603Y-37000D01*
X55567Y-37000D01*
X55539Y-36992D01*
X55525Y-36985D01*
X55517Y-36978D01*
X55510Y-36964D01*
G54D26*
X54684Y-26579D02*
X54624Y-26485D01*
X54581Y-26579D02*
X54581Y-26382D01*
X54650Y-26382D01*
X54667Y-26392D01*
X54675Y-26401D01*
X54684Y-26420D01*
X54684Y-26448D01*
X54675Y-26467D01*
X54667Y-26476D01*
X54650Y-26485D01*
X54581Y-26485D01*
X54855Y-26579D02*
X54752Y-26579D01*
X54804Y-26579D02*
X54804Y-26382D01*
X54787Y-26410D01*
X54770Y-26429D01*
X54752Y-26439D01*
X54941Y-26579D02*
X54975Y-26579D01*
X54992Y-26570D01*
X55001Y-26560D01*
X55018Y-26532D01*
X55027Y-26495D01*
X55027Y-26420D01*
X55018Y-26401D01*
X55010Y-26392D01*
X54992Y-26382D01*
X54958Y-26382D01*
X54941Y-26392D01*
X54932Y-26401D01*
X54924Y-26420D01*
X54924Y-26467D01*
X54932Y-26485D01*
X54941Y-26495D01*
X54958Y-26504D01*
X54992Y-26504D01*
X55010Y-26495D01*
X55018Y-26485D01*
X55027Y-26467D01*
G54D24*
X54660Y-26032D02*
X54660Y-26117D01*
X54660Y-26074D02*
X54510Y-26074D01*
X54532Y-26089D01*
X54546Y-26103D01*
X54553Y-26117D01*
X54660Y-25967D02*
X54510Y-25967D01*
X54660Y-25882D02*
X54575Y-25946D01*
X54510Y-25882D02*
X54596Y-25967D01*
G54D26*
X41459Y-24229D02*
X41399Y-24135D01*
X41356Y-24229D02*
X41356Y-24032D01*
X41425Y-24032D01*
X41442Y-24042D01*
X41450Y-24051D01*
X41459Y-24070D01*
X41459Y-24098D01*
X41450Y-24117D01*
X41442Y-24126D01*
X41425Y-24135D01*
X41356Y-24135D01*
X41630Y-24229D02*
X41527Y-24229D01*
X41579Y-24229D02*
X41579Y-24032D01*
X41562Y-24060D01*
X41545Y-24079D01*
X41527Y-24089D01*
X41742Y-24032D02*
X41759Y-24032D01*
X41776Y-24042D01*
X41785Y-24051D01*
X41793Y-24070D01*
X41802Y-24107D01*
X41802Y-24154D01*
X41793Y-24192D01*
X41785Y-24210D01*
X41776Y-24220D01*
X41759Y-24229D01*
X41742Y-24229D01*
X41725Y-24220D01*
X41716Y-24210D01*
X41707Y-24192D01*
X41699Y-24154D01*
X41699Y-24107D01*
X41707Y-24070D01*
X41716Y-24051D01*
X41725Y-24042D01*
X41742Y-24032D01*
G54D24*
X41367Y-23385D02*
X41382Y-23385D01*
X41396Y-23392D01*
X41403Y-23400D01*
X41410Y-23414D01*
X41417Y-23442D01*
X41417Y-23478D01*
X41410Y-23507D01*
X41403Y-23521D01*
X41396Y-23528D01*
X41382Y-23535D01*
X41367Y-23535D01*
X41353Y-23528D01*
X41346Y-23521D01*
X41339Y-23507D01*
X41332Y-23478D01*
X41332Y-23442D01*
X41339Y-23414D01*
X41346Y-23400D01*
X41353Y-23392D01*
X41367Y-23385D01*
G54D26*
X40269Y-23560D02*
X40175Y-23620D01*
X40269Y-23662D02*
X40072Y-23662D01*
X40072Y-23594D01*
X40082Y-23577D01*
X40091Y-23568D01*
X40110Y-23560D01*
X40138Y-23560D01*
X40157Y-23568D01*
X40166Y-23577D01*
X40175Y-23594D01*
X40175Y-23662D01*
X40072Y-23500D02*
X40072Y-23388D01*
X40147Y-23448D01*
X40147Y-23422D01*
X40157Y-23405D01*
X40166Y-23397D01*
X40185Y-23388D01*
X40232Y-23388D01*
X40250Y-23397D01*
X40260Y-23405D01*
X40269Y-23422D01*
X40269Y-23474D01*
X40260Y-23491D01*
X40250Y-23500D01*
G54D24*
X40617Y-23410D02*
X40632Y-23410D01*
X40646Y-23417D01*
X40653Y-23425D01*
X40660Y-23439D01*
X40667Y-23467D01*
X40667Y-23503D01*
X40660Y-23532D01*
X40653Y-23546D01*
X40646Y-23553D01*
X40632Y-23560D01*
X40617Y-23560D01*
X40603Y-23553D01*
X40596Y-23546D01*
X40589Y-23532D01*
X40582Y-23503D01*
X40582Y-23467D01*
X40589Y-23439D01*
X40596Y-23425D01*
X40603Y-23417D01*
X40617Y-23410D01*
G54D26*
X43719Y-27765D02*
X43625Y-27825D01*
X43719Y-27868D02*
X43522Y-27868D01*
X43522Y-27800D01*
X43532Y-27782D01*
X43541Y-27774D01*
X43560Y-27765D01*
X43588Y-27765D01*
X43607Y-27774D01*
X43616Y-27782D01*
X43625Y-27800D01*
X43625Y-27868D01*
X43719Y-27594D02*
X43719Y-27697D01*
X43719Y-27645D02*
X43522Y-27645D01*
X43550Y-27662D01*
X43569Y-27680D01*
X43579Y-27697D01*
X43522Y-27440D02*
X43522Y-27474D01*
X43532Y-27491D01*
X43541Y-27500D01*
X43569Y-27517D01*
X43607Y-27525D01*
X43682Y-27525D01*
X43700Y-27517D01*
X43710Y-27508D01*
X43719Y-27491D01*
X43719Y-27457D01*
X43710Y-27440D01*
X43700Y-27431D01*
X43682Y-27422D01*
X43635Y-27422D01*
X43616Y-27431D01*
X43607Y-27440D01*
X43597Y-27457D01*
X43597Y-27491D01*
X43607Y-27508D01*
X43616Y-27517D01*
X43635Y-27525D01*
G54D24*
X44092Y-27210D02*
X44107Y-27210D01*
X44121Y-27217D01*
X44128Y-27225D01*
X44135Y-27239D01*
X44142Y-27267D01*
X44142Y-27303D01*
X44135Y-27332D01*
X44128Y-27346D01*
X44121Y-27353D01*
X44107Y-27360D01*
X44092Y-27360D01*
X44078Y-27353D01*
X44071Y-27346D01*
X44064Y-27332D01*
X44057Y-27303D01*
X44057Y-27267D01*
X44064Y-27239D01*
X44071Y-27225D01*
X44078Y-27217D01*
X44092Y-27210D01*
G54D21*
X65045Y-28517D02*
X65114Y-28517D01*
X65080Y-28655D02*
X65080Y-28517D01*
X65154Y-28655D02*
X65154Y-28517D01*
X65154Y-28583D02*
X65222Y-28583D01*
X65222Y-28655D02*
X65222Y-28517D01*
X65342Y-28655D02*
X65274Y-28655D01*
X65308Y-28655D02*
X65308Y-28517D01*
X65297Y-28537D01*
X65285Y-28550D01*
X65274Y-28557D01*
X49056Y-32047D02*
X49056Y-31929D01*
X49084Y-31929D01*
X49101Y-31935D01*
X49112Y-31946D01*
X49118Y-31957D01*
X49124Y-31980D01*
X49124Y-31997D01*
X49118Y-32019D01*
X49112Y-32030D01*
X49101Y-32042D01*
X49084Y-32047D01*
X49056Y-32047D01*
X49236Y-32047D02*
X49169Y-32047D01*
X49202Y-32047D02*
X49202Y-31929D01*
X49191Y-31946D01*
X49180Y-31957D01*
X49169Y-31963D01*
X49343Y-31929D02*
X49287Y-31929D01*
X49281Y-31985D01*
X49287Y-31980D01*
X49298Y-31974D01*
X49326Y-31974D01*
X49337Y-31980D01*
X49343Y-31985D01*
X49348Y-31997D01*
X49348Y-32025D01*
X49343Y-32036D01*
X49337Y-32042D01*
X49326Y-32047D01*
X49298Y-32047D01*
X49287Y-32042D01*
X49281Y-32036D01*
X38312Y-26171D02*
X38312Y-26053D01*
X38341Y-26053D01*
X38357Y-26059D01*
X38369Y-26070D01*
X38374Y-26081D01*
X38380Y-26104D01*
X38380Y-26121D01*
X38374Y-26143D01*
X38369Y-26154D01*
X38357Y-26166D01*
X38341Y-26171D01*
X38312Y-26171D01*
X38436Y-26171D02*
X38459Y-26171D01*
X38470Y-26166D01*
X38475Y-26160D01*
X38487Y-26143D01*
X38492Y-26121D01*
X38492Y-26076D01*
X38487Y-26065D01*
X38481Y-26059D01*
X38470Y-26053D01*
X38447Y-26053D01*
X38436Y-26059D01*
X38430Y-26065D01*
X38425Y-26076D01*
X38425Y-26104D01*
X38430Y-26115D01*
X38436Y-26121D01*
X38447Y-26126D01*
X38470Y-26126D01*
X38481Y-26121D01*
X38487Y-26115D01*
X38492Y-26104D01*
X38312Y-25747D02*
X38312Y-25629D01*
X38341Y-25629D01*
X38357Y-25635D01*
X38369Y-25646D01*
X38374Y-25657D01*
X38380Y-25680D01*
X38380Y-25697D01*
X38374Y-25719D01*
X38369Y-25730D01*
X38357Y-25742D01*
X38341Y-25747D01*
X38312Y-25747D01*
X38481Y-25629D02*
X38459Y-25629D01*
X38447Y-25635D01*
X38442Y-25641D01*
X38430Y-25657D01*
X38425Y-25680D01*
X38425Y-25725D01*
X38430Y-25736D01*
X38436Y-25742D01*
X38447Y-25747D01*
X38470Y-25747D01*
X38481Y-25742D01*
X38487Y-25736D01*
X38492Y-25725D01*
X38492Y-25697D01*
X38487Y-25685D01*
X38481Y-25680D01*
X38470Y-25674D01*
X38447Y-25674D01*
X38436Y-25680D01*
X38430Y-25685D01*
X38425Y-25697D01*
X39123Y-27843D02*
X39005Y-27843D01*
X39005Y-27815D01*
X39011Y-27798D01*
X39022Y-27787D01*
X39033Y-27781D01*
X39056Y-27775D01*
X39073Y-27775D01*
X39095Y-27781D01*
X39106Y-27787D01*
X39118Y-27798D01*
X39123Y-27815D01*
X39123Y-27843D01*
X39123Y-27663D02*
X39123Y-27730D01*
X39123Y-27697D02*
X39005Y-27697D01*
X39022Y-27708D01*
X39033Y-27719D01*
X39039Y-27730D01*
X39005Y-27624D02*
X39005Y-27551D01*
X39050Y-27590D01*
X39050Y-27573D01*
X39056Y-27562D01*
X39061Y-27556D01*
X39073Y-27551D01*
X39101Y-27551D01*
X39112Y-27556D01*
X39118Y-27562D01*
X39123Y-27573D01*
X39123Y-27607D01*
X39118Y-27618D01*
X39112Y-27624D01*
X50556Y-32071D02*
X50556Y-31953D01*
X50584Y-31953D01*
X50601Y-31959D01*
X50612Y-31970D01*
X50618Y-31981D01*
X50624Y-32004D01*
X50624Y-32021D01*
X50618Y-32043D01*
X50612Y-32054D01*
X50601Y-32066D01*
X50584Y-32071D01*
X50556Y-32071D01*
X50736Y-32071D02*
X50669Y-32071D01*
X50702Y-32071D02*
X50702Y-31953D01*
X50691Y-31970D01*
X50680Y-31981D01*
X50669Y-31987D01*
X50837Y-31953D02*
X50815Y-31953D01*
X50803Y-31959D01*
X50798Y-31965D01*
X50787Y-31981D01*
X50781Y-32004D01*
X50781Y-32049D01*
X50787Y-32060D01*
X50792Y-32066D01*
X50803Y-32071D01*
X50826Y-32071D01*
X50837Y-32066D01*
X50843Y-32060D01*
X50848Y-32049D01*
X50848Y-32021D01*
X50843Y-32009D01*
X50837Y-32004D01*
X50826Y-31998D01*
X50803Y-31998D01*
X50792Y-32004D01*
X50787Y-32009D01*
X50781Y-32021D01*
G54D12*
X53051Y-32591D02*
X52894Y-32591D01*
X52894Y-32553D01*
X52901Y-32531D01*
X52916Y-32516D01*
X52931Y-32508D01*
X52961Y-32501D01*
X52984Y-32501D01*
X53014Y-32508D01*
X53029Y-32516D01*
X53044Y-32531D01*
X53051Y-32553D01*
X53051Y-32591D01*
X53051Y-32351D02*
X53051Y-32441D01*
X53051Y-32396D02*
X52894Y-32396D01*
X52916Y-32411D01*
X52931Y-32426D01*
X52939Y-32441D01*
X52894Y-32298D02*
X52894Y-32193D01*
X53051Y-32261D01*
X57075Y-32841D02*
X56918Y-32841D01*
X56918Y-32803D01*
X56925Y-32781D01*
X56940Y-32766D01*
X56955Y-32758D01*
X56985Y-32751D01*
X57008Y-32751D01*
X57038Y-32758D01*
X57053Y-32766D01*
X57068Y-32781D01*
X57075Y-32803D01*
X57075Y-32841D01*
X57075Y-32601D02*
X57075Y-32691D01*
X57075Y-32646D02*
X56918Y-32646D01*
X56940Y-32661D01*
X56955Y-32676D01*
X56963Y-32691D01*
X56970Y-32466D02*
X57075Y-32466D01*
X56910Y-32503D02*
X57023Y-32541D01*
X57023Y-32443D01*
X49358Y-27663D02*
X49358Y-27506D01*
X49396Y-27506D01*
X49418Y-27513D01*
X49433Y-27528D01*
X49441Y-27543D01*
X49448Y-27573D01*
X49448Y-27596D01*
X49441Y-27626D01*
X49433Y-27641D01*
X49418Y-27656D01*
X49396Y-27663D01*
X49358Y-27663D01*
X49598Y-27663D02*
X49508Y-27663D01*
X49553Y-27663D02*
X49553Y-27506D01*
X49538Y-27528D01*
X49523Y-27543D01*
X49508Y-27551D01*
X49658Y-27521D02*
X49666Y-27513D01*
X49681Y-27506D01*
X49718Y-27506D01*
X49733Y-27513D01*
X49741Y-27521D01*
X49748Y-27536D01*
X49748Y-27551D01*
X49741Y-27573D01*
X49651Y-27663D01*
X49748Y-27663D01*
M02*
