G04 (created by PCBNEW (2013-07-07 BZR 4022)-stable) date 2/4/2017 6:27:51 AM*
%MOIN*%
G04 Gerber Fmt 3.4, Leading zero omitted, Abs format*
%FSLAX34Y34*%
G01*
G70*
G90*
G04 APERTURE LIST*
%ADD10C,0.00590551*%
%ADD11R,0.0277165X0.0690551*%
%ADD12O,0.0808661X0.0533071*%
%ADD13O,0.0966142X0.0533071*%
%ADD14R,0.07X0.07*%
%ADD15C,0.07*%
%ADD16R,0.0415X0.12*%
%ADD17R,0.035X0.123*%
%ADD18C,0.1537*%
%ADD19R,0.0691X0.0691*%
%ADD20C,0.0691*%
%ADD21C,0.1281*%
%ADD22C,0.135*%
%ADD23R,0.0729921X0.0729921*%
%ADD24C,0.0729921*%
%ADD25C,0.108425*%
%ADD26R,0.0808661X0.0808661*%
%ADD27C,0.0808661*%
%ADD28C,0.055*%
%ADD29C,0.076*%
%ADD30R,0.11X0.11*%
%ADD31C,0.11*%
%ADD32C,0.085*%
%ADD33R,0.085X0.085*%
%ADD34O,0.0493701X0.0769291*%
%ADD35C,0.0277165*%
%ADD36R,0.0749606X0.0749606*%
%ADD37C,0.0749606*%
G04 APERTURE END LIST*
G54D10*
G54D11*
X47888Y-21001D03*
X48144Y-21001D03*
X48400Y-21001D03*
X48656Y-21001D03*
X48912Y-21001D03*
G54D12*
X47297Y-21100D03*
X49502Y-21100D03*
G54D13*
X48400Y-20253D03*
G54D14*
X47150Y-22550D03*
G54D15*
X48150Y-22550D03*
X49150Y-22550D03*
X50150Y-22550D03*
X51150Y-22550D03*
G54D10*
G36*
X62422Y-36195D02*
X62422Y-34965D01*
X62837Y-35465D01*
X62837Y-35695D01*
X62422Y-36195D01*
X62422Y-36195D01*
G37*
G54D16*
X63130Y-35580D03*
G54D17*
X62350Y-35580D03*
G54D10*
G36*
X62922Y-35580D02*
X62622Y-34980D01*
X63337Y-34980D01*
X63037Y-35580D01*
X62922Y-35580D01*
X62922Y-35580D01*
G37*
G36*
X63037Y-35580D02*
X63337Y-36180D01*
X62622Y-36180D01*
X62922Y-35580D01*
X63037Y-35580D01*
X63037Y-35580D01*
G37*
G54D18*
X33600Y-24162D03*
X33600Y-28835D03*
G54D19*
X36100Y-28250D03*
G54D20*
X37100Y-27750D03*
X36100Y-27250D03*
X37100Y-26750D03*
X36100Y-26250D03*
X37100Y-25750D03*
X36100Y-25250D03*
X37100Y-24750D03*
G54D18*
X33600Y-30462D03*
X33600Y-35135D03*
G54D19*
X36100Y-34550D03*
G54D20*
X37100Y-34050D03*
X36100Y-33550D03*
X37100Y-33050D03*
X36100Y-32550D03*
X37100Y-32050D03*
X36100Y-31550D03*
X37100Y-31050D03*
G54D21*
X69291Y-37795D03*
G54D14*
X40000Y-28100D03*
G54D15*
X41000Y-28100D03*
X40000Y-27100D03*
X41000Y-27100D03*
X40000Y-26100D03*
X41000Y-26100D03*
G54D22*
X69291Y-21259D03*
X33070Y-37795D03*
G54D23*
X54600Y-38192D03*
G54D24*
X54600Y-37207D03*
G54D21*
X33070Y-21259D03*
G54D25*
X69200Y-34721D03*
X69200Y-32752D03*
X69200Y-30784D03*
X69200Y-28815D03*
X69200Y-24878D03*
X69200Y-26847D03*
G54D26*
X56584Y-34100D03*
G54D27*
X54615Y-34100D03*
G54D28*
X56700Y-38200D03*
G54D15*
X39500Y-36500D03*
X40500Y-36500D03*
X41500Y-36500D03*
X42500Y-36500D03*
X43500Y-36500D03*
X44500Y-36500D03*
X45500Y-36500D03*
G54D14*
X46500Y-36500D03*
X46500Y-38500D03*
G54D15*
X45500Y-38500D03*
X44500Y-38500D03*
X43500Y-38500D03*
X42500Y-38500D03*
X41500Y-38500D03*
X40500Y-38500D03*
X39500Y-38500D03*
X39500Y-35500D03*
X40500Y-35500D03*
X41500Y-35500D03*
X42500Y-35500D03*
X43500Y-35500D03*
X44500Y-35500D03*
X45500Y-35500D03*
X46500Y-35500D03*
G54D14*
X38400Y-32400D03*
G54D15*
X39400Y-32400D03*
G54D29*
X37400Y-37200D03*
X36400Y-37200D03*
X35400Y-37200D03*
G54D10*
G36*
X62422Y-38775D02*
X62422Y-37545D01*
X62837Y-38045D01*
X62837Y-38275D01*
X62422Y-38775D01*
X62422Y-38775D01*
G37*
G54D16*
X63130Y-38160D03*
G54D17*
X62350Y-38160D03*
G54D10*
G36*
X62922Y-38160D02*
X62622Y-37560D01*
X63337Y-37560D01*
X63037Y-38160D01*
X62922Y-38160D01*
X62922Y-38160D01*
G37*
G36*
X63037Y-38160D02*
X63337Y-38760D01*
X62622Y-38760D01*
X62922Y-38160D01*
X63037Y-38160D01*
X63037Y-38160D01*
G37*
G36*
X62422Y-37495D02*
X62422Y-36265D01*
X62837Y-36765D01*
X62837Y-36995D01*
X62422Y-37495D01*
X62422Y-37495D01*
G37*
G54D16*
X63130Y-36880D03*
G54D17*
X62350Y-36880D03*
G54D10*
G36*
X62922Y-36880D02*
X62622Y-36280D01*
X63337Y-36280D01*
X63037Y-36880D01*
X62922Y-36880D01*
X62922Y-36880D01*
G37*
G36*
X63037Y-36880D02*
X63337Y-37480D01*
X62622Y-37480D01*
X62922Y-36880D01*
X63037Y-36880D01*
X63037Y-36880D01*
G37*
G54D25*
X42752Y-21300D03*
X40784Y-21300D03*
X36847Y-21300D03*
X38815Y-21300D03*
G54D30*
X35000Y-28300D03*
G54D31*
X35000Y-26800D03*
X35000Y-25300D03*
G54D25*
X60837Y-21400D03*
X58868Y-21400D03*
X56900Y-21400D03*
X52962Y-21400D03*
X54931Y-21400D03*
G54D14*
X38800Y-29800D03*
G54D15*
X38800Y-30800D03*
G54D32*
X58113Y-38184D03*
X59687Y-38184D03*
G54D33*
X59687Y-36216D03*
G54D32*
X58113Y-36216D03*
G54D34*
X46992Y-21100D03*
X49807Y-21100D03*
G54D35*
X48144Y-20792D03*
X48400Y-21296D03*
X48655Y-20792D03*
X48911Y-21296D03*
X47888Y-21296D03*
G54D36*
X51800Y-32400D03*
G54D37*
X51800Y-33400D03*
G54D36*
X48100Y-32400D03*
G54D37*
X48100Y-33400D03*
M02*
