G04 (created by PCBNEW (2013-07-07 BZR 4022)-stable) date 2/4/2017 6:27:51 AM*
%MOIN*%
G04 Gerber Fmt 3.4, Leading zero omitted, Abs format*
%FSLAX34Y34*%
G01*
G70*
G90*
G04 APERTURE LIST*
%ADD10C,0.00590551*%
%ADD11R,0.015748X0.0748031*%
%ADD12R,0.0709X0.0512*%
%ADD13R,0.0709X0.1496*%
%ADD14R,0.0315X0.0394*%
%ADD15R,0.035X0.055*%
%ADD16R,0.055X0.035*%
%ADD17R,0.025X0.045*%
%ADD18R,0.0551X0.0236*%
%ADD19R,0.0787X0.0177*%
%ADD20R,0.0177X0.0787*%
%ADD21R,0.065X0.016*%
%ADD22R,0.06X0.08*%
%ADD23R,0.0394X0.0315*%
%ADD24R,0.188976X0.19685*%
%ADD25R,0.0551181X0.0551181*%
%ADD26R,0.063X0.0866*%
%ADD27R,0.045X0.025*%
%ADD28R,0.0236X0.0551*%
%ADD29R,0.0394X0.0106*%
%ADD30R,0.05X0.025*%
%ADD31R,0.0827X0.0669*%
%ADD32R,0.0669X0.0827*%
%ADD33R,0.1X0.05*%
%ADD34R,0.12X0.065*%
%ADD35R,0.24X0.24*%
%ADD36R,0.0295276X0.0452756*%
%ADD37R,0.179528X0.147638*%
%ADD38R,0.0236X0.0157*%
%ADD39R,0.0236X0.0315*%
%ADD40R,0.0315X0.0236*%
%ADD41R,0.0551181X0.0905512*%
%ADD42R,0.0551181X0.0492126*%
%ADD43R,0.0905512X0.0551181*%
%ADD44R,0.0492126X0.0551181*%
G04 APERTURE END LIST*
G54D10*
G54D11*
X42892Y-33440D03*
X42420Y-33440D03*
X41947Y-33440D03*
G54D12*
X55619Y-22494D03*
X55619Y-23400D03*
X55619Y-24306D03*
G54D13*
X57981Y-23400D03*
G54D14*
X37200Y-35633D03*
X36825Y-34767D03*
X37575Y-34767D03*
X46500Y-26283D03*
X46125Y-25417D03*
X46875Y-25417D03*
X43400Y-26433D03*
X43025Y-25567D03*
X43775Y-25567D03*
G54D15*
X51275Y-25450D03*
X50525Y-25450D03*
G54D16*
X32100Y-33275D03*
X32100Y-32525D03*
X44500Y-25625D03*
X44500Y-26375D03*
G54D15*
X46915Y-30080D03*
X46165Y-30080D03*
X46935Y-30900D03*
X46185Y-30900D03*
G54D16*
X39825Y-30600D03*
X39825Y-29850D03*
G54D17*
X46850Y-24000D03*
X47450Y-24000D03*
X50000Y-24000D03*
X49400Y-24000D03*
G54D16*
X33500Y-27375D03*
X33500Y-26625D03*
G54D18*
X35150Y-32050D03*
X33050Y-32050D03*
X35150Y-32550D03*
X35150Y-33050D03*
X35150Y-33550D03*
X33050Y-32550D03*
X33050Y-33050D03*
X33050Y-33550D03*
G54D19*
X41179Y-31468D03*
X41179Y-31153D03*
X41179Y-30838D03*
X41179Y-30523D03*
X41179Y-30208D03*
X41179Y-29893D03*
X41179Y-29578D03*
X41179Y-29263D03*
X44945Y-29265D03*
X44945Y-31475D03*
X44945Y-31155D03*
X44945Y-30835D03*
X44945Y-30525D03*
X44945Y-30205D03*
X44945Y-29895D03*
X44945Y-29575D03*
G54D20*
X41963Y-28475D03*
X42277Y-28475D03*
X42593Y-28475D03*
X42907Y-28475D03*
X43223Y-28475D03*
X43537Y-28475D03*
X43853Y-28475D03*
X44167Y-28475D03*
X41965Y-32255D03*
X42275Y-32255D03*
X42595Y-32255D03*
X42905Y-32255D03*
X43215Y-32255D03*
X43535Y-32255D03*
X43855Y-32255D03*
X44175Y-32255D03*
G54D16*
X60850Y-35625D03*
X60850Y-36375D03*
G54D15*
X46175Y-31800D03*
X46925Y-31800D03*
X48925Y-33100D03*
X49675Y-33100D03*
X41275Y-22500D03*
X40525Y-22500D03*
G54D21*
X49750Y-25525D03*
X49750Y-25275D03*
X49750Y-25025D03*
X49750Y-24775D03*
X47650Y-26275D03*
X49750Y-26275D03*
X49750Y-26025D03*
X49750Y-25775D03*
X47650Y-24525D03*
X47650Y-24775D03*
X47650Y-25025D03*
X47650Y-25275D03*
X47650Y-25525D03*
X47650Y-25775D03*
X49750Y-24525D03*
X47650Y-26025D03*
G54D17*
X50050Y-23300D03*
X49450Y-23300D03*
X46850Y-23350D03*
X47450Y-23350D03*
G54D22*
X46700Y-27050D03*
X48000Y-27050D03*
G54D16*
X52100Y-36975D03*
X52100Y-36225D03*
G54D23*
X53083Y-27280D03*
X52217Y-27655D03*
X52217Y-26905D03*
G54D15*
X53675Y-25400D03*
X52925Y-25400D03*
X51675Y-24700D03*
X50925Y-24700D03*
X49575Y-30900D03*
X48825Y-30900D03*
G54D16*
X34800Y-23575D03*
X34800Y-22825D03*
G54D22*
X55550Y-30400D03*
X54250Y-30400D03*
G54D15*
X60525Y-34850D03*
X61275Y-34850D03*
G54D24*
X66400Y-33700D03*
G54D25*
X67856Y-34113D03*
X67856Y-33286D03*
G54D24*
X67200Y-25200D03*
G54D25*
X65743Y-24786D03*
X65743Y-25613D03*
G54D26*
X55352Y-35800D03*
X56848Y-35800D03*
G54D17*
X46750Y-24700D03*
X46150Y-24700D03*
G54D27*
X42300Y-25600D03*
X42300Y-26200D03*
X48800Y-23300D03*
X48800Y-23900D03*
X48100Y-23300D03*
X48100Y-23900D03*
X33500Y-26000D03*
X33500Y-25400D03*
G54D17*
X42600Y-22500D03*
X42000Y-22500D03*
G54D27*
X45300Y-26200D03*
X45300Y-25600D03*
G54D17*
X38100Y-38200D03*
X37500Y-38200D03*
X61200Y-38000D03*
X60600Y-38000D03*
X48900Y-31600D03*
X49500Y-31600D03*
X49600Y-33900D03*
X49000Y-33900D03*
G54D27*
X60602Y-34199D03*
X60602Y-33599D03*
G54D17*
X52800Y-28300D03*
X52200Y-28300D03*
X53000Y-26200D03*
X53600Y-26200D03*
G54D27*
X56000Y-21500D03*
X56000Y-20900D03*
X54400Y-23500D03*
X54400Y-22900D03*
X55900Y-27400D03*
X55900Y-28000D03*
X55900Y-29200D03*
X55900Y-28600D03*
X48150Y-31150D03*
X48150Y-30550D03*
X45300Y-27000D03*
X45300Y-27600D03*
G54D17*
X51150Y-26200D03*
X50550Y-26200D03*
G54D18*
X57700Y-35250D03*
X59800Y-35250D03*
X57700Y-34750D03*
X57700Y-34250D03*
X57700Y-33750D03*
X59800Y-34750D03*
X59800Y-34250D03*
X59800Y-33750D03*
G54D16*
X41000Y-25175D03*
X41000Y-24425D03*
G54D17*
X38700Y-33400D03*
X38100Y-33400D03*
G54D27*
X41800Y-20900D03*
X41800Y-21500D03*
G54D28*
X53650Y-27350D03*
X53650Y-29450D03*
X54150Y-27350D03*
X54650Y-27350D03*
X55150Y-27350D03*
X54150Y-29450D03*
X54650Y-29450D03*
X55150Y-29450D03*
X45350Y-24550D03*
X45350Y-22450D03*
X44850Y-24550D03*
X44350Y-24550D03*
X43850Y-24550D03*
X44850Y-22450D03*
X44350Y-22450D03*
X43850Y-22450D03*
G54D17*
X39300Y-33400D03*
X39900Y-33400D03*
G54D29*
X38125Y-24000D03*
X38125Y-24200D03*
X38125Y-24400D03*
X38125Y-24600D03*
X38125Y-24800D03*
X39875Y-24800D03*
X39875Y-24600D03*
X39875Y-24400D03*
X39875Y-24200D03*
X39875Y-24000D03*
G54D27*
X42175Y-23775D03*
X42175Y-23175D03*
G54D17*
X43000Y-24600D03*
X42400Y-24600D03*
G54D27*
X41800Y-25100D03*
X41800Y-24500D03*
G54D15*
X35775Y-21000D03*
X35025Y-21000D03*
X35775Y-21800D03*
X35025Y-21800D03*
X50975Y-33100D03*
X50225Y-33100D03*
G54D17*
X50300Y-33900D03*
X50900Y-33900D03*
X51000Y-31600D03*
X50400Y-31600D03*
X38100Y-36200D03*
X37500Y-36200D03*
G54D27*
X51700Y-31200D03*
X51700Y-30600D03*
G54D16*
X43050Y-23875D03*
X43050Y-23125D03*
G54D17*
X50200Y-30400D03*
X50800Y-30400D03*
G54D30*
X50800Y-29750D03*
X50800Y-29250D03*
X50800Y-28750D03*
X50800Y-28250D03*
X48600Y-28250D03*
X48600Y-28750D03*
X48600Y-29250D03*
X48600Y-29750D03*
G54D17*
X52900Y-22500D03*
X52300Y-22500D03*
G54D31*
X44019Y-21000D03*
X45381Y-21000D03*
X39581Y-22900D03*
X38219Y-22900D03*
G54D32*
X55000Y-31719D03*
X55000Y-33081D03*
G54D31*
X35669Y-22900D03*
X37031Y-22900D03*
G54D33*
X37400Y-29950D03*
X37400Y-28750D03*
G54D16*
X35200Y-34325D03*
X35200Y-35075D03*
X52100Y-38375D03*
X52100Y-37625D03*
G54D22*
X49650Y-35300D03*
X50950Y-35300D03*
G54D34*
X50800Y-38300D03*
G54D35*
X48300Y-37400D03*
G54D34*
X50800Y-36500D03*
G54D36*
X65950Y-30320D03*
X66450Y-30320D03*
X66950Y-30320D03*
X67450Y-30320D03*
X67450Y-28079D03*
X66950Y-28079D03*
X66450Y-28079D03*
X65950Y-28079D03*
G54D37*
X66700Y-28991D03*
G54D36*
X62950Y-30320D03*
X63450Y-30320D03*
X63950Y-30320D03*
X64450Y-30320D03*
X64450Y-28079D03*
X63950Y-28079D03*
X63450Y-28079D03*
X62950Y-28079D03*
G54D37*
X63700Y-28991D03*
G54D27*
X50500Y-21900D03*
X50500Y-21300D03*
X51200Y-21900D03*
X51200Y-21300D03*
G54D15*
X56525Y-37100D03*
X57275Y-37100D03*
G54D17*
X55900Y-37100D03*
X55300Y-37100D03*
X54900Y-26000D03*
X54300Y-26000D03*
G54D27*
X41375Y-23175D03*
X41375Y-23775D03*
X40625Y-23200D03*
X40625Y-23800D03*
X44100Y-27000D03*
X44100Y-27600D03*
G54D38*
X65200Y-29323D03*
X65200Y-29677D03*
G54D39*
X48865Y-32300D03*
X49535Y-32300D03*
X38735Y-26400D03*
X38065Y-26400D03*
X38735Y-25400D03*
X38065Y-25400D03*
G54D40*
X38800Y-28035D03*
X38800Y-27365D03*
G54D39*
X51035Y-32300D03*
X50365Y-32300D03*
G54D41*
X53500Y-31947D03*
G54D42*
X53500Y-32862D03*
G54D41*
X56500Y-33102D03*
G54D42*
X56500Y-32187D03*
G54D43*
X50102Y-27100D03*
G54D44*
X49187Y-27100D03*
M02*
