G04 (created by PCBNEW (2013-07-07 BZR 4022)-stable) date 2/4/2017 6:27:51 AM*
%MOIN*%
G04 Gerber Fmt 3.4, Leading zero omitted, Abs format*
%FSLAX34Y34*%
G01*
G70*
G90*
G04 APERTURE LIST*
%ADD10C,0.00590551*%
%ADD11O,0.0808661X0.0533071*%
%ADD12O,0.0966142X0.0533071*%
%ADD13R,0.07X0.07*%
%ADD14C,0.07*%
%ADD15R,0.021148X0.0802031*%
%ADD16R,0.025748X0.0848031*%
%ADD17C,0.1537*%
%ADD18R,0.0691X0.0691*%
%ADD19C,0.0691*%
%ADD20R,0.0809X0.0612*%
%ADD21R,0.0809X0.1596*%
%ADD22C,0.1281*%
%ADD23R,0.0415X0.0494*%
%ADD24R,0.045X0.065*%
%ADD25R,0.065X0.045*%
%ADD26C,0.135*%
%ADD27R,0.035X0.055*%
%ADD28R,0.0651X0.0336*%
%ADD29R,0.0887X0.0277*%
%ADD30R,0.0277X0.0887*%
%ADD31R,0.0729921X0.0729921*%
%ADD32C,0.0729921*%
%ADD33R,0.075X0.026*%
%ADD34R,0.07X0.09*%
%ADD35R,0.0494X0.0415*%
%ADD36C,0.108425*%
%ADD37R,0.0808661X0.0808661*%
%ADD38C,0.0808661*%
%ADD39R,0.198976X0.20685*%
%ADD40R,0.0651181X0.0651181*%
%ADD41R,0.073X0.0966*%
%ADD42R,0.055X0.035*%
%ADD43C,0.0395*%
%ADD44C,0.055*%
%ADD45R,0.0336X0.0651*%
%ADD46R,0.0494X0.0206*%
%ADD47C,0.076*%
%ADD48R,0.0415X0.12*%
%ADD49R,0.035X0.123*%
%ADD50R,0.11X0.11*%
%ADD51C,0.11*%
%ADD52R,0.06X0.035*%
%ADD53R,0.0927X0.0769*%
%ADD54R,0.0769X0.0927*%
%ADD55R,0.11X0.06*%
%ADD56R,0.13X0.075*%
%ADD57R,0.25X0.25*%
%ADD58C,0.085*%
%ADD59R,0.085X0.085*%
%ADD60R,0.0395276X0.0552756*%
%ADD61R,0.189528X0.157638*%
%ADD62O,0.0493701X0.0769291*%
%ADD63C,0.0277165*%
%ADD64R,0.0336X0.0257*%
%ADD65R,0.0336X0.0415*%
%ADD66R,0.0415X0.0336*%
%ADD67R,0.0651181X0.100551*%
%ADD68R,0.0651181X0.0592126*%
%ADD69R,0.100551X0.0651181*%
%ADD70R,0.0592126X0.0651181*%
%ADD71R,0.0749606X0.0749606*%
%ADD72C,0.0749606*%
%ADD73C,0.008*%
%ADD74C,0.01*%
G04 APERTURE END LIST*
G54D10*
G54D11*
X47297Y-21100D03*
X49502Y-21100D03*
G54D12*
X48400Y-20253D03*
G54D13*
X47150Y-22550D03*
G54D14*
X48150Y-22550D03*
X49150Y-22550D03*
X50150Y-22550D03*
X51150Y-22550D03*
G54D15*
X42892Y-33440D03*
X42420Y-33440D03*
G54D16*
X41947Y-33440D03*
G54D17*
X33600Y-24162D03*
X33600Y-28835D03*
G54D18*
X36100Y-28250D03*
G54D19*
X37100Y-27750D03*
X36100Y-27250D03*
X37100Y-26750D03*
X36100Y-26250D03*
X37100Y-25750D03*
X36100Y-25250D03*
X37100Y-24750D03*
G54D17*
X33600Y-30462D03*
X33600Y-35135D03*
G54D18*
X36100Y-34550D03*
G54D19*
X37100Y-34050D03*
X36100Y-33550D03*
X37100Y-33050D03*
X36100Y-32550D03*
X37100Y-32050D03*
X36100Y-31550D03*
X37100Y-31050D03*
G54D20*
X55619Y-22494D03*
X55619Y-23400D03*
X55619Y-24306D03*
G54D21*
X57981Y-23400D03*
G54D22*
X69291Y-37795D03*
G54D23*
X37200Y-35633D03*
X36825Y-34767D03*
X37575Y-34767D03*
X46500Y-26283D03*
X46125Y-25417D03*
X46875Y-25417D03*
X43400Y-26433D03*
X43025Y-25567D03*
X43775Y-25567D03*
G54D24*
X51275Y-25450D03*
X50525Y-25450D03*
G54D25*
X32100Y-33275D03*
X32100Y-32525D03*
X44500Y-25625D03*
X44500Y-26375D03*
G54D24*
X46915Y-30080D03*
X46165Y-30080D03*
X46935Y-30900D03*
X46185Y-30900D03*
G54D25*
X39825Y-30600D03*
X39825Y-29850D03*
G54D13*
X40000Y-28100D03*
G54D14*
X41000Y-28100D03*
X40000Y-27100D03*
X41000Y-27100D03*
X40000Y-26100D03*
X41000Y-26100D03*
G54D26*
X69291Y-21259D03*
X33070Y-37795D03*
G54D27*
X46850Y-24000D03*
X47450Y-24000D03*
X50000Y-24000D03*
X49400Y-24000D03*
G54D25*
X33500Y-27375D03*
X33500Y-26625D03*
G54D28*
X35150Y-32050D03*
X33050Y-32050D03*
X35150Y-32550D03*
X35150Y-33050D03*
X35150Y-33550D03*
X33050Y-32550D03*
X33050Y-33050D03*
X33050Y-33550D03*
G54D29*
X41179Y-31468D03*
X41179Y-31153D03*
X41179Y-30838D03*
X41179Y-30523D03*
X41179Y-30208D03*
X41179Y-29893D03*
X41179Y-29578D03*
X41179Y-29263D03*
X44945Y-29265D03*
X44945Y-31475D03*
X44945Y-31155D03*
X44945Y-30835D03*
X44945Y-30525D03*
X44945Y-30205D03*
X44945Y-29895D03*
X44945Y-29575D03*
G54D30*
X41963Y-28475D03*
X42277Y-28475D03*
X42593Y-28475D03*
X42907Y-28475D03*
X43223Y-28475D03*
X43537Y-28475D03*
X43853Y-28475D03*
X44167Y-28475D03*
X41965Y-32255D03*
X42275Y-32255D03*
X42595Y-32255D03*
X42905Y-32255D03*
X43215Y-32255D03*
X43535Y-32255D03*
X43855Y-32255D03*
X44175Y-32255D03*
G54D25*
X60850Y-35625D03*
X60850Y-36375D03*
G54D24*
X46175Y-31800D03*
X46925Y-31800D03*
X48925Y-33100D03*
X49675Y-33100D03*
X41275Y-22500D03*
X40525Y-22500D03*
G54D31*
X54600Y-38192D03*
G54D32*
X54600Y-37207D03*
G54D22*
X33070Y-21259D03*
G54D33*
X49750Y-25525D03*
X49750Y-25275D03*
X49750Y-25025D03*
X49750Y-24775D03*
X47650Y-26275D03*
X49750Y-26275D03*
X49750Y-26025D03*
X49750Y-25775D03*
X47650Y-24525D03*
X47650Y-24775D03*
X47650Y-25025D03*
X47650Y-25275D03*
X47650Y-25525D03*
X47650Y-25775D03*
X49750Y-24525D03*
X47650Y-26025D03*
G54D27*
X50050Y-23300D03*
X49450Y-23300D03*
X46850Y-23350D03*
X47450Y-23350D03*
G54D34*
X46700Y-27050D03*
X48000Y-27050D03*
G54D25*
X52100Y-36975D03*
X52100Y-36225D03*
G54D35*
X53083Y-27280D03*
X52217Y-27655D03*
X52217Y-26905D03*
G54D24*
X53675Y-25400D03*
X52925Y-25400D03*
X51675Y-24700D03*
X50925Y-24700D03*
X49575Y-30900D03*
X48825Y-30900D03*
G54D36*
X69200Y-34721D03*
X69200Y-32752D03*
X69200Y-30784D03*
X69200Y-28815D03*
X69200Y-24878D03*
X69200Y-26847D03*
G54D25*
X34800Y-23575D03*
X34800Y-22825D03*
G54D34*
X55550Y-30400D03*
X54250Y-30400D03*
G54D24*
X60525Y-34850D03*
X61275Y-34850D03*
G54D37*
X56584Y-34100D03*
G54D38*
X54615Y-34100D03*
G54D39*
X66400Y-33700D03*
G54D40*
X67856Y-34113D03*
X67856Y-33286D03*
G54D39*
X67200Y-25200D03*
G54D40*
X65743Y-24786D03*
X65743Y-25613D03*
G54D41*
X55352Y-35800D03*
X56848Y-35800D03*
G54D27*
X46750Y-24700D03*
X46150Y-24700D03*
G54D42*
X42300Y-25600D03*
X42300Y-26200D03*
X48800Y-23300D03*
X48800Y-23900D03*
X48100Y-23300D03*
X48100Y-23900D03*
X33500Y-26000D03*
X33500Y-25400D03*
G54D27*
X42600Y-22500D03*
X42000Y-22500D03*
G54D42*
X45300Y-26200D03*
X45300Y-25600D03*
G54D27*
X38100Y-38200D03*
X37500Y-38200D03*
X61200Y-38000D03*
X60600Y-38000D03*
X48900Y-31600D03*
X49500Y-31600D03*
X49600Y-33900D03*
X49000Y-33900D03*
G54D42*
X60602Y-34199D03*
X60602Y-33599D03*
G54D27*
X52800Y-28300D03*
X52200Y-28300D03*
X53000Y-26200D03*
X53600Y-26200D03*
G54D42*
X56000Y-21500D03*
X56000Y-20900D03*
X54400Y-23500D03*
X54400Y-22900D03*
X55900Y-27400D03*
X55900Y-28000D03*
X55900Y-29200D03*
X55900Y-28600D03*
X48150Y-31150D03*
X48150Y-30550D03*
X45300Y-27000D03*
X45300Y-27600D03*
G54D27*
X51150Y-26200D03*
X50550Y-26200D03*
G54D43*
X65400Y-20800D03*
G54D22*
X65400Y-20800D03*
G54D28*
X57700Y-35250D03*
X59800Y-35250D03*
X57700Y-34750D03*
X57700Y-34250D03*
X57700Y-33750D03*
X59800Y-34750D03*
X59800Y-34250D03*
X59800Y-33750D03*
G54D25*
X41000Y-25175D03*
X41000Y-24425D03*
G54D27*
X38700Y-33400D03*
X38100Y-33400D03*
G54D42*
X41800Y-20900D03*
X41800Y-21500D03*
G54D44*
X56700Y-38200D03*
G54D45*
X53650Y-27350D03*
X53650Y-29450D03*
X54150Y-27350D03*
X54650Y-27350D03*
X55150Y-27350D03*
X54150Y-29450D03*
X54650Y-29450D03*
X55150Y-29450D03*
X45350Y-24550D03*
X45350Y-22450D03*
X44850Y-24550D03*
X44350Y-24550D03*
X43850Y-24550D03*
X44850Y-22450D03*
X44350Y-22450D03*
X43850Y-22450D03*
G54D27*
X39300Y-33400D03*
X39900Y-33400D03*
G54D46*
X38125Y-24000D03*
X38125Y-24200D03*
X38125Y-24400D03*
X38125Y-24600D03*
X38125Y-24800D03*
X39875Y-24800D03*
X39875Y-24600D03*
X39875Y-24400D03*
X39875Y-24200D03*
X39875Y-24000D03*
G54D14*
X39500Y-36500D03*
X40500Y-36500D03*
X41500Y-36500D03*
X42500Y-36500D03*
X43500Y-36500D03*
X44500Y-36500D03*
X45500Y-36500D03*
G54D13*
X46500Y-36500D03*
X46500Y-38500D03*
G54D14*
X45500Y-38500D03*
X44500Y-38500D03*
X43500Y-38500D03*
X42500Y-38500D03*
X41500Y-38500D03*
X40500Y-38500D03*
X39500Y-38500D03*
X39500Y-35500D03*
X40500Y-35500D03*
X41500Y-35500D03*
X42500Y-35500D03*
X43500Y-35500D03*
X44500Y-35500D03*
X45500Y-35500D03*
X46500Y-35500D03*
G54D42*
X42175Y-23775D03*
X42175Y-23175D03*
G54D27*
X43000Y-24600D03*
X42400Y-24600D03*
G54D42*
X41800Y-25100D03*
X41800Y-24500D03*
G54D24*
X35775Y-21000D03*
X35025Y-21000D03*
X35775Y-21800D03*
X35025Y-21800D03*
G54D13*
X38400Y-32400D03*
G54D14*
X39400Y-32400D03*
G54D24*
X50975Y-33100D03*
X50225Y-33100D03*
G54D27*
X50300Y-33900D03*
X50900Y-33900D03*
X51000Y-31600D03*
X50400Y-31600D03*
X38100Y-36200D03*
X37500Y-36200D03*
G54D47*
X37400Y-37200D03*
X36400Y-37200D03*
X35400Y-37200D03*
G54D42*
X51700Y-31200D03*
X51700Y-30600D03*
G54D36*
X42752Y-21300D03*
X40784Y-21300D03*
X36847Y-21300D03*
X38815Y-21300D03*
G54D10*
G36*
X40157Y-19885D02*
X40157Y-21115D01*
X39742Y-20615D01*
X39742Y-20385D01*
X40157Y-19885D01*
X40157Y-19885D01*
G37*
G54D48*
X39450Y-20500D03*
G54D49*
X40230Y-20500D03*
G54D10*
G36*
X39957Y-19900D02*
X39657Y-20500D01*
X39542Y-20500D01*
X39242Y-19900D01*
X39957Y-19900D01*
X39957Y-19900D01*
G37*
G36*
X39242Y-21100D02*
X39542Y-20500D01*
X39657Y-20500D01*
X39957Y-21100D01*
X39242Y-21100D01*
X39242Y-21100D01*
G37*
G54D25*
X43050Y-23875D03*
X43050Y-23125D03*
G54D43*
X34500Y-36450D03*
G54D22*
X34500Y-36450D03*
G54D50*
X35000Y-28300D03*
G54D51*
X35000Y-26800D03*
X35000Y-25300D03*
G54D27*
X50200Y-30400D03*
X50800Y-30400D03*
G54D52*
X50800Y-29750D03*
X50800Y-29250D03*
X50800Y-28750D03*
X50800Y-28250D03*
X48600Y-28250D03*
X48600Y-28750D03*
X48600Y-29250D03*
X48600Y-29750D03*
G54D36*
X60837Y-21400D03*
X58868Y-21400D03*
X56900Y-21400D03*
X52962Y-21400D03*
X54931Y-21400D03*
G54D27*
X52900Y-22500D03*
X52300Y-22500D03*
G54D13*
X38800Y-29800D03*
G54D14*
X38800Y-30800D03*
G54D53*
X44019Y-21000D03*
X45381Y-21000D03*
X39581Y-22900D03*
X38219Y-22900D03*
G54D54*
X55000Y-31719D03*
X55000Y-33081D03*
G54D53*
X35669Y-22900D03*
X37031Y-22900D03*
G54D55*
X37400Y-29950D03*
X37400Y-28750D03*
G54D25*
X35200Y-34325D03*
X35200Y-35075D03*
X52100Y-38375D03*
X52100Y-37625D03*
G54D34*
X49650Y-35300D03*
X50950Y-35300D03*
G54D56*
X50800Y-38300D03*
G54D57*
X48300Y-37400D03*
G54D56*
X50800Y-36500D03*
G54D58*
X58113Y-38184D03*
X59687Y-38184D03*
G54D59*
X59687Y-36216D03*
G54D58*
X58113Y-36216D03*
G54D60*
X65950Y-30320D03*
X66450Y-30320D03*
X66950Y-30320D03*
X67450Y-30320D03*
X67450Y-28079D03*
X66950Y-28079D03*
X66450Y-28079D03*
X65950Y-28079D03*
G54D61*
X66700Y-28991D03*
G54D60*
X62950Y-30320D03*
X63450Y-30320D03*
X63950Y-30320D03*
X64450Y-30320D03*
X64450Y-28079D03*
X63950Y-28079D03*
X63450Y-28079D03*
X62950Y-28079D03*
G54D61*
X63700Y-28991D03*
G54D42*
X50500Y-21900D03*
X50500Y-21300D03*
X51200Y-21900D03*
X51200Y-21300D03*
G54D24*
X56525Y-37100D03*
X57275Y-37100D03*
G54D27*
X55900Y-37100D03*
X55300Y-37100D03*
X54900Y-26000D03*
X54300Y-26000D03*
G54D62*
X46992Y-21100D03*
X49807Y-21100D03*
G54D63*
X48144Y-20792D03*
X48400Y-21296D03*
X48655Y-20792D03*
X48911Y-21296D03*
X47888Y-21296D03*
G54D42*
X41375Y-23175D03*
X41375Y-23775D03*
X40625Y-23200D03*
X40625Y-23800D03*
X44100Y-27000D03*
X44100Y-27600D03*
G54D64*
X65200Y-29323D03*
X65200Y-29677D03*
G54D65*
X48865Y-32300D03*
X49535Y-32300D03*
X38735Y-26400D03*
X38065Y-26400D03*
X38735Y-25400D03*
X38065Y-25400D03*
G54D66*
X38800Y-28035D03*
X38800Y-27365D03*
G54D65*
X51035Y-32300D03*
X50365Y-32300D03*
G54D67*
X53500Y-31947D03*
G54D68*
X53500Y-32862D03*
G54D67*
X56500Y-33102D03*
G54D68*
X56500Y-32187D03*
G54D69*
X50102Y-27100D03*
G54D70*
X49187Y-27100D03*
G54D71*
X51800Y-32400D03*
G54D72*
X51800Y-33400D03*
G54D71*
X48100Y-32400D03*
G54D72*
X48100Y-33400D03*
G54D10*
G36*
X68010Y-26510D02*
X66490Y-26510D01*
X66490Y-23790D01*
X68010Y-23790D01*
X68010Y-26510D01*
X68010Y-26510D01*
G37*
G54D73*
X68010Y-26510D02*
X66490Y-26510D01*
X66490Y-23790D01*
X68010Y-23790D01*
X68010Y-26510D01*
G54D10*
G36*
X67160Y-35010D02*
X65590Y-35010D01*
X65590Y-32390D01*
X67160Y-32390D01*
X67160Y-35010D01*
X67160Y-35010D01*
G37*
G54D73*
X67160Y-35010D02*
X65590Y-35010D01*
X65590Y-32390D01*
X67160Y-32390D01*
X67160Y-35010D01*
G54D10*
G36*
X68250Y-29650D02*
X67050Y-29650D01*
X67050Y-28450D01*
X68250Y-28450D01*
X68250Y-29650D01*
X68250Y-29650D01*
G37*
G54D74*
X68250Y-29650D02*
X67050Y-29650D01*
X67050Y-28450D01*
X68250Y-28450D01*
X68250Y-29650D01*
G54D10*
G36*
X63150Y-29650D02*
X62350Y-29650D01*
X62350Y-28450D01*
X63150Y-28450D01*
X63150Y-29650D01*
X63150Y-29650D01*
G37*
G54D74*
X63150Y-29650D02*
X62350Y-29650D01*
X62350Y-28450D01*
X63150Y-28450D01*
X63150Y-29650D01*
M02*
