M48
;DRILL file {Pcbnew (2013-07-07 BZR 4022)-stable} date 2/4/2017 6:27:48 AM
;FORMAT={-:-/ absolute / inch / decimal}
FMAT,2
INCH,TZ
T1C0.008
T2C0.009
T3C0.014
T4C0.020
T5C0.025
T6C0.026
T7C0.031
T8C0.032
T9C0.035
T10C0.039
T11C0.040
T12C0.051
T13C0.060
%
G90
G05
M72
T1
X4.15Y-3.35
X4.175Y-3.29
X4.195Y-3.415
X4.244Y-3.287
X4.29Y-3.415
X4.315Y-3.29
X4.335Y-3.35
X4.78Y-3.69
X4.78Y-3.81
X4.863Y-3.763
X4.92Y-3.69
X4.92Y-3.84
X5.835Y-3.355
X5.835Y-3.425
X5.835Y-3.48
X5.92Y-3.395
X5.92Y-3.45
X6.015Y-3.42
X6.125Y-3.42
X6.13Y-3.525
T2
X4.7888Y-2.1297
X4.8144Y-2.0793
X4.84Y-2.1297
X4.8656Y-2.0793
X4.8912Y-2.1297
T5
X3.25Y-3.31
X3.26Y-3.25
X3.376Y-3.33
X3.378Y-3.206
X3.42Y-2.57
X3.47Y-2.41
X3.48Y-2.23
X3.514Y-3.155
X3.52Y-3.39
X3.522Y-3.549
X3.67Y-3.56
X3.758Y-2.41
X3.795Y-2.695
X3.81Y-2.59
X3.83Y-3.76
X3.85Y-3.62
X3.87Y-2.7
X3.874Y-2.838
X3.88Y-2.44
X3.88Y-3.82
X3.9Y-3.34
X3.93Y-2.44
X3.944Y-3.1468
X3.95Y-2.534
X4.036Y-2.516
X4.041Y-2.448
X4.042Y-3.188
X4.0425Y-3.0025
X4.0425Y-3.0525
X4.044Y-3.11
X4.16Y-2.25
X4.167Y-2.188
X4.199Y-3.021
X4.243Y-2.921
X4.26Y-2.754
X4.279Y-3.077
X4.334Y-3.083
X4.343Y-2.703
X4.356Y-2.998
X4.361Y-2.937
X4.37Y-2.315
X4.374Y-2.384
X4.388Y-2.606
X4.405Y-2.51
X4.418Y-2.955
X4.432Y-2.312
X4.484Y-2.18
X4.496Y-2.31
X4.53Y-2.659
X4.53Y-2.8
X4.535Y-2.385
X4.564Y-2.507
X4.57Y-3.052
X4.592Y-2.924
X4.605Y-2.705
X4.61Y-2.03
X4.61Y-2.16
X4.62Y-2.1
X4.641Y-2.4
X4.643Y-2.335
X4.67Y-2.78
X4.73Y-3.18
X4.74Y-3.09
X4.746Y-3.006
X4.806Y-2.861
X4.814Y-3.012
X4.829Y-2.572
X4.868Y-2.705
X4.879Y-2.482
X4.882Y-3.036
X4.91Y-2.611
X4.929Y-2.827
X4.959Y-3.0365
X4.99Y-3.44
X5.Y-3.2
X5.Y-3.25
X5.035Y-3.105
X5.047Y-2.483
X5.05Y-2.09
X5.095Y-2.71
X5.12Y-2.09
X5.137Y-2.813
X5.14Y-3.74
X5.161Y-2.625
X5.17Y-2.765
X5.17Y-3.
X5.17Y-3.49
X5.17Y-3.55
X5.171Y-2.544
X5.182Y-2.942
X5.245Y-2.54
X5.255Y-2.625
X5.32Y-2.945
X5.32Y-3.
X5.325Y-3.37
X5.375Y-3.37
X5.411Y-2.415
X5.415Y-2.673
X5.452Y-2.796
X5.4835Y-2.4235
X5.515Y-2.813
X5.548Y-2.601
X5.57Y-3.128
X5.585Y-3.225
X5.608Y-2.968
X5.648Y-2.74
X5.67Y-3.82
X5.84Y-2.56
X5.84Y-2.84
X5.9Y-3.06
X5.9Y-3.24
X6.04Y-2.48
X6.04Y-2.84
X6.08Y-3.06
X6.08Y-3.24
X6.192Y-3.688
X6.196Y-3.816
X6.204Y-3.558
X6.22Y-2.28
X6.22Y-3.14
X6.22Y-3.36
X6.32Y-3.14
X6.34Y-2.72
X6.352Y-3.546
X6.354Y-3.816
X6.356Y-3.688
X6.36Y-2.12
X6.36Y-3.36
X6.38Y-2.34
X6.42Y-3.14
X6.44Y-2.72
X6.44Y-3.66
X6.48Y-2.46
X6.48Y-2.56
X6.48Y-3.36
X6.482Y-3.032
X6.52Y-2.895
X6.52Y-3.14
X6.53Y-3.018
X6.54Y-2.72
X6.56Y-3.56
X6.56Y-3.78
X6.6Y-3.14
X6.64Y-2.72
X6.68Y-3.14
X6.72Y-2.12
X6.72Y-2.32
X6.76Y-3.14
X6.785Y-3.032
X6.82Y-3.6
X6.9Y-2.34
T6
X5.46Y-3.7208
X5.46Y-3.8192
T7
X5.4616Y-3.41
X5.6584Y-3.41
T8
X3.54Y-3.72
X3.64Y-3.72
X3.74Y-3.72
X3.95Y-3.55
X3.95Y-3.65
X3.95Y-3.85
X4.05Y-3.55
X4.05Y-3.65
X4.05Y-3.85
X4.15Y-3.55
X4.15Y-3.65
X4.15Y-3.85
X4.25Y-3.55
X4.25Y-3.65
X4.25Y-3.85
X4.35Y-3.55
X4.35Y-3.65
X4.35Y-3.85
X4.45Y-3.55
X4.45Y-3.65
X4.45Y-3.85
X4.55Y-3.55
X4.55Y-3.65
X4.55Y-3.85
X4.65Y-3.55
X4.65Y-3.65
X4.65Y-3.85
X5.8113Y-3.6216
X5.8113Y-3.8184
X5.9687Y-3.6216
X5.9687Y-3.8184
T9
X3.61Y-2.525
X3.61Y-2.625
X3.61Y-2.725
X3.61Y-2.825
X3.61Y-3.155
X3.61Y-3.255
X3.61Y-3.355
X3.61Y-3.455
X3.71Y-2.475
X3.71Y-2.575
X3.71Y-2.675
X3.71Y-2.775
X3.71Y-3.105
X3.71Y-3.205
X3.71Y-3.305
X3.71Y-3.405
T10
X4.81Y-3.24
X4.81Y-3.34
X5.18Y-3.24
X5.18Y-3.34
T11
X3.84Y-3.24
X3.88Y-2.98
X3.88Y-3.08
X3.94Y-3.24
X4.Y-2.61
X4.Y-2.71
X4.Y-2.81
X4.1Y-2.61
X4.1Y-2.71
X4.1Y-2.81
X4.715Y-2.255
X4.815Y-2.255
X4.915Y-2.255
X5.015Y-2.255
X5.115Y-2.255
T12
X3.6847Y-2.13
X3.8816Y-2.13
X4.0784Y-2.13
X4.2753Y-2.13
X5.2963Y-2.14
X5.4931Y-2.14
X5.69Y-2.14
X5.8869Y-2.14
X6.0837Y-2.14
X6.92Y-2.4879
X6.92Y-2.6847
X6.92Y-2.8816
X6.92Y-3.0784
X6.92Y-3.2753
X6.92Y-3.4721
T13
X3.5Y-2.53
X3.5Y-2.68
X3.5Y-2.83
T3
X4.6993Y-2.0972G85X4.6993Y-2.1228
G05
X4.9807Y-2.0972G85X4.9807Y-2.1228
G05
T4
X4.716Y-2.11G85X4.7435Y-2.11
G05
X4.8183Y-2.0254G85X4.8617Y-2.0254
G05
X4.9365Y-2.11G85X4.964Y-2.11
G05
T0
M30
